<svg xmlns="http://www.w3.org/2000/svg" id="svg2" height="16" width="16"><g transform="translate(0 -1036.362)" id="layer1"><path id="rect4136" fill="none" stroke="#572980" stroke-width="1.812" stroke-linejoin="round" d="M1.906 1038.268h12.188v12.188H1.906z"/><path id="path4244" d="M5.457 1048.52c-.442-.961-.892-1.701-1.33-2.084a2.413 2.413 0 0 0-.912-.522c-.262-.075-.547-.055-.547-.055-1.014.117-.807 1.643.201 1.486 0 0-.108 0-.064.01.043.012.155.053.334.21.356.311.967 1.118 1.545 3.007l1.392.11c1.455-4.114 2.533-5.437 8.379-14.346-4.511 5.242-7.142 8.151-8.998 12.184z" style="line-height:normal;text-indent:0;text-align:start;text-decoration-line:none;text-decoration-style:solid;text-decoration-color:#000;text-transform:none;block-progression:tb;isolation:auto;mix-blend-mode:normal" color="#000" font-weight="400" font-family="sans-serif" white-space="normal" overflow="visible" fill="#19d71c" fill-rule="evenodd" stroke-width="1.5" stroke-linecap="round"/></g></svg>