<?xml version="1.0" encoding="utf-8"?>
<!-- Generator: Adobe Illustrator 20.1.0, SVG Export Plug-In . SVG Version: 6.00 Build 0)  -->
<!DOCTYPE svg PUBLIC "-//W3C//DTD SVG 1.1//EN" "http://www.w3.org/Graphics/SVG/1.1/DTD/svg11.dtd">
<svg version="1.1" id="Camada_1" xmlns="http://www.w3.org/2000/svg" xmlns:xlink="http://www.w3.org/1999/xlink" x="0px" y="0px"
	 viewBox="0 0 147.8 98.9" style="enable-background:new 0 0 147.8 98.9;" xml:space="preserve">
<style type="text/css">
	.st0{fill:#582983;stroke:#582983;stroke-width:0.75;stroke-miterlimit:10;}
	.st1{fill:#582983;}
</style>
<g>
	<g>
		<g>
			<g>
				<path class="st0" d="M103.8,46.3"/>
			</g>
			<g>
				<path class="st1" d="M64.3,45.6c0,1.2-1,2.2-2.2,2.2c-1.2,0-2.2-1-2.2-2.2c0-1.2,1-2.2,2.2-2.2C63.3,43.3,64.3,44.3,64.3,45.6
					L64.3,45.6z M64.3,45.6"/>
				<path class="st1" d="M62,48.5c-1.6,0-2.9-1.3-2.9-2.9s1.3-2.9,2.9-2.9S65,44,65,45.6S63.6,48.5,62,48.5z M62,44
					c-0.8,0-1.5,0.7-1.5,1.5s0.7,1.5,1.5,1.5s1.5-0.7,1.5-1.5S62.9,44,62,44z"/>
			</g>
			<g>
				<path class="st1" d="M88.9,45.6c0,1.2-1,2.2-2.2,2.2c-1.2,0-2.2-1-2.2-2.2c0-1.2,1-2.2,2.2-2.2C87.9,43.3,88.9,44.3,88.9,45.6
					L88.9,45.6z M88.9,45.6"/>
				<path class="st1" d="M86.7,48.5c-1.6,0-2.9-1.3-2.9-2.9s1.3-2.9,2.9-2.9c1.6,0,2.9,1.3,2.9,2.9S88.3,48.5,86.7,48.5z M86.7,44
					c-0.8,0-1.5,0.7-1.5,1.5s0.7,1.5,1.5,1.5c0.8,0,1.5-0.7,1.5-1.5S87.5,44,86.7,44z"/>
			</g>
			<g>
				<path class="st1" d="M58.5,42.5c0.2,0,0.4,0,0.6-0.1l5-2.4c0.7-0.3,0.9-1.1,0.6-1.8c-0.3-0.7-1.1-0.9-1.8-0.6L58,40
					c-0.7,0.3-0.9,1.1-0.6,1.8C57.6,42.2,58,42.5,58.5,42.5L58.5,42.5z M58.5,42.5"/>
				<path class="st1" d="M58.5,43.2c-0.8,0-1.5-0.5-1.8-1.2c-0.2-0.5-0.3-1-0.1-1.5c0.2-0.5,0.5-0.9,1-1.2l5-2.4
					c0.5-0.2,1-0.3,1.5-0.1c0.5,0.2,0.9,0.6,1.2,1c0.5,1,0,2.2-1,2.7l-5,2.4C59.1,43.2,58.8,43.2,58.5,43.2z M63.5,38.2
					c-0.1,0-0.2,0-0.3,0.1l-5,2.4c-0.1,0.1-0.3,0.2-0.3,0.4c-0.1,0.2,0,0.3,0,0.5c0.1,0.3,0.5,0.4,0.8,0.3l5-2.4
					c0.3-0.1,0.4-0.5,0.3-0.8c-0.1-0.1-0.2-0.3-0.4-0.3C63.7,38.2,63.6,38.2,63.5,38.2z"/>
			</g>
			<g>
				<path class="st1" d="M84.2,40l5,2.4c0.2,0.1,0.4,0.1,0.6,0.1c0.5,0,1-0.3,1.2-0.8c0.3-0.7,0-1.4-0.6-1.8l-5-2.4
					c-0.7-0.3-1.4,0-1.8,0.6C83.2,38.9,83.5,39.7,84.2,40L84.2,40z M84.2,40"/>
				<path class="st1" d="M89.8,43.2c-0.3,0-0.6-0.1-0.9-0.2l-5-2.4c-0.5-0.2-0.9-0.6-1-1.2c-0.2-0.5-0.2-1.1,0.1-1.5
					c0.2-0.5,0.6-0.9,1.2-1c0.5-0.2,1.1-0.2,1.5,0.1l5,2.4c0.5,0.2,0.9,0.6,1,1.2c0.2,0.5,0.2,1.1-0.1,1.5
					C91.2,42.8,90.5,43.2,89.8,43.2z M84.5,39.4l5,2.4c0.3,0.1,0.7,0,0.8-0.3c0.1-0.1,0.1-0.3,0-0.5c-0.1-0.2-0.2-0.3-0.3-0.4
					l-5-2.4c-0.2-0.1-0.3-0.1-0.5,0c-0.2,0.1-0.3,0.2-0.4,0.3c-0.1,0.1-0.1,0.3,0,0.5C84.2,39.2,84.3,39.3,84.5,39.4L84.5,39.4z"/>
			</g>
			<g>
				<path class="st1" d="M89.3,60.5c0.3,0.2,0.6,0.2,1,0.2c0.3-0.1,0.7-0.3,0.9-0.6c0.4-0.6,0.2-1.4-0.4-1.8
					c-3.8-2.3-8.1-3.5-12.6-3.5h-8.2c-4.4,0-8.8,1.2-12.6,3.5c-0.6,0.4-0.8,1.2-0.4,1.8c0.4,0.6,1.2,0.8,1.8,0.4
					c3.4-2.1,7.2-3.1,11.2-3.1h8.2C82.1,57.3,85.9,58.4,89.3,60.5L89.3,60.5z M89.3,60.5"/>
				<path class="st1" d="M90,61.3c-0.4,0-0.7-0.1-1.1-0.3l0,0c-3.3-2-7-3-10.8-3h-8.2c-3.8,0-7.6,1.1-10.8,3c-1,0.6-2.2,0.3-2.8-0.7
					c-0.3-0.5-0.4-1-0.2-1.5c0.1-0.5,0.5-1,0.9-1.3c3.9-2.4,8.4-3.6,12.9-3.6h8.2c4.6,0,9,1.3,12.9,3.6c0.5,0.3,0.8,0.7,0.9,1.3
					s0,1.1-0.2,1.5c-0.3,0.5-0.8,0.8-1.3,0.9C90.3,61.3,90.1,61.3,90,61.3z M89.7,59.9c0.1,0.1,0.3,0.1,0.5,0.1
					c0.2,0,0.3-0.1,0.4-0.3c0.1-0.1,0.1-0.3,0.1-0.5c0-0.2-0.1-0.3-0.3-0.4c-3.7-2.2-7.9-3.4-12.2-3.4h-8.2c-4.3,0-8.5,1.2-12.2,3.4
					c-0.1,0.1-0.2,0.2-0.3,0.4c0,0.2,0,0.3,0.1,0.5c0.2,0.3,0.6,0.4,0.9,0.2c3.5-2.1,7.5-3.2,11.5-3.2h8.2
					C82.2,56.6,86.2,57.7,89.7,59.9L89.7,59.9z"/>
			</g>
		</g>
		<g>
			<g>
				<path class="st1" d="M73.9,83.1c-18.2,0-33-14.8-33-33s14.8-33,33-33c18.2,0,33,14.8,33,33S92.1,83.1,73.9,83.1z M73.9,19.3
					c-17,0-30.8,13.8-30.8,30.8s13.8,30.8,30.8,30.8c17,0,30.8-13.8,30.8-30.8S90.9,19.3,73.9,19.3z"/>
				<path class="st1" d="M73.9,83.8c-18.6,0-33.7-15.1-33.7-33.7s15.1-33.7,33.7-33.7c18.6,0,33.7,15.1,33.7,33.7
					S92.5,83.8,73.9,83.8z M73.9,17.8c-17.8,0-32.3,14.5-32.3,32.3s14.5,32.3,32.3,32.3s32.3-14.5,32.3-32.3S91.7,17.8,73.9,17.8z
					 M73.9,81.6c-17.4,0-31.5-14.1-31.5-31.5s14.1-31.5,31.5-31.5c17.4,0,31.5,14.1,31.5,31.5S91.3,81.6,73.9,81.6z M73.9,20
					c-16.6,0-30.1,13.5-30.1,30.1s13.5,30.1,30.1,30.1S104,66.7,104,50.1S90.5,20,73.9,20z"/>
			</g>
		</g>
	</g>
</g>
</svg>
