<?xml version="1.0" encoding="UTF-8" standalone="no"?>
<svg
   xmlns:dc="http://purl.org/dc/elements/1.1/"
   xmlns:cc="http://creativecommons.org/ns#"
   xmlns:rdf="http://www.w3.org/1999/02/22-rdf-syntax-ns#"
   xmlns:svg="http://www.w3.org/2000/svg"
   xmlns="http://www.w3.org/2000/svg"
   version="1.1"
   id="svg2"
   viewBox="0 0 16 16"
   height="16"
   width="16">
  <defs
     id="defs4" />
  <metadata
     id="metadata7">
    <rdf:RDF>
      <cc:Work
         rdf:about="">
        <dc:format>image/svg+xml</dc:format>
        <dc:type
           rdf:resource="http://purl.org/dc/dcmitype/StillImage" />
        <dc:title></dc:title>
      </cc:Work>
    </rdf:RDF>
  </metadata>
  <g
     transform="translate(0,-1036.3622)"
     id="layer1">
    <rect
       y="1038.2679"
       x="1.9058018"
       height="12.188396"
       width="12.188396"
       id="rect4136"
       style="opacity:1;fill:none;fill-opacity:1;stroke:#572980;stroke-width:1.8116039;stroke-linejoin:round;stroke-miterlimit:4;stroke-dasharray:none;stroke-opacity:1" />
    <path
       id="path4244"
       d="m 5.4570312,1048.5195 c -0.4421604,-0.9609 -0.8923399,-1.7007 -1.3300781,-2.084 -0.3296041,-0.2885 -0.6501475,-0.4469 -0.9121093,-0.5214 -0.2619619,-0.075 -0.5468751,-0.055 -0.546875,-0.055 -1.013521,0.1167 -0.8068998,1.6432 0.2011718,1.4863 0,0 -0.1080158,0 -0.064453,0.01 0.043563,0.012 0.155776,0.053 0.3339844,0.209 0.3564166,0.312 0.9674589,1.1187 1.5449219,3.0078 l 1.3925781,0.1093 c 1.4543975,-4.1131 2.533037,-5.4362 8.378627,-14.3451 -4.5111606,5.2411 -7.1415359,8.1509 -8.9977678,12.1831 z"
       style="color:#000000;font-style:normal;font-variant:normal;font-weight:normal;font-stretch:normal;font-size:medium;line-height:normal;font-family:sans-serif;text-indent:0;text-align:start;text-decoration:none;text-decoration-line:none;text-decoration-style:solid;text-decoration-color:#000000;letter-spacing:normal;word-spacing:normal;text-transform:none;direction:ltr;block-progression:tb;writing-mode:lr-tb;baseline-shift:baseline;text-anchor:start;white-space:normal;clip-rule:nonzero;display:inline;overflow:visible;visibility:visible;opacity:1;isolation:auto;mix-blend-mode:normal;color-interpolation:sRGB;color-interpolation-filters:linearRGB;solid-color:#000000;solid-opacity:1;fill:#19d71c;fill-opacity:1;fill-rule:evenodd;stroke:none;stroke-width:1.5;stroke-linecap:round;stroke-linejoin:miter;stroke-miterlimit:4;stroke-dasharray:none;stroke-dashoffset:0;stroke-opacity:1;color-rendering:auto;image-rendering:auto;shape-rendering:auto;text-rendering:auto;enable-background:accumulate" />
  </g>
</svg>
