<svg xmlns="http://www.w3.org/2000/svg" viewBox="0 0 268.66 253.93"><defs><style>.cls-1{fill:#fff;}</style></defs><title>Asset 2</title><g id="Layer_2" data-name="Layer 2"><g id="Layer_1-2" data-name="Layer 1"><path class="cls-1" d="M24,46.06v6.16a1.1,1.1,0,0,0,1.1,1.1h4.22a1.1,1.1,0,0,1,1.1,1.1v4.07a1.1,1.1,0,0,1-1.1,1.1H25.14a1.1,1.1,0,0,0-1.1,1.1V70.8a1.1,1.1,0,0,1-1.1,1.1H18.72a1.1,1.1,0,0,1-1.1-1.1V60.69a1.1,1.1,0,0,0-1.1-1.1H13.79a1.1,1.1,0,0,0-1.1,1.1V70.8a1.1,1.1,0,0,1-1.1,1.1H7.52a1.1,1.1,0,0,1-1.1-1.1V60.69a1.1,1.1,0,0,0-1.1-1.1H1.25a1.1,1.1,0,0,1-1.1-1.1V54.42a1.1,1.1,0,0,1,1.1-1.1H5.32a1.1,1.1,0,0,0,1.1-1.1V46.06A1.1,1.1,0,0,0,5.32,45H1.1A1.1,1.1,0,0,1,0,43.86V39.79a1.1,1.1,0,0,1,1.1-1.1H5.32a1.1,1.1,0,0,0,1.1-1.1V27.18a1.1,1.1,0,0,1,1.1-1.1h4.07a1.1,1.1,0,0,1,1.1,1.1V37.59a1.1,1.1,0,0,0,1.1,1.1h2.73a1.1,1.1,0,0,0,1.1-1.1V27.18a1.1,1.1,0,0,1,1.1-1.1h4.22a1.1,1.1,0,0,1,1.1,1.1V37.59a1.1,1.1,0,0,0,1.1,1.1h4.22a1.1,1.1,0,0,1,1.1,1.1v4.07a1.1,1.1,0,0,1-1.1,1.1H25.14a1.1,1.1,0,0,0-1.1,1.1M16.52,45H13.79a1.1,1.1,0,0,0-1.1,1.1v6.16a1.1,1.1,0,0,0,1.1,1.1h2.73a1.1,1.1,0,0,0,1.1-1.1V46.06a1.1,1.1,0,0,0-1.1-1.1"/><path class="cls-1" d="M82,57.2h-.59A1.34,1.34,0,0,1,80,55.86V50.33A1.34,1.34,0,0,1,81.38,49H90a1.34,1.34,0,0,1,1.34,1.34V89.94A1.34,1.34,0,0,1,90,91.28H84.66a1.34,1.34,0,0,1-1.34-1.34V87c0,2.24-2.84,4.33-4.93,4.33H77.05A8.12,8.12,0,0,1,69,83.22V22.69a8.12,8.12,0,0,1,8.07-8.06h6.42a8,8,0,0,1,7.91,8.06V35.85A1.34,1.34,0,0,1,90,37.19H84.66a1.34,1.34,0,0,1-1.34-1.34V25.23c0-1.49-.45-2.39-2.54-2.39H79.29c-1.8,0-2.24.9-2.24,2.39V80.68c0,1.49.44,2.39,2.24,2.39h1.79c1.64,0,2.24-.9,2.24-1.94V58.55A1.35,1.35,0,0,0,82,57.2"/><path class="cls-1" d="M118.66,83.22a8.13,8.13,0,0,1-8.07,8.06h-6.27a8.12,8.12,0,0,1-8.06-8.06V22.69a8.12,8.12,0,0,1,8.06-8.06h6.27a8.13,8.13,0,0,1,8.07,8.06Zm-8.07-58c0-1.49-.44-2.39-2.24-2.39h-1.79c-1.79,0-2.24.9-2.24,2.39V80.68c0,1.49.45,2.39,2.24,2.39h1.79c1.8,0,2.24-.9,2.24-2.39Z"/><path class="cls-1" d="M138.73,59.74c0-1.49-.45-2.54-2.09-2.54H133.8a1.34,1.34,0,0,0-1.34,1.35V83.07H134v6.87a1.34,1.34,0,0,1-1.34,1.34h-9.86a1.34,1.34,0,0,1-1.34-1.34V84.41a1.34,1.34,0,0,1,1.34-1.34h.3a1.34,1.34,0,0,0,1.34-1.34V24.19a1.34,1.34,0,0,0-1.34-1.35h-.3a1.34,1.34,0,0,1-1.34-1.34V16a1.34,1.34,0,0,1,1.34-1.34h16a7.93,7.93,0,0,1,8.06,8.06V46.75a7.79,7.79,0,0,1-2,5.48,1.36,1.36,0,0,0,0,1.89,7.93,7.93,0,0,1,2,5.47V80.23c0,1.28-.11,2.45,1.83,2.76a1.32,1.32,0,0,1,1.16,1.29v5.66a1.34,1.34,0,0,1-1.35,1.34h-1.79a8,8,0,0,1-7.91-8.06Zm0-34.81c0-1.34-.45-2.09-2.24-2.09H133.8a1.34,1.34,0,0,0-1.34,1.35V47.65A1.34,1.34,0,0,0,133.8,49h2.69c1.79,0,2.24-1.05,2.24-2.54Z"/><path class="cls-1" d="M189.38,89.94V84.41a1.34,1.34,0,0,1,1.34-1.34h.3a1.34,1.34,0,0,0,1.34-1.34V24.19A1.34,1.34,0,0,0,191,22.84h-.3a1.34,1.34,0,0,1-1.34-1.34V16a1.34,1.34,0,0,1,1.34-1.34h22.7A1.34,1.34,0,0,1,214.76,16V35.85a1.34,1.34,0,0,1-1.34,1.34H208a1.34,1.34,0,0,1-1.34-1.34V24.19a1.35,1.35,0,0,0-1.35-1.35h-3.58a1.34,1.34,0,0,0-1.34,1.35V47.65A1.34,1.34,0,0,0,201.77,49h3.58a1.35,1.35,0,0,1,1.35,1.34v5.53a1.35,1.35,0,0,1-1.35,1.34h-3.58a1.35,1.35,0,0,0-1.34,1.35V81.73a1.34,1.34,0,0,0,1.34,1.34h3.58a1.35,1.35,0,0,0,1.35-1.34V69.61A1.34,1.34,0,0,1,208,68.27h5.38a1.34,1.34,0,0,1,1.34,1.34V89.94a1.34,1.34,0,0,1-1.34,1.34h-22.7a1.34,1.34,0,0,1-1.34-1.34m15-79.34h-3.92a1.34,1.34,0,0,1-1.35-1.34V1.34A1.34,1.34,0,0,1,200.43,0h11.95a1.34,1.34,0,0,1,.94,2.3l-8,7.92a1.35,1.35,0,0,1-.94.38"/><path class="cls-1" d="M63.05,105.15v59.39a8.32,8.32,0,0,1-6.27,8,1.16,1.16,0,0,0-.89,1.18c.06,1.41.37,1.92,2.09,2a1.14,1.14,0,0,1,1,1.13v6A1.14,1.14,0,0,1,57.88,184H55.73a8.13,8.13,0,0,1-8.06-8.07v-2.37a1.13,1.13,0,0,0-.86-1.09,8.32,8.32,0,0,1-6.16-7.89V104A8.13,8.13,0,0,1,48.71,96h5.14a9.2,9.2,0,0,1,9.2,9.2M55,106.56c0-1.5-.45-2.39-2.39-2.39H51c-1.79,0-2.24.89-2.24,2.39V162c0,1.49.45,2.38,2.24,2.38H52.6c1.94,0,2.39-.89,2.39-2.38Z"/><path class="cls-1" d="M90.64,105.51V163.2a9.41,9.41,0,0,1-9.41,9.41H76.15a8,8,0,0,1-7.91-8.07v-59a1.34,1.34,0,0,0-1.34-1.34h-.3a1.35,1.35,0,0,1-1.35-1.35V97.3A1.35,1.35,0,0,1,66.6,96h9.85A1.35,1.35,0,0,1,77.8,97.3v6.87H76.3V162c0,1.49.45,2.38,2.39,2.38h1.64c1.8,0,2.24-.89,2.24-2.38V104.17H81.08V97.3A1.34,1.34,0,0,1,82.42,96h9.86a1.34,1.34,0,0,1,1.34,1.35v5.52a1.34,1.34,0,0,1-1.34,1.35H92a1.34,1.34,0,0,0-1.34,1.34"/><path class="cls-1" d="M95.92,171.26v-5.52a1.35,1.35,0,0,1,1.34-1.35h.3a1.35,1.35,0,0,0,1.35-1.34V105.51a1.35,1.35,0,0,0-1.35-1.34h-.3a1.35,1.35,0,0,1-1.34-1.35V97.3A1.35,1.35,0,0,1,97.26,96H120a1.35,1.35,0,0,1,1.34,1.35v19.82a1.34,1.34,0,0,1-1.34,1.35h-5.38a1.34,1.34,0,0,1-1.34-1.35V105.51a1.34,1.34,0,0,0-1.35-1.34h-3.58a1.34,1.34,0,0,0-1.34,1.34V129a1.34,1.34,0,0,0,1.34,1.34h3.58a1.35,1.35,0,0,1,1.35,1.35v5.53a1.34,1.34,0,0,1-1.35,1.34h-3.58a1.34,1.34,0,0,0-1.34,1.34v23.18a1.34,1.34,0,0,0,1.34,1.34h3.58a1.34,1.34,0,0,0,1.35-1.34V150.94a1.34,1.34,0,0,1,1.34-1.34H120a1.34,1.34,0,0,1,1.34,1.34v20.32a1.34,1.34,0,0,1-1.34,1.35H97.26a1.34,1.34,0,0,1-1.34-1.35"/><path class="cls-1" d="M212.56,164.54a8,8,0,0,1-7.91,8.07h-1.5c-2.24,0-4.92-2.39-4.92-4.78v3.43a1.34,1.34,0,0,1-1.35,1.35h-5.37a1.34,1.34,0,0,1-1.35-1.35V150.94a1.35,1.35,0,0,1,1.35-1.35h5.37a1.35,1.35,0,0,1,1.35,1.35V162c0,1.49.44,2.38,2.24,2.38h1.79c1.79,0,2.24-.89,2.24-2.38V148.4a10.14,10.14,0,0,0-.6-3.28l-12.69-25.85a17.13,17.13,0,0,1-1.05-6v-7.93A9.42,9.42,0,0,1,199.57,96c2.24,0,4.93,1.94,4.93,4.19V97.3A1.35,1.35,0,0,1,205.84,96h5.38a1.35,1.35,0,0,1,1.34,1.35v19.88a1.34,1.34,0,0,1-1.34,1.34h-5.38a1.34,1.34,0,0,1-1.34-1.34V106.41c0-1.35-.45-2.24-2.24-2.24h-1.79c-1.8,0-2.24.89-2.24,2.38v6.74a6.83,6.83,0,0,0,.59,2.54L211.22,142a14.9,14.9,0,0,1,1.34,5.23Z"/><path class="cls-1" d="M268.66,164.54a8.14,8.14,0,0,1-8.07,8.07h-6.27a8.13,8.13,0,0,1-8.06-8.07V104A8.13,8.13,0,0,1,254.32,96h6.27a8.14,8.14,0,0,1,8.07,8.07Zm-8.07-58c0-1.5-.45-2.39-2.24-2.39h-1.79c-1.79,0-2.24.89-2.24,2.39V162c0,1.49.45,2.38,2.24,2.38h1.79c1.79,0,2.24-.89,2.24-2.38Z"/><path class="cls-1" d="M65,83.07h-.86A1.1,1.1,0,0,1,63,82l-7-66.59a1.75,1.75,0,0,0-1.75-1.64H48.44a1.76,1.76,0,0,0-1.75,1.63L39.58,82.05a1.12,1.12,0,0,1-1.1,1h-.86a1.11,1.11,0,0,0-1.11,1.11v6a1.11,1.11,0,0,0,1.11,1.1H48a1.11,1.11,0,0,0,1.11-1.1V83.55a.49.49,0,0,0-.49-.48H48a.36.36,0,0,1-.36-.36l1.12-14.16a.71.71,0,0,1,.7-.65H53a.92.92,0,0,1,.92.86L55,82.71h0a.36.36,0,0,1-.36.36H54a.48.48,0,0,0-.48.48v6.63a1.1,1.1,0,0,0,1.1,1.1H65a1.1,1.1,0,0,0,1.1-1.1v-6A1.1,1.1,0,0,0,65,83.07M53,59.69H49.3a.37.37,0,0,1-.37-.39L51,37.53a.15.15,0,0,1,.3,0l2.17,21.63a.5.5,0,0,1-.5.53"/><path class="cls-1" d="M179.47,83.07h-.86a1.1,1.1,0,0,1-1.1-1l-7-66.59a1.77,1.77,0,0,0-1.76-1.64h-5.85a1.76,1.76,0,0,0-1.76,1.63l-7.11,66.61a1.12,1.12,0,0,1-1.1,1h-.86a1.1,1.1,0,0,0-1.1,1.11v6a1.1,1.1,0,0,0,1.1,1.1h10.33a1.11,1.11,0,0,0,1.11-1.1V83.55a.49.49,0,0,0-.49-.48h-.62a.36.36,0,0,1-.36-.36l1.13-14.16a.7.7,0,0,1,.69-.65h3.56a.94.94,0,0,1,.93.86l1.11,13.95h0a.37.37,0,0,1-.37.36h-.62a.49.49,0,0,0-.48.48v6.63a1.1,1.1,0,0,0,1.1,1.1h10.34a1.1,1.1,0,0,0,1.1-1.1v-6a1.1,1.1,0,0,0-1.1-1.11m-12-23.38h-3.71a.37.37,0,0,1-.37-.39l2.11-21.77a.16.16,0,0,1,.31,0L168,59.16a.5.5,0,0,1-.5.53"/><path class="cls-1" d="M243,164.39h-.85a1.11,1.11,0,0,1-1.11-1l-7-66.6a1.77,1.77,0,0,0-1.76-1.63h-5.85a1.77,1.77,0,0,0-1.76,1.63l-7.11,66.6a1.1,1.1,0,0,1-1.1,1h-.85a1.11,1.11,0,0,0-1.11,1.11v6a1.11,1.11,0,0,0,1.11,1.11H226a1.11,1.11,0,0,0,1.1-1.11v-6.62a.48.48,0,0,0-.48-.49H226a.37.37,0,0,1-.36-.36l1.13-14.15a.69.69,0,0,1,.7-.65H231a.91.91,0,0,1,.92.86L233,164h0a.36.36,0,0,1-.36.36h-.62a.49.49,0,0,0-.49.49v6.62a1.11,1.11,0,0,0,1.11,1.11H243a1.11,1.11,0,0,0,1.11-1.11v-6a1.11,1.11,0,0,0-1.11-1.11M231,141h-3.71a.37.37,0,0,1-.37-.39l2.11-21.76a.16.16,0,0,1,.31,0l2.16,21.63a.5.5,0,0,1-.5.53"/><path class="cls-1" d="M99.46,252.59v-5.53a1.34,1.34,0,0,1,1.35-1.34h.3a1.34,1.34,0,0,0,1.34-1.35V186.83a1.34,1.34,0,0,0-1.34-1.34h-.3a1.34,1.34,0,0,1-1.35-1.34v-5.53a1.34,1.34,0,0,1,1.35-1.34H123.5a1.35,1.35,0,0,1,1.35,1.34v19.83a1.35,1.35,0,0,1-1.35,1.34h-5.37a1.35,1.35,0,0,1-1.35-1.34V186.83a1.34,1.34,0,0,0-1.34-1.34h-3.58a1.34,1.34,0,0,0-1.35,1.34v23.46a1.34,1.34,0,0,0,1.35,1.35h3.58a1.34,1.34,0,0,1,1.34,1.34v5.53a1.34,1.34,0,0,1-1.34,1.34h-3.58a1.34,1.34,0,0,0-1.35,1.35v23.17a1.34,1.34,0,0,0,1.35,1.35h3.58a1.34,1.34,0,0,0,1.34-1.35V232.26a1.35,1.35,0,0,1,1.35-1.34h5.37a1.35,1.35,0,0,1,1.35,1.34v20.33a1.35,1.35,0,0,1-1.35,1.34H100.81a1.34,1.34,0,0,1-1.35-1.34"/><path class="cls-1" d="M209.54,245.87a8,8,0,0,1-7.91,8.06h-1.49c-2.25,0-4.93-2.39-4.93-4.78v3.44a1.34,1.34,0,0,1-1.34,1.34h-5.38a1.35,1.35,0,0,1-1.35-1.34V232.26a1.35,1.35,0,0,1,1.35-1.34h5.38a1.34,1.34,0,0,1,1.34,1.34v11.07c0,1.49.45,2.39,2.24,2.39h1.79c1.79,0,2.24-.9,2.24-2.39v-13.6a10.18,10.18,0,0,0-.6-3.29l-12.69-25.85a17.11,17.11,0,0,1-1.05-6v-7.93a9.41,9.41,0,0,1,9.41-9.41c2.24,0,4.93,1.94,4.93,4.18v-2.84a1.34,1.34,0,0,1,1.34-1.34h5.38a1.34,1.34,0,0,1,1.34,1.34V198.5a1.34,1.34,0,0,1-1.34,1.34h-5.38a1.34,1.34,0,0,1-1.34-1.34V187.73c0-1.34-.45-2.24-2.24-2.24h-1.79c-1.79,0-2.24.9-2.24,2.39v6.74a6.83,6.83,0,0,0,.59,2.54l12.4,26.14a14.9,14.9,0,0,1,1.34,5.23Z"/><path class="cls-1" d="M141.93,178.62v5.53a1.34,1.34,0,0,1-1.34,1.34h-.3a1.34,1.34,0,0,0-1.34,1.34v57.54a1.34,1.34,0,0,0,1.34,1.35h3.59a1.34,1.34,0,0,0,1.34-1.35V232.26a1.34,1.34,0,0,1,1.34-1.34h5.38a1.34,1.34,0,0,1,1.34,1.34v20.33a1.34,1.34,0,0,1-1.34,1.34h-22.7a1.34,1.34,0,0,1-1.34-1.34v-5.53a1.34,1.34,0,0,1,1.34-1.34h.3a1.35,1.35,0,0,0,1.35-1.35V186.83a1.35,1.35,0,0,0-1.35-1.34h-.3a1.34,1.34,0,0,1-1.34-1.34v-5.53a1.34,1.34,0,0,1,1.34-1.34h11.35a1.34,1.34,0,0,1,1.34,1.34"/><path class="cls-1" d="M183.9,245.72H183a1.11,1.11,0,0,1-1.1-1l-7-66.59a1.77,1.77,0,0,0-1.76-1.64h-5.85a1.77,1.77,0,0,0-1.76,1.63L158.5,244.7a1.1,1.1,0,0,1-1.1,1h-.86a1.1,1.1,0,0,0-1.1,1.1v6a1.1,1.1,0,0,0,1.1,1.1h10.34a1.1,1.1,0,0,0,1.1-1.1V246.2a.49.49,0,0,0-.48-.48h-.63a.36.36,0,0,1-.36-.36l1.13-14.16a.69.69,0,0,1,.69-.65h3.57a.93.93,0,0,1,.92.86l1.11,14h0a.36.36,0,0,1-.36.36H173a.49.49,0,0,0-.49.48v6.63a1.11,1.11,0,0,0,1.11,1.1H183.9a1.1,1.1,0,0,0,1.1-1.1v-6a1.1,1.1,0,0,0-1.1-1.1m-12-23.38h-3.71a.38.38,0,0,1-.37-.4L170,200.18a.16.16,0,0,1,.31,0l2.16,21.63a.5.5,0,0,1-.5.53"/><path class="cls-1" d="M220.54,92.11a1.66,1.66,0,0,1-1.66-1.67V87.63c0-4.48,2.83-5.08,5.82-4.48l9.11,1.79V83.15H238a1.67,1.67,0,0,1,1.67,1.67v1.91c0,5.38-2.84,6-5.52,5.38l-9.26-1.94v1.94Z"/></g></g></svg>