<?xml version="1.0" encoding="utf-8"?>
<!-- Generator: Adobe Illustrator 19.0.0, SVG Export Plug-In . SVG Version: 6.00 Build 0)  -->
<svg version="1.1" id="Camada_1" xmlns="http://www.w3.org/2000/svg" xmlns:xlink="http://www.w3.org/1999/xlink" x="0px" y="0px"
	 viewBox="162.9 328.1 769.6 215.8" style="enable-background:new 162.9 328.1 769.6 215.8;" xml:space="preserve">
<style type="text/css">
	.st0{fill:#FFFFFF;}
	.st1{fill:#020304;stroke:#000000;stroke-width:0.5;stroke-miterlimit:10;}
	.st2{fill:#020304;}
</style>
<g>
	<ellipse class="st0" cx="270.6" cy="435.8" rx="107.7" ry="107.7"/>
	<g>
		<g>
			<g>
				<path class="st1" d="M338.9,431.7c-0.5-0.5-0.6-1-0.2-1.6c1.9-3.2,1.3-5-2-6.4c-2.3-1-3.4-4-1.8-5c4.7-3.2,3-6.7-0.3-9.2
					c-4.3-3.3-8.9-6.1-13.2-9.2c-2.7-1.9-3.9-5.5-2.8-8.4c0.8-2.1,0.4-3.9-0.5-5.5c-6.6-12.7-16.2-22.2-29.9-27
					c-6.6-2.3-13.4-2.3-20.3-1.4c-8,0.9-15.8,3.3-23.6,5c-7.5,1.6-13.6,6-19,11.2c-5.3,5.1-8.5,11.4-10,18.5
					c-1.7,8.6-1,17.4-0.6,26.1c0.3,6.6,3.4,12.4,8.5,17.1c3.9,3.6,8.6,6.3,11.5,11.1c2.3,3.8,6,6.7,7.4,11.2
					c0.9,3.1,1.1,6.4,1.7,9.5c1.6,8.9-2.5,15.8-8,22c-5.1,5.8-12.2,9.3-18.5,13.7c-5.3,3.7-11.8,9.9-15.5,15.3
					c18.7,15.5,42.7,24.9,68.9,24.9c22.7,0,43.7-7,61.1-19c-1.2-1.5-2.7-3.4-3.8-4.6c-3.7-4-8.4-6.8-12.5-10.2
					c-4.2-3.5-8.8-6.6-14.4-7.5c-3.1-0.5-5.9-1.7-8.9-2.5c1.4-1.1,3.7-1.6,3.2-4.2c-0.5-2.2-1.8-4.1-3.6-5.1
					c-1.1-0.6-1.1-0.8-0.7-1.7c2.5-6.4,5.5-12.5,8.2-18.8c1.8-4.1,4.4-6.5,8.1-8.5c4.7-2.5,9.6-4,14.9-4.3c3.8-0.2,7.7-0.8,11.4-1.8
					c2.3-0.7,5.2-1.4,5.8-4c0.8-3.3,1.5-6.8-0.7-10c-1.6-2.3-1.5-3,0.9-4.4c1.2-0.7,1.3-1.3,0.8-2.4
					C339.9,433.6,339.8,432.5,338.9,431.7z M244.5,489.4c1-1.8,2-3.7,2.3-5.9c0.2-1.1,1-1.7,2.2-0.7c5.8,4.5,12,8.2,18.7,11.1
					c1.1,0.5,1.2,1,0.6,2.1c-1.4,2.6-2.5,5.3-3.7,8.1c-7.1-2.7-13.3-7.1-19.4-11.7C244,491.6,243.8,490.7,244.5,489.4z M259,505.2
					c-0.5,0.8-0.6,1.6-0.6,2.6c0,3.4-0.1,3.4-3.6,3.4c-3.7,0-4.1-0.1-3.9-3.3c0.1-1.7,2.1-2.4,3.1-3.7c1.5-1.7,3.1-0.9,4.7-0.2
					C259.5,504.3,259.4,504.6,259,505.2z M252.5,524c-3.6-2.7-8.2-3.1-12.6-3.6c-1.1-0.1-2-0.4-3.4-1.1c6.5-1.3,19.9,2.1,23.4,5.8
					C257.3,525.3,255.1,525.9,252.5,524z M269.5,514.1c-2.8,0-5.4-1.6-5.3-3.3c0.1-1.1,1.5-2.2,3-2.2c1.7,0,3.4,1.8,3.3,3.7
					C270.5,512.9,271,514.1,269.5,514.1z M316.6,397.9c0.4-0.3,1.3-0.2,1.6,0.3c0.9,1.7-0.7,2.5-1.5,3.6
					C316.9,400.5,315.1,399.1,316.6,397.9z M278,446.3c0,0.1-0.1,0.2-0.1,0.3l0,0c0.2,0,0.4,0,0.6,0c0,0.1,0,0.2,0,0.3
					c-0.2-0.1-0.4-0.2-0.5-0.2l0,0l0,0l0,0c-0.1-0.1-0.1-0.2-0.2-0.2C277.8,446.4,277.9,446.4,278,446.3z M272,434.1
					c-0.9,0-0.3-1.2-0.7-1.8c-0.2-2.5,3-4.3,4-1.7C275.4,430.9,272.6,434.1,272,434.1z M280,508.3c-2-0.8-3.6-0.3-5.2-0.8
					c-1.3-0.4-1.5-0.8-1.1-2.2c0.7-2.5,2.2-4.7,3-7.1c0.3-0.9,0.9-0.6,1.5-0.4c1.3,0.4,2.6,0.8,4,1.1c2.7,0.7,2.7,0.6,1.3,3.2
					c-0.9,1.6-1.6,3.4-2.3,5.1C280.8,507.9,280.6,508.7,280,508.3z M285.4,508c-0.4,1.2-1.8,0.7-2.9,0.4c0.3-2.6,1.9-4.6,2.8-7
					c0.5-1.6,2-1.7,3.6-1.2C288.3,503.1,286.3,505.3,285.4,508z M294.3,390.8c-0.8-0.1-1.2-0.8-1.4-1.4c-0.9-2.3-2.7-3.6-4.9-4.4
					c-0.7-0.2-0.8-0.8-1.2-1c-0.6-0.2-0.5-2.7-1.8-0.6c-0.2,0.4-0.3-0.1-0.4-0.2c-1-1.1-0.5-4,0.7-5c1.2-1,1.5-3,3.6-3
					c0.3,0,0.6-0.1,0.9-0.1c0.1,0.7-0.4,0.6-0.7,0.7c-0.8,0.3-1.1,1.2-0.8,1.6c0.4,0.6,1.2,0.3,1.8-0.1c1.2-0.7,2.7-1.9,3.8-1.5
					c2.1,0.9,4.2,1.9,5.8,3.7c0.1,0.1,0.1,0.1,0.1,0.2c1,1.4,3,2.6,2.6,4.4c-0.5,2.3-2.3,4-3.9,5.8c-1,1.1-2.4-0.3-3.4,0.8
					C294.9,390.9,294.6,391.5,294.3,390.8z M319,426.7c-0.2-0.4-0.3-0.8-0.4-1.3l0,0c-1.9,1.1-2.8-0.7-3.6-1.5
					c-3.5-3.5-7.3-6.7-11.3-9.6c-1.7-1.3-3.6-2.5-5.5-3.5c-1.6-0.8-1.9-2.2-2.1-3.5c-0.2-2.3-0.4-4.8,1.1-6.7
					c1.2-1.5,2.6-2.9,3.5-4.6c1-1.8,2.2-3.4,2-5.6c-0.1-1,3-2.9,3.1-2.4c0.2,1,1.4,1.4,1,2.6c-0.3,0.8,0.2,1.5,0.7,2.1
					c2,2.7,3.5,5.5,2.2,9.1c0.4-2.2-4,0-2.4-3.3c-1.2,1.2-2.4,1.4-3.6,0.7c-0.8-0.5-1.1,0.3-1.4,0.7c-0.4,0.5,0.1,1.2,0.6,1.3
					c3.5,0.7,3.2,2.7,2.1,5.4c-1,2.4,1,3.9,2.8,4.9c2.5,1.3,4.4,2.9,5.4,5.6c0.9,2.3,3.1,3.8,4.5,5.8c0.6,0.9,0.7,1.7,0.9,2.6
					C319.1,425.2,319.5,425.8,319,426.7z M333.1,428.7c-1.9,1.7-3.9,3.2-5.8,4.8c-1.4,1.2-5-1.1-4.8-2.9c0.1-0.9,1.1-1.2,1.8-1.5
					c0.7-0.3,1.9-0.5,2.3,0.3c1,2.3,3.1,0.4,3.2,0.2c0.7-1.6,2.3-0.9,3.7-2.2C333.2,428.3,333.2,428.6,333.1,428.7z"/>
				<g>
					<path class="st0" d="M309.8,401.8c0.4-2.2-4,0-2.4-3.3c-1.2,1.2-2.4,1.4-3.6,0.7c-0.8-0.5-1.1,0.3-1.4,0.7
						c-0.4,0.5,0.1,1.2,0.6,1.3c3.5,0.7,3.2,2.7,2.1,5.4c-1,2.4,1,3.9,2.8,4.9c2.5,1.3,4.4,2.9,5.4,5.6c0.9,2.3,3.1,3.8,4.5,5.8
						c0.9,1.3,0.7,2.6,1.4,3.9c0.5-0.9,0.1-1.6-0.4-1.3c-1.9,1.1-2.8-0.7-3.6-1.5c-3.5-3.5-7.3-6.7-11.3-9.6
						c-1.7-1.3-3.6-2.5-5.5-3.5c-1.6-0.8-1.9-2.2-2.1-3.5c-0.2-2.3-0.4-4.8,1.1-6.7c1.2-1.5,2.6-2.9,3.5-4.6c1-1.8,2.2-3.4,2-5.6
						c-0.1-1,3-2.9,3.1-2.4c0.2,1,1.4,1.4,1,2.6c-0.3,0.8,0.2,1.5,0.7,2.1C309.5,395.5,311.1,398.3,309.8,401.8z"/>
				</g>
				<g>
					<path class="st0" d="M264.6,504.2c-7.1-2.7-13.3-7.1-19.4-11.7c-1.2-0.9-1.4-1.8-0.6-3.1c1-1.8,2-3.7,2.3-5.9
						c0.2-1.1,1-1.7,2.2-0.7c5.8,4.5,12,8.2,18.7,11.1c1.1,0.5,1.2,1,0.6,2.1C267,498.6,265.9,501.4,264.6,504.2z"/>
				</g>
				<g>
					<path class="st0" d="M294.3,390.8c-0.8-0.1-1.2-0.8-1.4-1.4c-0.9-2.3-2.7-3.6-4.9-4.4c-0.7-0.2-0.8-0.8-1.2-1
						c-0.6-0.2-0.5-2.7-1.8-0.6c-0.2,0.4-0.3-0.1-0.4-0.2c-1-1.1-0.5-4,0.7-5c1.2-1,1.5-3,3.6-3c0.3,0,0.6-0.1,0.9-0.1
						c0.1,0.7-0.4,0.6-0.7,0.7c-0.8,0.3-1.1,1.2-0.8,1.6c0.4,0.6,1.2,0.3,1.8-0.1c1.2-0.7,2.7-1.9,3.8-1.5c2.1,0.9,4.2,1.9,5.8,3.7
						c0.1,0.1,0.1,0.1,0.1,0.2c1,1.4,3,2.6,2.6,4.4c-0.5,2.3-2.3,4-3.9,5.8c-1,1.1-2.4-0.3-3.4,0.8l0,0c0.4-0.9-0.3-1.1-0.8-1.1
						C293.6,389.9,293.9,390.4,294.3,390.8L294.3,390.8z"/>
				</g>
				<g>
					<path class="st0" d="M280,508.3c-2-0.8-3.6-0.3-5.2-0.8c-1.3-0.4-1.5-0.8-1.1-2.2c0.7-2.5,2.2-4.7,3-7.1
						c0.3-0.9,0.9-0.6,1.5-0.4c1.3,0.4,2.6,0.8,4,1.1c2.7,0.7,2.7,0.6,1.3,3.2c-0.9,1.6-1.6,3.4-2.3,5.1
						C280.8,507.9,280.6,508.7,280,508.3z"/>
				</g>
				<g>
					<path class="st0" d="M254.8,511.2c-3.7,0-4.1-0.1-3.9-3.3c0.1-1.7,2.1-2.4,3.1-3.7c1.5-1.7,3.1-0.9,4.7-0.2
						c0.8,0.3,0.6,0.6,0.3,1.2c-0.5,0.8-0.6,1.6-0.6,2.6C258.3,511.2,258.3,511.2,254.8,511.2z"/>
				</g>
				<g>
					<path class="st0" d="M236.5,519.2c6.5-1.3,19.9,2.1,23.4,5.8c-2.6,0.4-4.8,0.9-7.4-1c-3.6-2.7-8.2-3.1-12.6-3.6
						C238.9,520.2,237.9,519.9,236.5,519.2z"/>
				</g>
				<g>
					<path class="st0" d="M261.9,464.1c-3.2-3.7-3.2-8.1-2.1-12.4c0.7-3.1,2.4-6,5.5-7.6c0.5-0.3,1-0.7,1.6-0.8
						c3.1-0.8,2.4-0.7,2.5-4c0.1-2.8,0.1-3.8,0.3-1.1c0.8,0,0.9,3.5,2.2,4.5c1.3,1,3.5,0.4,5.1,2.4c-2.1-0.4-3.6-1.4-5.5-1.4
						c-5.9,0.1-10.1,3.5-11.1,9.4c-0.7,3.8-0.1,7.3,1.9,10.6C262.2,463.8,262,464,261.9,464.1z"/>
				</g>
				<g>
					<path class="st0" d="M333.5,427.4c-0.3,0.9-0.3,1.2-0.4,1.3c-1.9,1.7-3.9,3.2-5.8,4.8c-1.4,1.2-5-1.1-4.8-2.9
						c0.1-0.9,1.1-1.2,1.8-1.5c0.7-0.3,1.9-0.5,2.3,0.3c1,2.3,3.1,0.4,3.2,0.2C330.5,428,332.1,428.7,333.5,427.4z"/>
				</g>
				<g>
					<path class="st0" d="M282.5,508.3c0.3-2.6,1.9-4.6,2.8-7c0.5-1.6,2-1.7,3.6-1.2c-0.5,2.9-2.5,5.1-3.4,7.8
						C285,509.1,283.5,508.7,282.5,508.3z"/>
				</g>
				<g>
					<path class="st0" d="M267.2,508.6c1.7,0,3.4,1.8,3.3,3.7c0,0.6,0.5,1.8-1,1.8c-2.8,0-5.4-1.6-5.3-3.3
						C264.3,509.7,265.8,508.6,267.2,508.6z"/>
				</g>
				<g>
					<path class="st0" d="M272,434.1c-0.9,0-0.3-1.2-0.7-1.8c-0.2-2.5,3-4.3,4-1.7C275.4,430.9,272.6,434.1,272,434.1z"/>
				</g>
				<g>
					<path class="st0" d="M316.7,401.9c0.1-1.4-1.7-2.7-0.1-4c0.4-0.3,1.3-0.2,1.6,0.3C319.1,399.9,317.6,400.7,316.7,401.9z"/>
				</g>
				<g>
					<path class="st0" d="M280.2,449.4c-0.6-0.5-0.9-1.1-1-1.9c1.1,0,1,1,1.4,1.5C280.5,449.2,280.4,449.3,280.2,449.4z"/>
				</g>
				<g>
					<path class="st0" d="M295.2,390.8c-0.3,0.1-0.6,0.7-0.9,0v0.1C294.6,391,294.9,391.5,295.2,390.8L295.2,390.8z"/>
				</g>
				<g>
					<path class="st0" d="M278,446.7c0.2,0.1,0.4,0.2,0.5,0.2c0-0.1,0-0.2,0-0.3C278.3,446.7,278.1,446.7,278,446.7L278,446.7z"/>
				</g>
				<g>
					<path class="st0" d="M277.9,446.7c0-0.1,0.1-0.2,0.1-0.3c-0.1,0-0.2,0.1-0.3,0.1C277.8,446.5,277.9,446.6,277.9,446.7
						L277.9,446.7z"/>
				</g>
				<g>
					<path class="st2" d="M295.2,390.8c-0.3,0.6-0.6,0.2-1,0c-0.3-0.4-0.6-1,0.2-1.1C294.9,389.7,295.6,390,295.2,390.8z"/>
				</g>
			</g>
			<g>
				<g>
					<g>
						<path class="st0" d="M268,411.8"/>
					</g>
					<g>
						<path class="st0" d="M269.4,431.9c0.4-0.4,0.7-1.1,1.1-1.5c0.2-0.2,0.4-0.2,0.6-0.3c0.2-0.1,0.3-0.2,0.5-0.3
							c0.1-0.1,0.3-0.2,0.5-0.3c0.2,0,0.4-0.1,0.5-0.1c0.6,0,1.1,0.2,1.6,0.5c0.3,0.2,0.5,0.5,0.7,0.8c0.2,0.4,0.2,0.7-0.1,1
							c-0.2,0.2-0.4,0.3-0.6,0.4c-0.3,0.2-0.5,0.4-0.6,0.7c0,0.1-0.1,0.1-0.1,0.2c-0.2,0.3-0.4,0.6-0.6,0.9
							c-0.2,0.4-0.5,0.8-0.8,1.1c-0.1,0.2-0.3,0.3-0.4,0.4c-0.2,0.2-0.5,0.5-0.7,0.7c-0.4,0.4-0.6,0.8-0.6,1.3c0,0.4,0-0.4,0,0
							c0,0.7,0.3,3.6,0,1.7c0-0.1-0.3,0-0.3,0c-0.1,0.1-0.3,0.1-0.4-0.1s-0.1-0.4-0.1-0.7c0-0.4-0.1-1.4-0.1-1.8c0-0.3,0,0.2,0-0.1
							c-0.1-0.3-0.3-0.5-0.6-0.5c-0.4-0.1-0.7-0.3-0.9-0.6c-0.1-0.2-0.3-0.3-0.5-0.5c-0.4-0.2-0.8-0.4-1.3-0.5
							c-0.3-0.1-0.6-0.2-0.9-0.4c-0.2-0.1-0.4-0.2-0.7-0.2c-0.3,0-0.6-0.1-0.8-0.1c-4.2,0.2-8.8-2.2-11.2-5.9
							c2.3,0.9,4.2,3.3,6.8,2.3c0.3-0.2,0.6-0.4,0.9-0.5c0.2-0.1,0.4-0.1,0.6,0.1c0.2,0.1,0.5,0.2,0.8,0.2c0.3,0,0.5,0.2,0.6,0.5
							c0.1,0.2,0.1,0.4,0.2,0.6c0.1,0.5,0.4,0.8,0.8,1.1c0.2,0.1,0.4,0.1,0.6,0.2c0.2,0,0.5,0.1,0.7,0.1c0.2,0,0.3,0,0.5-0.1
							c0.2-0.2,0.5-0.2,0.8-0.1c0.2,0.1,0.3,0,0.4-0.1l0.1-0.1c-0.2-0.2-0.4-0.4-0.5-0.6c-0.2-0.3-0.2-0.9,0.2-1.1
							c0.2-0.1,0.3,0,0.4,0.1c0.2,0.1,0.3,0.3,0.4,0.5c0,0.1,0.1,0.1,0.1,0.2c0.1,0.1,0.1,0.1,0.2,0.1c0.3-0.1,0.6,0,0.9,0.1
							c0.2,0,0.3,0.1,0.5,0.1c0.2,0,0.2,0.4,0.4,0.4"/>
					</g>
					<g>
						<path class="st0" d="M245.9,420.7c0.1,0.4,1,1.7-0.4,0.8c-3.2-2.3-3.7-7.9-0.5-11.1C246.9,413.6,245.5,417.3,245.9,420.7
							L245.9,420.7z"/>
					</g>
					<g>
						<path class="st0" d="M273.6,424.3c0,0.3,0,0.5-0.2,0.7c-0.3,0.2-0.4,0.6-0.6,0.9s-0.3,0.6-0.6,0.9c-0.1,0.1-0.2,0.3-0.3,0.4
							s-0.2,0.3-0.3,0.4c-0.2,0.2-0.4,0.3-0.6,0.5s-0.4,0.2-0.7,0.3c-0.3,0.1-0.6,0.1-1,0.2c-0.1,0-0.3,0-0.5,0
							c-0.2,0-0.4-0.1-0.6-0.2c-0.2,0-0.3-0.1-0.4-0.2s-0.2-0.1-0.4-0.2c-0.4,0-0.9-0.2-1.3-0.3c-0.2-0.1-0.4-0.1-0.5-0.2
							c-0.2-0.1-0.3-0.3-0.3-0.6c0-0.1,0-0.2,0.1-0.2s0.2,0,0.3,0c0.4,0,0.7,0.1,1.1,0.1c0.4,0.1,0.8,0.2,1.1,0.6
							c0.2,0.2,0.4,0.2,0.6,0.2c0.3,0,0.6,0,1,0.1c0.3,0,0.6,0,0.9-0.2c0.4-0.3,0.8-0.6,1.1-1.1c0.1-0.2,0.2-0.4,0.2-0.6
							s0.1-0.4,0.3-0.6c0.1-0.2,0.2-0.3,0.2-0.5c0-0.4,0-0.8-0.3-1.1c-0.1-0.1-0.1-0.1-0.2-0.2c-0.3-0.2-0.5-0.4-0.8-0.6
							c-0.5-0.3-1-0.7-1.6-1c-0.4-0.1-0.6-0.4-0.7-0.7c-0.2-0.4-0.3-0.9-0.2-1.3c0-0.2,0.1-0.3,0.1-0.5c0.1-0.5,0.2-0.9,0.2-1.4
							c0-0.1,0-0.2,0-0.3c0-0.2,0.1-0.4,0.3-0.4c0.2-0.1,0.4,0,0.5,0.2s0.2,0.3,0.3,0.5c0.1,0.3,0.1,0.6,0.2,0.8
							c0,0.5,0.2,0.9,0.3,1.3c0.1,0.2,0.1,0.3,0.2,0.5c0.1,0.3,0.2,0.4,0.5,0.3c0.1,0,0.1,0,0.2,0c0.1,0,0.2,0,0.2,0.2
							c0,0.1,0,0.3,0.1,0.4c0.1,0.3,0.3,0.5,0.6,0.5c0.1,0,0.2,0.1,0.3,0.2c0.2,0.2,0.5,0.5,0.6,0.8c0.1,0.2,0.2,0.5,0.4,0.7
							c0.1,0.1,0.2,0.2,0.2,0.3C273.6,423.9,273.6,424.1,273.6,424.3C273.7,424.3,273.6,424.3,273.6,424.3z"/>
					</g>
					<g>
						<path class="st0" d="M258.3,413c0,0.2-0.1,0.4-0.3,0.5c-0.2,0.2-0.4,0.4-0.5,0.6c-0.1,0.3-0.4,0.5-0.7,0.5
							c-0.3,0-0.4,0.2-0.5,0.4c-0.1,0.4-0.5,0.6-0.8,0.8c-0.1,0-0.2,0.1-0.3,0.1c-0.2,0.1-0.4,0.2-0.4,0.5c-0.1,0.2-0.2,0.3-0.3,0.4
							c-0.2,0.2-0.3,0.4-0.3,0.6c0,0.6-0.1,1.1-0.2,1.7c-0.1,0.4-0.1,0.7,0,1.1c0.1,0.3,0.1,0.6,0.1,0.9s0.1,0.5,0.2,0.7
							c0.2,0.3,0.2,0.7,0.2,1c0,0.1,0,0.1-0.1,0.2c-0.1,0.2-0.3,0.3-0.5,0.2c-0.1-0.1-0.2-0.2-0.3-0.3c-0.2-0.2-0.4-0.5-0.6-0.7
							c-0.4-0.5-0.7-0.9-0.7-1.6c0-0.1,0-0.3,0-0.4c0-0.6-0.1-1.3-0.1-1.9c0-0.1,0-0.2,0-0.3c0-0.6,0.1-1.2,0.1-1.8
							c0-0.3,0-0.6,0-0.9c0-0.1,0-0.1,0-0.2c0-0.2,0-0.4-0.1-0.5s-0.1-0.2-0.2-0.3c-0.2-0.3,0-0.7,0.3-0.8c0.2-0.1,0.3,0,0.3,0.1
							s0.1,0.2,0.1,0.4c0.1,0.3,0.2,0.4,0.5,0.5c0.2,0,0.4,0.1,0.5,0.1s0.2,0.1,0.3,0.3c0.1,0.1,0.1,0.3,0.2,0.4
							c0.1,0.1,0.2,0.1,0.3,0.1s0.1-0.1,0.2-0.1c0.3-0.3,0.6-0.4,0.9-0.5c0.1,0,0.2-0.1,0.4-0.1s0.3-0.2,0.4-0.3
							c0.1-0.3,0.3-0.5,0.6-0.7c0.2-0.1,0.3-0.2,0.5-0.4c0.2-0.2,0.4-0.4,0.7-0.4C258.2,412.6,258.3,412.8,258.3,413z"/>
					</g>
					<g>
						<path class="st0" d="M260.5,428.6c-0.6,0-1,0-1.4-0.1c-0.3,0-0.6-0.2-0.9-0.4c-0.2-0.2-0.4-0.3-0.7-0.4
							c-0.5-0.2-0.9-0.5-1.2-1c-0.1-0.2-0.3-0.3-0.4-0.4s-0.2-0.2-0.3-0.3c-0.2-0.2-0.3-0.4-0.5-0.6c-0.1-0.1-0.2-0.2-0.2-0.4
							c-0.1-0.1-0.2-0.3-0.3-0.4c-0.2-0.2-0.3-0.4-0.2-0.7c0-0.1,0.1-0.2,0.2-0.3c0.1-0.1,0.3-0.1,0.4,0.1c0,0.1,0.1,0.1,0.1,0.2
							c0.1,0.3,0.4,0.6,0.7,0.8c0.2,0.2,0.4,0.1,0.4-0.2c0-0.4-0.1-0.8-0.5-1c-0.2-0.1-0.3-0.2-0.4-0.3c-0.2-0.1-0.3-0.2-0.3-0.4
							c0-0.1,0-0.3,0-0.4c0-0.3,0-0.5,0-0.8c0-0.2,0.1-0.4,0.1-0.6s0.1-0.4,0.1-0.6c0-0.6,0.1-1.2,0.3-1.8c0.1-0.4,0.2-0.8,0.3-1.3
							c0-0.2,0.1-0.3,0.3-0.4c0.5-0.3,0.8-0.3,1.2,0c0.3,0.2,0.3,0.4,0.2,0.7c-0.1,0.2-0.2,0.5-0.3,0.8s-0.2,0.6-0.5,0.7
							c-0.1,0.1-0.2,0.1-0.2,0.2c-0.2,0.2-0.3,0.4-0.3,0.7c0,0.2-0.1,0.4-0.1,0.5s0,0.1,0,0.2c0,0.3,0,0.7,0,1
							c0,0.2,0.1,0.4,0.2,0.6c0.1,0.2,0.2,0.3,0.3,0.5c0.2,0.6,0.8,0.7,1.2,0.7c0.2,0,0.4,0,0.5,0c0.4,0,0.6,0.4,0.5,0.8
							c-0.1,0.2-0.2,0.5-0.4,0.7c-0.1,0.2-0.3,0.3-0.5,0.3c-0.1,0-0.2,0-0.3,0.1c-0.2,0.1-0.3,0.2-0.2,0.4c0.1,0.2,0.2,0.4,0.4,0.5
							c0.6,0.4,1.3,0.8,1.9,1c0.2,0.1,0.4,0.1,0.6,0.1c0.4-0.1,0.7,0,1.1,0.2c0,0,0.1,0,0.1,0.1c0.2,0.1,0.2,0.2,0.1,0.4
							C261.1,428.4,260.7,428.6,260.5,428.6z"/>
					</g>
					<g>
						<path class="st0" d="M250.1,409.5c0.1-0.2,0.1-0.4,0.2-0.5c0.1-0.2,0.2-0.3,0.2-0.5c0.1-0.2,0.2-0.4,0.5-0.5
							c0.2-0.1,0.4-0.2,0.7-0.2c0.2,0,0.3,0,0.5,0.1c0.1,0.1,0.3,0.2,0.4,0.4c0.1,0.2,0.2,0.3,0.1,0.5c-0.1,0.2-0.1,0.5,0,0.7
							c0,0.1,0,0.3,0,0.4c-0.1,0.4-0.1,0.8,0,1.2c0,0.3,0,0.6-0.2,0.9c-0.1,0.2-0.3,0.5-0.6,0.5s-0.5-0.1-0.7-0.3
							c-0.3-0.3-0.4-0.7-0.4-1.2c0-0.3-0.1-0.6-0.3-0.8C250.2,410,250.1,409.8,250.1,409.5L250.1,409.5z"/>
					</g>
					<g>
						<path class="st0" d="M260.5,425.3c0.4,0,0.8,0.4,0.7,0.7c-0.1,0.4-0.4,0.7-0.8,0.8c-0.4,0.1-0.8-0.1-0.8-0.5
							c0-0.3,0-0.7,0.4-0.8C260.1,425.4,260.3,425.3,260.5,425.3L260.5,425.3z"/>
					</g>
					<g>
						<path class="st0" d="M247.3,424c0,0.2-0.2,0.3-0.3,0.2c-0.4-0.2-0.6-0.5-0.7-0.9c0,0,0-0.1,0.1-0.1h0.1
							c0.2,0.1,0.3,0.2,0.5,0.3C247.2,423.6,247.3,423.8,247.3,424z"/>
					</g>
				</g>
			</g>
			<g>
				<path class="st0" d="M270.5,469.8c-6.6,0-12-6.3-12-13.9c0-7.7,5.4-13.9,12-13.9s12,6.3,12,13.9
					C282.6,463.6,277.2,469.8,270.5,469.8z M270.5,443.4c-5.9,0-10.6,5.6-10.6,12.5s4.8,12.5,10.6,12.5c5.9,0,10.7-5.6,10.7-12.5
					C281.2,449,276.4,443.4,270.5,443.4z"/>
			</g>
			<g>
				<path class="st0" d="M269.3,436.6c0,0,0.4,5.1-1.2,5.7s1.6,0.3,1.6,0.3v-3.9v-1.2L269.3,436.6z"/>
			</g>
		</g>
		<g>
			<path class="st0" d="M478.1,512.7c-1.4,0-2.5-0.6-3.2-1.7L431,442.1v66.8c0,2.1-1.7,3.8-3.8,3.8H414c-2.1,0-3.8-1.7-3.8-3.8v-101
				c0-2.1,1.7-3.7,3.8-3.7h13.2c1.4,0,2.5,0.6,3.2,1.7l44,68.9V408c0-2.1,1.7-3.7,3.8-3.7h13.1c2.1,0,3.8,1.6,3.8,3.7v100.9
				c0,2.1-1.7,3.8-3.8,3.8H478.1L478.1,512.7z"/>
			<path class="st0" d="M512.1,512.7c-2.1,0-3.8-1.7-3.8-3.8v-101c0-2.1,1.7-3.7,3.8-3.7h63.8c2.1,0,3.8,1.6,3.8,3.7v11.8
				c0,2.1-1.7,3.8-3.8,3.8h-46.7v24.7h42.3c2.2,0,3.8,1.7,3.8,3.8v11.8c0,2.1-1.7,3.8-3.8,3.8h-42.3v25.5h46.7
				c2.1,0,3.8,1.7,3.8,3.8v11.8c0,2.1-1.7,3.8-3.8,3.8h-63.8V512.7z"/>
			<path class="st0" d="M613,510.2c-6.9-2.9-12.7-7.3-17.6-13.1c-4.3-5.2-7.6-11.2-9.8-18.1c-2-6.4-3.1-13.3-3.1-20.5
				c0-7.3,1-14.1,3.1-20.5c2.2-7,5.5-13,9.8-18.2c4.9-5.8,10.7-10.1,17.6-13c6.5-2.8,13.7-4.2,21.6-4.2c6.1,0,12.1,0.8,18.1,2.4
				c6.3,1.7,11.9,4,16.8,7.1c1.2,0.8,1.8,1.9,1.8,3.3c0,0.7-0.1,1.3-0.5,1.9l-5.9,10.3c-0.8,1.3-2,1.9-3.4,1.9
				c-0.7,0-1.4-0.2-2.1-0.7c-3.2-2.3-7.1-4-11.8-5.3c-4.3-1.1-8.6-1.7-13-1.7c-5,0-9.5,1-13.5,3c-4.1,2-7.6,5.1-10.5,9.1
				c-4.6,6.7-7,14.9-7,24.8c0,9.8,2.3,18.1,7,24.7c5.7,8.1,13.7,12.1,24.1,12.1c4,0,7.9-0.5,11.9-1.5c4.3-1,8.1-2.5,11.2-4.5v-21.8
				h-18c-2.1,0-3.8-1.7-3.8-3.8v-11.8c0-2.1,1.7-3.8,3.8-3.8h33.6c2.2,0,3.8,1.7,3.8,3.8v45c0,1.1-0.4,1.9-1.1,2.7
				c-4.9,4.7-11.4,8.4-19.3,11c-7.3,2.4-14.6,3.6-22.1,3.6C626.7,514.4,619.5,513,613,510.2z"/>
			<path class="st0" d="M747.4,512.7c-1.4,0-2.5-0.6-3.3-1.9l-24.7-42.9h-13.3v41c0,2.1-1.6,3.8-3.7,3.8H689c-2.1,0-3.8-1.7-3.8-3.8
				v-101c0-2.1,1.7-3.7,3.8-3.7h36.8c8.5,0,16,2.1,22.3,6.3c8.7,5.8,13.7,15.1,13.7,25.6c0,5.2-1.2,10.1-3.6,14.5
				c-3.7,6.8-9.5,11.7-17.2,14.6l24.1,41.8c0.4,0.6,0.6,1.2,0.6,1.9c0,0.7-0.2,1.3-0.6,1.9c-0.7,1.3-1.8,1.9-3.3,1.9H747.4
				L747.4,512.7z M725.7,448.4c4.1,0,7.6-1,10.3-2.8c3.1-2.3,4.7-5.4,4.7-9.5s-1.6-7.3-4.7-9.5c-2.8-1.9-6.2-2.9-10.3-2.9h-19.6
				v24.8h19.6V448.4z"/>
			<path class="st0" d="M786,510.1c-0.7,1.7-1.9,2.5-3.6,2.5h-14.2c-1.5,0-2.5-0.5-3.2-1.6c-0.3-0.6-0.4-1.3-0.4-2s0.4-2,1.1-3.8
				l35.7-98.5c0.5-1.5,1.9-2.5,3.5-2.5h18.4c1.7,0,2.9,0.8,3.6,2.5l35.7,98.5c0.7,1.8,1,3.1,1,3.8c0,0.7-0.1,1.4-0.5,2
				c-0.6,1.1-1.6,1.6-3.1,1.6h-14.2c-1.7,0-2.9-0.8-3.6-2.5l-8.7-24.6h-38.8L786,510.1z M826.6,466.1l-12.5-35.6l-12.6,35.6H826.6z"
				/>
			<path class="st0" d="M865.5,444.1c-1.3-3.4-2-7-2-10.8c0-5.5,1.2-10.4,3.6-14.8c5.6-10.6,16.1-16,31.3-16
				c12.4,0,23.2,3.2,32.3,9.6c1.2,0.8,1.8,1.9,1.8,3.3c0,0.6-0.2,1.2-0.5,1.8l-5.9,10.3c-0.8,1.3-1.9,1.9-3.3,1.9
				c-0.8,0-1.6-0.2-2.2-0.8c-2.2-1.6-5.2-3.2-9.3-5c-4-1.8-8.2-2.8-12.8-2.8c-3.7,0-6.8,0.7-9.4,2.3c-3.1,1.9-4.6,4.5-4.6,7.6
				c0,4.9,3.7,9.7,11.1,14.3c2.6,1.6,5.9,3.4,9.8,5.5c8,4.4,13.8,8.2,17.5,11.3c3.4,3,6,6.7,7.6,11c1.3,3.4,2,7,2,10.8
				c0,5.5-1.2,10.4-3.6,14.8c-5.6,10.6-16.1,16-31.3,16c-12.4,0-23.2-3.2-32.3-9.6c-1.2-0.8-1.8-1.9-1.8-3.3c0-0.6,0.1-1.2,0.5-1.8
				l5.9-10.3c0.8-1.3,1.9-1.9,3.3-1.9c0.8,0,1.6,0.2,2.2,0.7c2.2,1.6,5.3,3.2,9.2,5c4,1.8,8.3,2.8,12.9,2.8c4.4,0,7.8-1,10.3-3.1
				c2.5-1.9,3.7-4.2,3.7-6.8c0-4.9-2.8-9.1-8.6-12.9c-2.8-1.7-6.7-4-11.5-6.6c-8.4-4.6-14.5-8.5-18.2-11.7
				C869.7,452.1,867.2,448.4,865.5,444.1z"/>
		</g>
		<g>
			<path class="st0" d="M410.3,385.6c-0.7,0-1.3-0.6-1.3-1.3v-34.5c0-0.7,0.6-1.3,1.3-1.3h12.5c2.9,0,5.5,0.7,7.6,2.2
				c3,2,4.7,5.1,4.7,8.7c0,3.2-1.3,5.6-4,7.1c3.4,2.3,5.1,5,5.1,8.1c0,3.6-1.7,6.8-4.8,8.8c-2.2,1.4-4.8,2.2-7.7,2.2L410.3,385.6
				L410.3,385.6z M422.8,363.7c1.4,0,2.6-0.3,3.5-1c1.1-0.8,1.6-1.8,1.6-3.3c0-1.4-0.5-2.5-1.6-3.3c-0.9-0.7-2.1-1-3.5-1h-6.7v8.5
				L422.8,363.7L422.8,363.7z M423.8,379c1.5,0,2.7-0.3,3.6-1c1.1-0.8,1.7-1.9,1.7-3.3s-0.6-2.5-1.7-3.3c-0.9-0.7-2.2-1-3.6-1h-7.7
				v8.7h7.7V379z"/>
			<path class="st0" d="M440.3,385.6c-0.7,0-1.3-0.6-1.3-1.3v-34.5c0-0.7,0.6-1.3,1.3-1.3h4.6c0.7,0,1.3,0.6,1.3,1.3v29.1h15.9
				c0.7,0,1.3,0.6,1.3,1.3v4c0,0.7-0.6,1.3-1.3,1.3h-21.8V385.6z"/>
			<path class="st0" d="M472,384.8c-2.4-1-4.4-2.5-6-4.5c-1.5-1.8-2.6-3.8-3.4-6.2c-0.7-2.2-1.1-4.5-1.1-7s0.4-4.8,1.1-7
				c0.7-2.4,1.9-4.5,3.4-6.2c1.7-2,3.7-3.5,6-4.5c2.2-0.9,4.7-1.4,7.4-1.4c2.7,0,5.1,0.5,7.4,1.4c2.4,1,4.4,2.5,6,4.5
				c1.5,1.8,2.6,3.8,3.4,6.2c0.7,2.2,1,4.5,1,7s-0.4,4.8-1,7c-0.7,2.4-1.9,4.4-3.4,6.2c-1.7,2-3.7,3.5-6,4.5
				c-2.2,0.9-4.7,1.4-7.4,1.4S474.2,385.7,472,384.8z M487.6,375.6c1.6-2.3,2.4-5.1,2.4-8.5s-0.8-6.2-2.4-8.5
				c-2-2.7-4.7-4.1-8.2-4.1s-6.3,1.4-8.2,4.1c-1.6,2.3-2.4,5.1-2.4,8.5s0.8,6.2,2.4,8.5c1.9,2.8,4.7,4.1,8.2,4.1
				C483,379.7,485.7,378.3,487.6,375.6z"/>
			<path class="st0" d="M509.4,384.8c-2.4-1-4.4-2.5-6-4.5c-1.5-1.8-2.6-3.8-3.4-6.2c-0.7-2.2-1-4.5-1-7s0.4-4.8,1-7
				c0.7-2.4,1.9-4.5,3.4-6.2c1.7-2,3.7-3.5,6-4.5c2.2-0.9,4.7-1.4,7.4-1.4c2.1,0,4.1,0.3,6.2,0.8c2.2,0.6,4.1,1.4,5.7,2.4
				c0.4,0.3,0.6,0.6,0.6,1.1c0,0.2-0.1,0.4-0.2,0.6l-2,3.5c-0.3,0.4-0.7,0.6-1.2,0.6c-0.3,0-0.5-0.1-0.7-0.2c-1.1-0.8-2.4-1.4-4-1.8
				c-1.5-0.4-2.9-0.6-4.5-0.6c-1.7,0-3.3,0.3-4.6,1c-1.4,0.7-2.6,1.7-3.6,3.1c-1.6,2.3-2.4,5.1-2.4,8.5s0.8,6.2,2.4,8.5
				c1.9,2.8,4.7,4.1,8.2,4.1c1.4,0,2.7-0.2,4.1-0.5c1.5-0.4,2.8-0.9,3.8-1.5v-7.4h-6.1c-0.7,0-1.3-0.6-1.3-1.3v-4
				c0-0.7,0.6-1.3,1.3-1.3H530c0.7,0,1.3,0.6,1.3,1.3v15.4c0,0.4-0.1,0.7-0.4,0.9c-1.7,1.6-3.9,2.9-6.6,3.8c-2.5,0.8-5,1.2-7.6,1.2
				C514.1,386.2,511.7,385.7,509.4,384.8z"/>
			<path class="st0" d="M542.3,385c-1.9-0.8-3.6-2-4.9-3.7c-1.2-1.5-2.2-3.2-2.8-5.1c-0.6-1.8-0.9-3.7-0.9-5.8v-20.6
				c0-0.7,0.6-1.3,1.3-1.3h4.6c0.7,0,1.3,0.6,1.3,1.3v20.6c0,2.5,0.6,4.5,1.7,6.1c1.4,2,3.3,2.9,5.8,2.9s4.4-1,5.8-2.9
				c1.2-1.7,1.7-3.7,1.7-6.1v-20.6c0-0.7,0.6-1.3,1.3-1.3h4.6c0.7,0,1.3,0.6,1.3,1.3v20.6c0,2-0.3,3.9-0.9,5.8
				c-0.6,1.9-1.5,3.7-2.8,5.1c-1.4,1.6-3,2.8-5,3.7c-1.8,0.8-3.9,1.2-6.1,1.2C546.2,386.2,544.1,385.8,542.3,385z"/>
			<path class="st0" d="M568.1,385.6c-0.7,0-1.3-0.6-1.3-1.3v-34.5c0-0.7,0.6-1.3,1.3-1.3H590c0.7,0,1.3,0.6,1.3,1.3v4
				c0,0.7-0.6,1.3-1.3,1.3h-16v8.4h14.4c0.7,0,1.3,0.6,1.3,1.3v4c0,0.7-0.6,1.3-1.3,1.3H574v8.7h16c0.7,0,1.3,0.6,1.3,1.3v4
				c0,0.7-0.6,1.3-1.3,1.3h-21.9V385.6z"/>
			<path class="st0" d="M595.4,385.6c-0.7,0-1.3-0.6-1.3-1.3v-34.5c0-0.7,0.6-1.3,1.3-1.3h4.6c0.7,0,1.3,0.6,1.3,1.3v34.5
				c0,0.7-0.6,1.3-1.3,1.3H595.4z"/>
			<path class="st0" d="M627.1,385.6c-0.5,0-0.9-0.2-1.1-0.6l-8.5-14.7H613v14c0,0.7-0.6,1.3-1.3,1.3h-4.6c-0.7,0-1.3-0.6-1.3-1.3
				v-34.5c0-0.7,0.6-1.3,1.3-1.3h12.6c2.9,0,5.5,0.7,7.6,2.2c3,2,4.7,5.1,4.7,8.7c0,1.8-0.4,3.5-1.2,5c-1.3,2.3-3.3,4-5.9,5
				l8.2,14.3c0.1,0.2,0.2,0.4,0.2,0.6s-0.1,0.4-0.2,0.7c-0.2,0.4-0.6,0.6-1.1,0.6H627.1z M619.6,363.7c1.4,0,2.6-0.3,3.5-1
				c1.1-0.8,1.6-1.8,1.6-3.3c0-1.4-0.5-2.5-1.6-3.3c-0.9-0.7-2.1-1-3.5-1h-6.7v8.5L619.6,363.7L619.6,363.7z"/>
			<path class="st0" d="M640.2,384.8c-0.2,0.6-0.6,0.9-1.2,0.9h-4.9c-0.5,0-0.9-0.2-1.1-0.6c-0.1-0.2-0.2-0.4-0.2-0.7
				c0-0.3,0.1-0.7,0.4-1.3l12.2-33.7c0.2-0.5,0.7-0.8,1.2-0.8h6.3c0.6,0,1,0.3,1.2,0.8l12.2,33.7c0.2,0.6,0.4,1,0.4,1.3
				s-0.1,0.5-0.2,0.7c-0.2,0.4-0.6,0.6-1.1,0.6h-4.9c-0.6,0-1-0.3-1.2-0.9l-3-8.4H643L640.2,384.8z M654.1,369.7l-4.3-12.2
				l-4.3,12.2H654.1z"/>
			<path class="st0" d="M667.4,362.2c-0.5-1.2-0.7-2.4-0.7-3.7c0-1.9,0.4-3.6,1.2-5.1c1.9-3.6,5.5-5.5,10.7-5.5
				c4.2,0,7.9,1.1,11,3.3c0.4,0.3,0.6,0.6,0.6,1.1c0,0.2-0.1,0.4-0.2,0.6l-2,3.5c-0.3,0.4-0.6,0.7-1.1,0.7c-0.3,0-0.5-0.1-0.8-0.3
				c-0.7-0.5-1.8-1.1-3.2-1.7c-1.4-0.6-2.8-0.9-4.4-1c-1.3,0-2.3,0.3-3.2,0.8c-1.1,0.7-1.6,1.5-1.6,2.6c0,1.7,1.3,3.3,3.8,4.9
				c0.9,0.5,2,1.2,3.4,1.9c2.7,1.5,4.7,2.8,6,3.9c1.2,1,2,2.3,2.6,3.8c0.5,1.2,0.7,2.4,0.7,3.7c0,1.9-0.4,3.6-1.2,5.1
				c-1.9,3.6-5.5,5.5-10.7,5.5c-4.2,0-7.9-1.1-11-3.3c-0.4-0.3-0.6-0.6-0.6-1.1c0-0.2,0.1-0.4,0.2-0.6l2-3.5
				c0.3-0.4,0.6-0.7,1.1-0.7c0.3,0,0.5,0.1,0.8,0.3c0.7,0.5,1.8,1.1,3.1,1.7c1.4,0.6,2.8,0.9,4.4,1c1.5,0,2.7-0.4,3.5-1
				c0.8-0.7,1.3-1.4,1.3-2.3c0-1.7-1-3.1-2.9-4.4c-1-0.6-2.3-1.4-3.9-2.3c-2.9-1.6-4.9-2.9-6.2-4C668.9,365,668,363.7,667.4,362.2z"
				/>
		</g>
	</g>
</g>
</svg>
