<?xml version="1.0" encoding="utf-8"?>
<!-- Generator: Adobe Illustrator 22.0.1, SVG Export Plug-In . SVG Version: 6.00 Build 0)  -->
<svg version="1.1" id="Camada_1" xmlns="http://www.w3.org/2000/svg" xmlns:xlink="http://www.w3.org/1999/xlink" x="0px" y="0px"
	 viewBox="0 0 600 600" style="enable-background:new 0 0 600 600;" xml:space="preserve">
<style type="text/css">
	.st0{fill:#FFFFFF;}
	.st1{fill:#FEFEFE;}
</style>
<path class="st0" d="M88,162.4h42.2c-15.1,4.9-29.3,11.8-42.2,20.5V162.4z"/>
<path class="st0" d="M493.8,326c12.5-0.7,24.7-2.7,36.4-6v34.3h-36.4V326z"/>
<rect x="493.8" y="383.9" class="st0" width="36.4" height="36.9"/>
<path class="st0" d="M361.6,162.4h168.6v105.8c-14.1,5.7-29.6,8.9-45.7,8.9C419.4,277,365.9,226.3,361.6,162.4z"/>
<g>
	<polygon class="st1" points="328.9,371.6 339,371.6 333.9,360.5 	"/>
	<path class="st1" d="M464.3,354.3v-29.3c-82.7-9.8-147.9-78.4-152-162.7h-75.4c69,22.5,119,87.6,119,163.8h-49.2
		c0-67.8-55.4-123.1-123.1-123.1c-38.5,0-72.9,17.9-95.5,45.6v113.4c0.9-1.7,2.2-3.3,3.9-4.6c3.7-2.9,8.5-4.3,14.6-4.3
		c5.1,0,9.2,1,12.3,2.9c3.1,2,5,4.7,5.6,8.2l-10,0.6c-0.2-1.9-1-3.5-2.4-4.7c-1.4-1.1-3.2-1.7-5.4-1.7c-2.9,0-5.2,0.9-6.8,2.7
		c-1.5,1.7-2.3,4.3-2.3,7.7c0,3.4,0.8,5.9,2.3,7.5c1.5,1.7,3.8,2.6,6.8,2.6c2.2,0,3.9-0.5,5.4-1.6c1.4-1,2.3-2.4,2.8-4.4l9.7,0.6
		c-0.7,3.4-2.7,6.2-5.8,8c-3.2,1.9-7.2,2.9-12.2,2.9c-6.1,0-11-1.4-14.6-4.2c-1.7-1.3-3-2.8-3.9-4.5v45.1h376.2v-36.9H415v-29.5
		H464.3z M165.9,359.3h-20.8v6.9h16.3v5.2h-16.3v12.6h-10.6v-30.1h31.4V359.3z M206.7,383.9h-32.6v-30.1h32.3v5.4h-22v6.5h17.7v5.1
		h-17.7v7.5h22.3V383.9z M264.2,383.9h-10.1l0.1-23.9L243,383.9h-6.9l-11.1-24l0.2,24h-8.3v-30.1h14l9.7,19.9l9-19.9h14.6V383.9z
		 M309.4,383.9h-32.6v-30.1h32.3v5.4h-22v6.5h17.8v5.1h-17.8v7.5h22.4V383.9z M344.4,383.9l-3.3-7.2h-14.3l-3.2,7.2h-8.8l14.4-30.1
		h11.6l14.5,30.1H344.4z"/>
	<path class="st1" d="M86.4,368.9c0,2.6,0.5,4.9,1.6,6.9v-13.7C87,364.1,86.4,366.3,86.4,368.9z"/>
</g>
<path class="st0" d="M361.6,162.4h168.6v105.8c-14.1,5.7-29.6,8.9-45.7,8.9C419.4,277,365.9,226.3,361.6,162.4z"/>
</svg>
