<?xml version="1.0" encoding="utf-8"?>
<!-- Generator: Adobe Illustrator 21.1.0, SVG Export Plug-In . SVG Version: 6.00 Build 0)  -->
<svg version="1.1" id="Camada_1" xmlns="http://www.w3.org/2000/svg" xmlns:xlink="http://www.w3.org/1999/xlink" x="0px" y="0px"
	 viewBox="0 0 600 600" style="enable-background:new 0 0 600 600;" xml:space="preserve">
<style type="text/css">
	.st0{fill:#FFFFFF;}
</style>
<g>
	<g>
		<path class="st0" d="M226.1,271.8c-4.1-2.6-5.3-8-2.7-12l0,0c2.6-4.1,7.9-5.3,12-2.7l0,0c4,2.6,5.3,8,2.7,12l0,0
			c-0.3,0.5-0.7,1.1-1.2,1.5l0,0C234.1,273.4,229.6,274,226.1,271.8z"/>
		<path class="st0" d="M201.2,234.3c-4.1-2.6-5.3-8-2.7-12l0,0c2.6-4,7.9-5.3,11.9-2.7l0,0c4,2.6,5.3,8,2.7,12l0,0
			c-0.3,0.5-0.7,1-1.2,1.5l0,0C209.1,236,204.7,236.6,201.2,234.3z"/>
		<path class="st0" d="M193.7,191.9c-4.1-2.6-5.3-8-2.7-12l0,0c2.6-4,7.9-5.2,11.9-2.7l0,0c4,2.6,5.3,8,2.7,12l0,0
			c-0.3,0.5-0.7,1.1-1.2,1.5l0,0C201.7,193.6,197.2,194.2,193.7,191.9z"/>
		<path class="st0" d="M201.2,147c-4.1-2.6-5.3-8-2.7-12l0,0c2.6-4,7.9-5.2,11.9-2.7l0,0c4,2.6,5.3,8,2.7,12l0,0
			c-0.3,0.5-0.7,1-1.2,1.5l0,0C209.1,148.7,204.7,149.3,201.2,147z"/>
		<path class="st0" d="M226.1,112.1c-4.1-2.6-5.3-8-2.7-12l0,0c2.6-4,7.9-5.2,12-2.7l0,0c4,2.6,5.3,8,2.7,12l0,0
			c-0.3,0.5-0.7,1-1.2,1.5l0,0C234.1,113.8,229.6,114.3,226.1,112.1z"/>
		<path class="st0" d="M383.3,112.1c-4.1-2.6-5.3-8-2.7-12l0,0c2.6-4,7.9-5.2,11.9-2.7l0,0c4,2.6,5.3,8,2.7,12l0,0
			c-0.3,0.5-0.7,1-1.2,1.5l0,0C391.3,113.8,386.8,114.3,383.3,112.1z"/>
		<path class="st0" d="M408.2,149.5c-4.1-2.6-5.3-8-2.7-12l0,0c2.6-4,7.9-5.3,11.9-2.7l0,0c4,2.6,5.3,8,2.7,12l0,0
			c-0.3,0.5-0.7,1.1-1.2,1.5l0,0C416.2,151.2,411.7,151.8,408.2,149.5z"/>
		<path class="st0" d="M415.7,191.9c-4.1-2.6-5.3-8-2.7-12l0,0c2.6-4,7.9-5.2,11.9-2.7l0,0c4,2.6,5.3,8,2.7,12l0,0
			c-0.3,0.5-0.7,1.1-1.2,1.5l0,0C423.7,193.6,419.2,194.2,415.7,191.9z"/>
		<path class="st0" d="M408.2,234.3c-4.1-2.6-5.3-8-2.7-12l0,0c2.6-4,7.9-5.3,11.9-2.7l0,0c4,2.6,5.3,8,2.7,12l0,0
			c-0.3,0.5-0.7,1-1.2,1.5l0,0C416.2,236,411.7,236.6,408.2,234.3z"/>
		<path class="st0" d="M385.8,271.8c-4.1-2.6-5.3-8-2.7-12l0,0c2.6-4.1,7.9-5.3,11.9-2.7l0,0c4,2.6,5.3,8,2.7,12l0,0
			c-0.3,0.5-0.7,1.1-1.2,1.5l0,0C393.7,273.4,389.3,274,385.8,271.8z"/>
		<path class="st0" d="M348.4,296.7c-4.1-2.6-5.3-8-2.7-12l0,0c2.6-4,7.9-5.2,11.9-2.7l0,0c4,2.6,5.3,8,2.7,12l0,0
			c-0.3,0.5-0.7,1.1-1.2,1.5l0,0C356.3,298.4,351.9,298.9,348.4,296.7z"/>
		<path class="st0" d="M303.5,304.2c-4.1-2.6-5.3-8-2.7-12l0,0c2.6-4,7.9-5.2,11.9-2.7l0,0c4,2.6,5.3,8,2.7,12l0,0
			c-0.3,0.5-0.7,1.1-1.2,1.5l0,0C311.4,305.9,307,306.4,303.5,304.2z"/>
		<path class="st0" d="M261.1,296.7c-4.1-2.6-5.3-8-2.7-12l0,0c2.6-4,7.9-5.2,11.9-2.7l0,0c4,2.6,5.3,8,2.7,12l0,0
			c-0.3,0.5-0.7,1.1-1.2,1.5l0,0C269,298.4,264.5,298.9,261.1,296.7z"/>
		<path class="st0" d="M248.3,249c-3.1-2-4.1-6.1-2.1-9.2l0,0c2-3.1,6.1-4,9.2-2.1l0,0c3.1,2,4.1,6.1,2.1,9.3l0,0
			c-0.3,0.4-0.6,0.8-0.9,1.1l0,0C254.4,250.3,251,250.7,248.3,249z"/>
		<path class="st0" d="M230,221.5c-3.1-2-4.1-6.1-2.1-9.2l0,0c2-3.1,6.1-4,9.2-2.1l0,0c3.1,2,4.1,6.1,2.1,9.3l0,0
			c-0.3,0.4-0.6,0.8-0.9,1.2l0,0C236.1,222.8,232.7,223.2,230,221.5z"/>
		<path class="st0" d="M224.5,190.4c-3.1-2-4.1-6.1-2.1-9.3l0,0c2-3.1,6.1-4,9.2-2.1l0,0c3.1,2,4.1,6.1,2.1,9.3l0,0
			c-0.3,0.4-0.6,0.8-0.9,1.2l0,0C230.6,191.7,227.2,192.1,224.5,190.4z"/>
		<path class="st0" d="M230,157.5c-3.1-2-4.1-6.1-2.1-9.2l0,0c2-3.1,6.1-4.1,9.2-2.1l0,0c3.1,2,4.1,6.1,2.1,9.3l0,0
			c-0.3,0.4-0.6,0.8-0.9,1.2l0,0C236.1,158.7,232.7,159.2,230,157.5z"/>
		<path class="st0" d="M248.3,131.8c-3.1-2-4.1-6.1-2.1-9.2l0,0c2-3.1,6.1-4.1,9.2-2.1l0,0c3.1,2,4.1,6.1,2.1,9.3l0,0
			c-0.3,0.4-0.6,0.8-0.9,1.1l0,0C254.4,133.1,251,133.6,248.3,131.8z"/>
		<path class="st0" d="M363.6,131.8c-3.1-2-4.1-6.1-2.1-9.2l0,0c2-3.1,6.1-4.1,9.2-2.1l0,0c3.1,2,4.1,6.1,2.1,9.3l0,0
			c-0.3,0.4-0.6,0.8-0.9,1.1l0,0C369.7,133.1,366.3,133.6,363.6,131.8z"/>
		<path class="st0" d="M381.9,159.3c-3.1-2-4.1-6.1-2.1-9.2l0,0c2-3.1,6.1-4,9.2-2.1l0,0c3.1,2,4.1,6.1,2.1,9.3l0,0
			c-0.3,0.4-0.6,0.8-0.9,1.2l0,0C388,160.6,384.6,161,381.9,159.3z"/>
		<path class="st0" d="M387.4,190.4c-3.1-2-4.1-6.1-2.1-9.3l0,0c2-3.1,6.1-4,9.2-2.1l0,0c3.1,2,4.1,6.1,2.1,9.3l0,0
			c-0.3,0.4-0.6,0.8-0.9,1.2l0,0C393.5,191.7,390.1,192.1,387.4,190.4z"/>
		<path class="st0" d="M381.9,221.5c-3.1-2-4.1-6.1-2.1-9.2l0,0c2-3.1,6.1-4,9.2-2.1l0,0c3.1,2,4.1,6.1,2.1,9.3l0,0
			c-0.3,0.4-0.6,0.8-0.9,1.2l0,0C388,222.8,384.6,223.2,381.9,221.5z"/>
		<path class="st0" d="M365.4,249c-3.1-2-4.1-6.1-2.1-9.2l0,0c2-3.1,6.1-4,9.2-2.1l0,0c3.1,2,4.1,6.1,2.1,9.3l0,0
			c-0.3,0.4-0.6,0.8-0.9,1.1l0,0C371.6,250.3,368.1,250.7,365.4,249z"/>
		<path class="st0" d="M338,267.3c-3.1-2-4.1-6.1-2.1-9.3l0,0c2-3.1,6.1-4,9.2-2.1l0,0c3.1,2,4.1,6.1,2.1,9.3l0,0
			c-0.3,0.4-0.6,0.8-0.9,1.1l0,0C344.1,268.6,340.7,269,338,267.3z"/>
		<path class="st0" d="M305,272.8c-3.1-2-4.1-6.1-2.1-9.3l0,0c2-3.1,6.1-4,9.2-2.1l0,0c3.1,2,4.1,6.1,2.1,9.3l0,0
			c-0.3,0.4-0.6,0.8-0.9,1.1l0,0C311.2,274.1,307.7,274.5,305,272.8z"/>
		<path class="st0" d="M273.9,267.3c-3.1-2-4.1-6.1-2.1-9.3l0,0c2-3.1,6.1-4,9.2-2.1l0,0c3.1,2,4.1,6.1,2.1,9.3l0,0
			c-0.3,0.4-0.6,0.8-0.9,1.1l0,0C280,268.6,276.6,269,273.9,267.3z"/>
		<g>
			<g>
				<g>
					<path class="st0" d="M279.4,192.9c1.5,0,3,0.9,3.5,2.5c0.6,1.6,1.3,3.2,2.2,4.6c5,8.4,13.9,13.4,23.6,13.4
						c2.1,0,3.8,1.7,3.8,3.8c0,2.1-1.7,3.8-3.8,3.8c-12.2,0-23.8-6.5-30.1-17c-1.1-1.9-2.1-3.8-2.8-5.9c-0.7-1.9,0.3-4.1,2.2-4.8
						C278.5,193,278.9,192.9,279.4,192.9z"/>
				</g>
			</g>
			<path class="st0" d="M281,185.9c0,2.1-1.7,3.8-3.8,3.8c-2.1,0-3.8-1.7-3.8-3.8c0-2.1,1.7-3.8,3.8-3.8
				C279.3,182.1,281,183.8,281,185.9z"/>
			<g>
				<path class="st0" d="M349.9,159.1l-1.9-2.9h-0.1c-1.9-2.7-3.8-5.2-5.7-7.5l-5,4c2,2.6,4.2,5.2,6.1,8.1l1.2,1.8h0
					c4.5,6.8,6.8,14.8,6.8,23.3c0,23.4-19,42.5-42.4,42.5c-23.4-0.1-42.4-19.1-42.4-42.5c0-8.5,2.4-16.5,6.9-23.3h0.1l1.2-1.8
					c1.9-2.9,4.1-5.6,6.2-8.2c5.3-6.6,10.3-12.9,10.3-21.3c0-0.1,0-2.5,0-2.8c0.1-5.3,2.2-7.3,7.8-7.3h10.6h9.6c5.6,0,7.7,2,7.8,7.3
					v2.8c0,8.4,5,14.7,10.3,21.3c0,0,0,0,0,0l4.9-4c-5-6.2-8.9-11.2-8.9-17.3l0-2.9c-0.1-8.7-5.2-13.5-14.2-13.5h-20.2
					c-11.5,0-14,7.4-14.2,13.6l0,2.9c0,6.1-4.1,11.3-8.9,17.3c-2.1,2.6-4,5-5.8,7.6H270l-1.9,2.9c-5.2,7.9-7.9,17.1-7.9,26.8
					c0,26.9,21.9,48.8,48.8,48.9h0h0c26.9-0.1,48.8-22,48.8-48.9C357.8,176.2,355.1,167,349.9,159.1z"/>
			</g>
			<path class="st0" d="M325.8,97.3l-33,0c-1.6,0-2.9,1.7-2.9,3.7c0,2.1,1.3,3.7,2.9,3.7l33,0c1.6,0,2.9-1.7,2.9-3.7
				C328.7,98.9,327.4,97.3,325.8,97.3z"/>
			<path class="st0" d="M325.8,82l-33,0c-1.6,0-2.9,1.7-2.9,3.7c0,2.1,1.3,3.7,2.9,3.7l33,0c1.6,0,2.9-1.7,2.9-3.7
				C328.7,83.6,327.4,82,325.8,82z"/>
		</g>
	</g>
	<g>
		<g>
			<path class="st0" d="M118.2,416.4h5.6v45.1h-5.6V416.4z"/>
			<path class="st0" d="M136.2,416.4h6.4l16,27.3c1.5,2.5,3.2,5.8,4.4,8.9h0.2c-0.1-5.1-0.2-9.3-0.2-13.7v-22.6h5.5v45.1h-6.2
				l-16-27.2c-1.5-2.6-2.9-5.5-4.7-9.3h-0.2c0.2,5,0.2,9.3,0.2,13.7l0.1,22.9h-5.5V416.4z"/>
			<path class="st0" d="M190.7,421.3c-6.8,0.1-13.6,0.1-14.2,0.1v-5h34v5c-0.7,0-7.4,0-14.2-0.1v40.2h-5.6V421.3z"/>
			<path class="st0" d="M218.4,416.4h26.3v5.1c-0.7,0-13.8,0-20.7-0.1c0,0.7,0,10.9-0.1,14.2c6.4-0.1,17.8-0.1,18.4-0.1v4.8
				c-0.7,0-12.1,0-18.4-0.1c0.1,7.1,0.1,15.4,0.1,16.1c7.2-0.1,20.7-0.1,21.4-0.1v5.1h-27V416.4z"/>
			<path class="st0" d="M255.1,416.4h5.6c0,0.7-0.1,33.7-0.1,40.1c7.2-0.1,18.3-0.1,19-0.1v5.1h-24.4V416.4z"/>
			<path class="st0" d="M290,416.4h5.6v45.1H290V416.4z"/>
			<path class="st0" d="M328.7,462c-14.5,0-22.1-9.5-22.1-23.7c0-13,6.5-23,20.2-23c4.2,0,8.6,1,12.5,3l-2.3,4.6
				c-2.7-1.6-6.9-2.6-10.8-2.6c-10,0-13.7,8.2-13.7,18c0,11,4.8,19,16.6,19c2.1,0,4-0.1,5.7-0.9c0-0.5,0-7.1,0.1-16
				c-5.4,0.1-6.8,0.1-7.5,0.1v-4.9h12.9v24.6C337.5,461.3,333.1,462,328.7,462z"/>
			<path class="st0" d="M352.7,416.4H379v5.1c-0.7,0-13.8,0-20.7-0.1c0,0.7,0,10.9-0.1,14.2c6.4-0.1,17.8-0.1,18.4-0.1v4.8
				c-0.7,0-12.1,0-18.4-0.1c0.1,7.1,0.1,15.4,0.1,16.1c7.2-0.1,20.7-0.1,21.4-0.1v5.1h-27V416.4z"/>
			<path class="st0" d="M389.4,416.4h6.4l16,27.3c1.5,2.5,3.2,5.8,4.4,8.9h0.2c-0.1-5.1-0.2-9.3-0.2-13.7v-22.6h5.5v45.1h-6.2
				l-16-27.2c-1.5-2.6-2.9-5.5-4.7-9.3h-0.2c0.2,5,0.2,9.3,0.2,13.7l0.1,22.9h-5.5V416.4z"/>
			<path class="st0" d="M443.8,421.3c-6.8,0.1-13.6,0.1-14.2,0.1v-5h34v5c-0.7,0-7.4,0-14.2-0.1v40.2h-5.6V421.3z"/>
			<path class="st0" d="M473.4,416.4h26.3v5.1c-0.7,0-13.8,0-20.7-0.1c0,0.7,0,10.9-0.1,14.2c6.4-0.1,17.8-0.1,18.4-0.1v4.8
				c-0.7,0-12.1,0-18.4-0.1c0.1,7.1,0.1,15.4,0.1,16.1c7.2-0.1,20.7-0.1,21.4-0.1v5.1h-27V416.4z"/>
		</g>
	</g>
	<g>
		<path class="st0" d="M145.4,382.7c-3.4,3.1-7.7,5.6-14.2,5.6c-12.8,0-17.5-11.9-17.5-23c0-11,5.4-22,17.6-22
			c5.6,0,9.5,1.4,12.9,3.6l-2.8,4.2c-2.8-2-6-3-9.8-3c-9.2,0-12.2,9.6-12.2,17.2c0,7.5,2.7,18.3,12.4,18.3c4,0,7.6-1.7,10.7-4.5
			L145.4,382.7z"/>
		<path class="st0" d="M163.7,344.3h5.5v43.2h-5.5V344.3z"/>
		<path class="st0" d="M191.1,344.3H204c2.9,0,18.5,0,18.5,21.6s-15.6,21.6-18.5,21.6h-12.8V344.3z M201.7,382.8
			c6,0,15.1-0.1,15.1-16.9c0-16.7-9.1-16.9-15.1-16.9h-5.1v33.9H201.7z"/>
		<path class="st0" d="M267.7,387.5l-4.5-12.8h-16.1l-4.6,12.8h-5.7c5.2-14.4,10.8-30,15.7-43.2h6.1c4.7,13.2,10.1,28.8,15.1,43.2
			H267.7z M258.5,359.7c-1.5-4.4-2.3-7.4-3-9.6h-0.1c-0.6,2.2-1.6,5.1-3.1,9.6l-3.7,10.5c2.1-0.1,4.7-0.1,6.7-0.1
			c2.1,0,4.7,0,6.7,0.1L258.5,359.7z"/>
		<path class="st0" d="M291.4,344.3h12.8c2.9,0,18.5,0,18.5,21.6s-15.6,21.6-18.5,21.6h-12.8V344.3z M302,382.8
			c6,0,15.1-0.1,15.1-16.9c0-16.7-9.1-16.9-15.1-16.9h-5.1v33.9H302z"/>
		<path class="st0" d="M368,387.5l-4.5-12.8h-16.1l-4.6,12.8h-5.7c5.2-14.4,10.8-30,15.7-43.2h6.1c4.7,13.2,10.1,28.8,15.1,43.2H368
			z M358.8,359.7c-1.5-4.4-2.3-7.4-3-9.6h-0.1c-0.6,2.2-1.6,5.1-3.1,9.6l-3.7,10.5c2.1-0.1,4.7-0.1,6.7-0.1c2.1,0,4.7,0,6.7,0.1
			L358.8,359.7z"/>
		<path class="st0" d="M391.7,344.3h6.3l15.6,26.2c1.4,2.3,3.1,5.5,4.3,8.6h0.2c-0.1-4.9-0.2-8.9-0.2-13.1v-21.6h5.4v43.2h-6.1
			l-15.6-26.1c-1.5-2.5-2.8-5.3-4.6-8.9h-0.2c0.2,4.8,0.2,8.9,0.2,13.1l0.1,22h-5.4V344.3z"/>
		<path class="st0" d="M445.1,344.3h5.5v43.2h-5.5V344.3z"/>
		<path class="st0" d="M499.1,387.5l-4.5-12.8h-16.1l-4.6,12.8h-5.7c5.2-14.4,10.8-30,15.7-43.2h6.1c4.7,13.2,10.1,28.8,15.1,43.2
			H499.1z M489.9,359.7c-1.5-4.4-2.3-7.4-3-9.6h-0.1c-0.6,2.2-1.6,5.1-3.1,9.6l-3.7,10.5c2.1-0.1,4.7-0.1,6.7-0.1
			c2.1,0,4.7,0,6.7,0.1L489.9,359.7z"/>
	</g>
</g>
</svg>
