<?xml version="1.0" encoding="utf-8"?>
<!-- Generator: Adobe Illustrator 22.0.1, SVG Export Plug-In . SVG Version: 6.00 Build 0)  -->
<svg version="1.1" id="Camada_1" xmlns="http://www.w3.org/2000/svg" xmlns:xlink="http://www.w3.org/1999/xlink" x="0px" y="0px"
	 viewBox="0 0 600 600" style="enable-background:new 0 0 600 600;" xml:space="preserve">
<style type="text/css">
	.st0{fill:#FFFFFF;}
</style>
<g>
	<g>
		<path class="st0" d="M216.1,306.2c-4.5-2.8-5.9-8.9-3-13.4l0,0c2.8-4.5,8.8-5.8,13.3-3l0,0c4.5,2.9,5.9,8.9,3,13.4l0,0
			c-0.4,0.6-0.8,1.2-1.3,1.7l0,0C225,308.1,220,308.7,216.1,306.2z"/>
		<path class="st0" d="M188.3,264.5c-4.5-2.9-5.9-8.9-3-13.4l0,0c2.8-4.5,8.8-5.8,13.3-3l0,0c4.5,2.9,5.9,8.9,3,13.4l0,0
			c-0.4,0.6-0.8,1.2-1.3,1.7l0,0C197.2,266.4,192.2,267,188.3,264.5z"/>
		<path class="st0" d="M180,217.3c-4.5-2.9-5.9-8.9-3-13.4l0,0c2.8-4.5,8.8-5.8,13.3-3l0,0c4.5,2.9,5.9,8.9,3,13.4l0,0
			c-0.4,0.6-0.8,1.2-1.3,1.7l0,0C188.9,219.1,183.9,219.8,180,217.3z"/>
		<path class="st0" d="M188.3,167.3c-4.5-2.9-5.9-8.9-3-13.4l0,0c2.8-4.5,8.8-5.8,13.3-3l0,0c4.5,2.9,5.9,8.9,3,13.4l0,0
			c-0.4,0.6-0.8,1.2-1.3,1.7l0,0C197.2,169.1,192.2,169.7,188.3,167.3z"/>
		<path class="st0" d="M216.1,128.4c-4.5-2.9-5.9-8.9-3-13.4l0,0c2.8-4.5,8.8-5.8,13.3-3l0,0c4.5,2.9,5.9,8.9,3,13.4l0,0
			c-0.4,0.6-0.8,1.2-1.3,1.7l0,0C225,130.2,220,130.8,216.1,128.4z"/>
		<path class="st0" d="M391.2,128.4c-4.5-2.9-5.9-8.9-3-13.4l0,0c2.8-4.5,8.8-5.8,13.3-3l0,0c4.5,2.9,5.9,8.9,3,13.4l0,0
			c-0.4,0.6-0.8,1.2-1.3,1.7l0,0C400,130.2,395.1,130.8,391.2,128.4z"/>
		<path class="st0" d="M419,170c-4.5-2.9-5.9-8.9-3-13.4l0,0c2.8-4.5,8.8-5.8,13.3-3l0,0c4.5,2.9,5.9,8.9,3,13.4l0,0
			c-0.4,0.6-0.8,1.2-1.3,1.7l0,0C427.8,171.9,422.9,172.5,419,170z"/>
		<path class="st0" d="M427.3,217.3c-4.5-2.9-5.9-8.9-3-13.4l0,0c2.8-4.5,8.8-5.8,13.3-3l0,0c4.5,2.9,5.9,8.9,3,13.4l0,0
			c-0.4,0.6-0.8,1.2-1.3,1.7l0,0C436.2,219.1,431.2,219.8,427.3,217.3z"/>
		<path class="st0" d="M419,264.5c-4.5-2.9-5.9-8.9-3-13.4l0,0c2.8-4.5,8.8-5.8,13.3-3l0,0c4.5,2.9,5.9,8.9,3,13.4l0,0
			c-0.4,0.6-0.8,1.2-1.3,1.7l0,0C427.8,266.4,422.9,267,419,264.5z"/>
		<path class="st0" d="M394,306.2c-4.5-2.8-5.9-8.9-3-13.4l0,0c2.8-4.5,8.8-5.8,13.3-3l0,0c4.5,2.9,5.9,8.9,3,13.4l0,0
			c-0.4,0.6-0.8,1.2-1.3,1.7l0,0C402.8,308.1,397.8,308.7,394,306.2z"/>
		<path class="st0" d="M352.3,334c-4.5-2.9-5.9-8.9-3-13.4l0,0c2.8-4.5,8.8-5.8,13.3-3l0,0c4.5,2.9,5.9,8.9,3,13.4l0,0
			c-0.4,0.6-0.8,1.2-1.3,1.7l0,0C361.1,335.8,356.2,336.5,352.3,334z"/>
		<path class="st0" d="M302.3,342.3c-4.5-2.9-5.9-8.9-3-13.4l0,0c2.8-4.5,8.8-5.8,13.3-3l0,0c4.5,2.9,5.9,8.9,3,13.4l0,0
			c-0.4,0.6-0.8,1.2-1.3,1.7l0,0C311.1,344.2,306.1,344.8,302.3,342.3z"/>
		<path class="st0" d="M255,334c-4.5-2.9-5.9-8.9-3-13.4l0,0c2.8-4.5,8.8-5.8,13.3-3l0,0c4.5,2.9,5.9,8.9,3,13.4l0,0
			c-0.4,0.6-0.8,1.2-1.3,1.7l0,0C263.9,335.8,258.9,336.5,255,334z"/>
		<path class="st0" d="M240.8,280.8c-3.5-2.2-4.5-6.8-2.3-10.3l0,0c2.2-3.5,6.8-4.5,10.2-2.3l0,0c3.5,2.2,4.5,6.8,2.3,10.3l0,0
			c-0.3,0.5-0.6,0.9-1,1.3l0,0C247.6,282.3,243.8,282.8,240.8,280.8z"/>
		<path class="st0" d="M220.4,250.3c-3.5-2.2-4.5-6.8-2.3-10.3l0,0c2.2-3.5,6.8-4.5,10.2-2.3l0,0c3.5,2.2,4.5,6.8,2.3,10.3l0,0
			c-0.3,0.5-0.6,0.9-1,1.3l0,0C227.2,251.7,223.4,252.2,220.4,250.3z"/>
		<path class="st0" d="M214.3,215.6c-3.5-2.2-4.5-6.8-2.3-10.3l0,0c2.2-3.5,6.8-4.5,10.2-2.3l0,0c3.5,2.2,4.5,6.8,2.3,10.3l0,0
			c-0.3,0.5-0.6,0.9-1,1.3l0,0C221.1,217,217.3,217.5,214.3,215.6z"/>
		<path class="st0" d="M220.4,178.9c-3.5-2.2-4.5-6.8-2.3-10.3l0,0c2.2-3.5,6.8-4.5,10.2-2.3l0,0c3.5,2.2,4.5,6.8,2.3,10.3l0,0
			c-0.3,0.5-0.6,0.9-1,1.3l0,0C227.2,180.3,223.4,180.8,220.4,178.9z"/>
		<path class="st0" d="M240.8,150.4c-3.5-2.2-4.5-6.8-2.3-10.3l0,0c2.2-3.5,6.8-4.5,10.2-2.3l0,0c3.5,2.2,4.5,6.8,2.3,10.3l0,0
			c-0.3,0.5-0.6,0.9-1,1.3l0,0C247.6,151.8,243.8,152.3,240.8,150.4z"/>
		<path class="st0" d="M369.2,150.4c-3.5-2.2-4.5-6.8-2.3-10.3l0,0c2.2-3.5,6.8-4.5,10.3-2.3l0,0c3.5,2.2,4.5,6.8,2.3,10.3l0,0
			c-0.3,0.5-0.6,0.9-1,1.3l0,0C376.1,151.8,372.2,152.3,369.2,150.4z"/>
		<path class="st0" d="M389.6,180.9c-3.5-2.2-4.5-6.8-2.3-10.3l0,0c2.2-3.5,6.8-4.5,10.2-2.3l0,0c3.5,2.2,4.5,6.8,2.3,10.3l0,0
			c-0.3,0.5-0.6,0.9-1,1.3l0,0C396.5,182.4,392.6,182.8,389.6,180.9z"/>
		<path class="st0" d="M395.7,215.6c-3.5-2.2-4.5-6.8-2.3-10.3l0,0c2.2-3.5,6.8-4.5,10.2-2.3l0,0c3.5,2.2,4.5,6.8,2.3,10.3l0,0
			c-0.3,0.5-0.6,0.9-1,1.3l0,0C402.6,217,398.7,217.5,395.7,215.6z"/>
		<path class="st0" d="M389.6,250.3c-3.5-2.2-4.5-6.8-2.3-10.3l0,0c2.2-3.5,6.8-4.5,10.2-2.3l0,0c3.5,2.2,4.5,6.8,2.3,10.3l0,0
			c-0.3,0.5-0.6,0.9-1,1.3l0,0C396.5,251.7,392.6,252.2,389.6,250.3z"/>
		<path class="st0" d="M371.3,280.8c-3.5-2.2-4.5-6.8-2.3-10.3l0,0c2.2-3.5,6.8-4.5,10.2-2.3l0,0c3.5,2.2,4.5,6.8,2.3,10.3l0,0
			c-0.3,0.5-0.6,0.9-1,1.3l0,0C378.1,282.3,374.3,282.8,371.3,280.8z"/>
		<path class="st0" d="M340.7,301.2c-3.5-2.2-4.5-6.8-2.3-10.3l0,0c2.2-3.5,6.8-4.5,10.3-2.3l0,0c3.5,2.2,4.5,6.8,2.3,10.3l0,0
			c-0.3,0.5-0.6,0.9-1,1.3l0,0C347.5,302.7,343.7,303.1,340.7,301.2z"/>
		<path class="st0" d="M304,307.4c-3.5-2.2-4.5-6.8-2.3-10.3l0,0c2.2-3.5,6.8-4.5,10.2-2.3l0,0c3.5,2.2,4.5,6.8,2.3,10.3l0,0
			c-0.3,0.5-0.6,0.9-1,1.3l0,0C310.8,308.8,307,309.3,304,307.4z"/>
		<path class="st0" d="M269.3,301.2c-3.5-2.2-4.5-6.8-2.3-10.3l0,0c2.2-3.5,6.8-4.5,10.3-2.3l0,0c3.5,2.2,4.5,6.8,2.3,10.3l0,0
			c-0.3,0.5-0.6,0.9-1,1.3l0,0C276.2,302.7,272.3,303.1,269.3,301.2z"/>
		<g>
			<g>
				<g>
					<path class="st0" d="M275.4,218.4c1.7,0,3.3,1,3.9,2.7c0.7,1.8,1.5,3.5,2.5,5.1c5.6,9.4,15.4,14.9,26.3,14.9
						c2.3,0,4.2,1.9,4.2,4.2c0,2.3-1.9,4.2-4.2,4.2c-13.6,0-26.5-7.3-33.5-19c-1.2-2.1-2.3-4.3-3.1-6.6c-0.8-2.2,0.3-4.6,2.5-5.4
						C274.5,218.5,274.9,218.4,275.4,218.4z"/>
				</g>
			</g>
			<path class="st0" d="M277.2,210.5c0,2.3-1.9,4.2-4.2,4.2c-2.3,0-4.2-1.9-4.2-4.2c0-2.3,1.9-4.2,4.2-4.2
				C275.3,206.3,277.2,208.2,277.2,210.5z"/>
			<g>
				<path class="st0" d="M354,180.7l-2.2-3.2h-0.1c-2.1-3-4.3-5.8-6.4-8.4l-5.6,4.4c2.3,2.9,4.6,5.8,6.8,9.1l1.4,2h0
					c5,7.6,7.6,16.5,7.6,26c0,26.1-21.2,47.3-47.3,47.3c-26.1-0.1-47.2-21.3-47.2-47.3c0-9.4,2.6-18.3,7.6-26h0.1l1.3-2
					c2.2-3.3,4.5-6.2,6.9-9.1c5.9-7.4,11.5-14.4,11.5-23.7c0-0.1,0-2.8,0-3.1c0.1-6,2.5-8.2,8.7-8.2H309h10.7c6.2,0,8.6,2.2,8.7,8.1
					v3.2c0,9.4,5.6,16.3,11.5,23.7c0,0,0,0,0,0l5.5-4.5c-5.5-6.9-9.9-12.4-9.9-19.3l0-3.3c-0.2-9.7-5.8-15.1-15.8-15.1h-22.5
					c-12.8,0-15.6,8.2-15.8,15.1l0,3.2c0,6.8-4.6,12.6-9.9,19.3c-2.3,2.9-4.4,5.5-6.5,8.5H265l-2.1,3.2c-5.8,8.8-8.8,19.1-8.8,29.9
					c0,30,24.4,54.4,54.3,54.5h0h0c30-0.1,54.4-24.5,54.4-54.4C362.8,199.8,359.7,189.5,354,180.7z"/>
			</g>
			<path class="st0" d="M327.2,111.9l-36.7,0c-1.8,0-3.2,1.9-3.2,4.1c0,2.3,1.4,4.2,3.2,4.2l36.7,0c1.8,0,3.2-1.9,3.2-4.1
				C330.4,113.7,328.9,111.9,327.2,111.9z"/>
			<path class="st0" d="M327.2,94.8l-36.7,0c-1.8,0-3.2,1.9-3.2,4.1c0,2.3,1.4,4.2,3.2,4.2l36.7,0c1.8,0,3.2-1.9,3.2-4.2
				C330.4,96.7,328.9,94.8,327.2,94.8z"/>
		</g>
	</g>
	<g>
		<g>
			<path class="st0" d="M129.6,430.8c-4,3.6-9,6.5-16.6,6.5c-14.8,0-20.4-13.8-20.4-26.8c0-12.8,6.3-25.5,20.5-25.5
				c6.5,0,11,1.6,15.1,4.1l-3.2,4.9c-3.2-2.3-7-3.5-11.4-3.5c-10.7,0-14.2,11.2-14.2,20c0,8.7,3.2,21.3,14.5,21.3
				c4.7,0,8.9-2,12.4-5.2L129.6,430.8z"/>
			<path class="st0" d="M144.3,386.2h6.4v50.2h-6.4V386.2z"/>
			<path class="st0" d="M168.9,386.2h6.3v33.4c0,11.4,6.5,12.5,12.3,12.5c8.6,0,11.5-4.7,11.5-9.9v-35.9h6.3v35.4
				c0,9.6-7.4,15.6-18.1,15.6c-9.3,0-18.4-2.4-18.4-17.9V386.2z"/>
			<path class="st0" d="M223.7,386.2h14.9c3.4,0,21.5,0,21.5,25.1c0,25.1-18.1,25.1-21.5,25.1h-14.9V386.2z M235.9,431
				c7,0,17.5-0.1,17.5-19.7c0-19.4-10.5-19.7-17.5-19.7H230V431H235.9z"/>
			<path class="st0" d="M306,436.4l-5.2-14.9h-18.7l-5.3,14.9h-6.6c6-16.8,12.6-34.9,18.2-50.3h7.1c5.4,15.4,11.7,33.5,17.5,50.3
				H306z M295.3,404c-1.7-5.2-2.7-8.6-3.5-11.1h-0.2c-0.8,2.5-1.8,6-3.6,11.1l-4.3,12.3c2.5-0.1,5.4-0.1,7.8-0.1
				c2.4,0,5.5,0,7.8,0.1L295.3,404z"/>
			<path class="st0" d="M326.9,386.2h14.9c3.4,0,21.5,0,21.5,25.1c0,25.1-18.1,25.1-21.5,25.1h-14.9V386.2z M339.1,431
				c7,0,17.5-0.1,17.5-19.7c0-19.4-10.5-19.7-17.5-19.7h-5.9V431H339.1z"/>
			<path class="st0" d="M409.2,436.4l-5.2-14.9h-18.7l-5.3,14.9h-6.6c6-16.8,12.6-34.9,18.2-50.3h7.1c5.4,15.4,11.7,33.5,17.5,50.3
				H409.2z M398.5,404c-1.7-5.2-2.7-8.6-3.5-11.1h-0.2c-0.8,2.5-1.8,6-3.6,11.1l-4.3,12.3c2.5-0.1,5.4-0.1,7.8-0.1
				c2.4,0,5.5,0,7.8,0.1L398.5,404z"/>
			<path class="st0" d="M430.1,386.2h7.3l18.1,30.4c1.7,2.7,3.6,6.4,5,10h0.2c-0.2-5.7-0.2-10.3-0.2-15.2v-25.2h6.2v50.2h-7.1
				L441.6,406c-1.7-2.9-3.3-6.1-5.3-10.4H436c0.2,5.5,0.2,10.4,0.2,15.2l0.1,25.5h-6.2V386.2z"/>
			<path class="st0" d="M482.6,410.5c0-13,6.5-25.6,21-25.6c14.5,0,21.2,12.6,21.2,25.6c0,12.9-5.8,26.7-21.2,26.7
				C488.3,437.2,482.6,423.4,482.6,410.5z M518,410.5c0-8.9-3.5-20.2-14.5-20.2c-10.8,0-14.4,11.4-14.4,20.2
				c0,8.6,3.3,21.5,14.4,21.5C514.8,432,518,419.1,518,410.5z"/>
			<path class="st0" d="M99.3,467.3h6.3v50.2h-6.3V467.3z"/>
			<path class="st0" d="M119.3,467.3h7.2l17.8,30.4c1.6,2.7,3.5,6.4,4.9,10h0.2c-0.1-5.7-0.2-10.3-0.2-15.2v-25.2h6.1v50.2h-6.9
				l-17.8-30.3c-1.7-2.9-3.2-6.1-5.2-10.4h-0.2c0.2,5.5,0.2,10.4,0.2,15.2l0.1,25.5h-6.1V467.3z"/>
			<path class="st0" d="M179.9,472.8c-7.5,0.1-15.1,0.1-15.9,0.1v-5.6h37.9v5.6c-0.7,0-8.2,0-15.8-0.1v44.7h-6.2V472.8z"/>
			<path class="st0" d="M210.8,467.3h29.3v5.7c-0.7,0-15.4,0-23.1-0.1c0,0.7,0,12.1-0.1,15.8c7.1-0.1,19.8-0.1,20.5-0.1v5.4
				c-0.7,0-13.4,0-20.5-0.1c0.1,7.9,0.1,17.2,0.1,17.9c8-0.1,23.1-0.1,23.8-0.1v5.7h-30V467.3z"/>
			<path class="st0" d="M251.7,467.3h6.2c0,0.7-0.1,37.5-0.1,44.7c8-0.1,20.4-0.1,21.1-0.1v5.7h-27.2V467.3z"/>
			<path class="st0" d="M290.5,467.3h6.3v50.2h-6.3V467.3z"/>
			<path class="st0" d="M333.6,518.1c-16.2,0-24.7-10.6-24.7-26.4c0-14.5,7.2-25.6,22.5-25.6c4.7,0,9.6,1.1,13.9,3.3l-2.6,5.1
				c-3-1.8-7.7-2.9-12-2.9c-11.1,0-15.3,9.1-15.3,20.1c0,12.3,5.3,21.2,18.5,21.2c2.4,0,4.5-0.1,6.3-1c0-0.6,0-7.9,0.1-17.9
				c-6.1,0.1-7.6,0.1-8.3,0.1v-5.5h14.4V516C343.5,517.3,338.6,518.1,333.6,518.1z"/>
			<path class="st0" d="M360.3,467.3h29.3v5.7c-0.7,0-15.4,0-23.1-0.1c0,0.7,0,12.1-0.1,15.8c7.1-0.1,19.8-0.1,20.5-0.1v5.4
				c-0.7,0-13.4,0-20.5-0.1c0.1,7.9,0.1,17.2,0.1,17.9c8-0.1,23.1-0.1,23.8-0.1v5.7h-30V467.3z"/>
			<path class="st0" d="M401.2,467.3h7.2l17.8,30.4c1.6,2.7,3.5,6.4,4.9,10h0.2c-0.1-5.7-0.2-10.3-0.2-15.2v-25.2h6.1v50.2h-6.9
				l-17.8-30.3c-1.7-2.9-3.2-6.1-5.2-10.4h-0.2c0.2,5.5,0.2,10.4,0.2,15.2l0.1,25.5h-6.1V467.3z"/>
			<path class="st0" d="M461.9,472.8c-7.5,0.1-15.1,0.1-15.9,0.1v-5.6h37.9v5.6c-0.7,0-8.2,0-15.8-0.1v44.7h-6.2V472.8z"/>
			<path class="st0" d="M494.9,467.3h29.3v5.7c-0.7,0-15.4,0-23.1-0.1c0,0.7,0,12.1-0.1,15.8c7.1-0.1,19.8-0.1,20.5-0.1v5.4
				c-0.7,0-13.4,0-20.5-0.1c0.1,7.9,0.1,17.2,0.1,17.9c8-0.1,23.1-0.1,23.8-0.1v5.7h-30V467.3z"/>
		</g>
	</g>
</g>
</svg>
