<?xml version="1.0" encoding="utf-8"?>
<!-- Generator: Adobe Illustrator 22.0.1, SVG Export Plug-In . SVG Version: 6.00 Build 0)  -->
<svg version="1.1" id="Camada_1" xmlns="http://www.w3.org/2000/svg" xmlns:xlink="http://www.w3.org/1999/xlink" x="0px" y="0px"
	 viewBox="0 0 600 600" style="enable-background:new 0 0 600 600;" xml:space="preserve">
<style type="text/css">
	.st0{fill:#FFFFFF;}
</style>
<g>
	<path class="st0" d="M141.9,317.6c-3.6,0-7,0-10.4,0c0-3.8,0-7.5,0-11.3c7.9,0,15.8,0,23.9,0c0,0.6,0,1.2,0,1.8
		c0,9.4,0,18.8,0,28.1c0,1.3-0.4,2.2-1.5,2.9c-11,6.8-22.6,7.6-34.4,2.8c-7.3-3-12-8.8-14.4-16.3c-3.6-11-3.7-22.2,0-33.2
		c3.8-11.3,12.2-17.3,23.9-18.9c7.7-1,15,0,22,3.4c1.3,0.6,1.8,1.3,1.8,2.8c-0.1,4.2,0,8.4,0,13c-0.7-0.7-1.2-1.2-1.7-1.6
		c-5.7-5.1-12.3-6.7-19.7-5.2c-5.2,1.1-8.6,4.4-10.5,9.2c-2.1,5.4-2.4,11.1-2.1,16.8c0.2,4.1,0.8,8.1,2.5,11.8
		c3.4,7.3,11.2,10.7,18.9,8.1c1.4-0.5,2-1.1,2-2.6C141.8,325.4,141.9,321.6,141.9,317.6z"/>
	<path class="st0" d="M168.2,343.6c0-23.2,0-46.1,0-69.1c0.4-0.1,0.8-0.1,1.2-0.1c7,0,14.1-0.2,21.1,0.1c3.4,0.1,6.8,0.8,10,1.9
		c6,2.1,9,6.7,9.6,13c0.2,2.1,0.2,4.4-0.1,6.5c-1,6.2-4.7,9.9-11.3,11c0.7,0.2,1,0.3,1.3,0.4c8.2,1.6,12.1,7.4,12.5,15.9
		c0.1,2.1,0,4.2-0.3,6.3c-0.9,7.1-5.2,11.4-12,13.1c-2.3,0.6-4.6,0.8-7,1.1c-1.4,0.2-2.8,0.1-4.1,0.1
		C182.1,343.6,175.3,343.6,168.2,343.6z M180.5,332.7c4.4-0.2,8.6-0.2,12.8-0.7c3.2-0.3,5.5-2.3,5.8-5.5c0.3-2.7,0.2-5.5-0.2-8.2
		c-0.4-2.7-2.3-4.8-5-5.1c-4.4-0.6-8.9-0.7-13.4-1.1C180.5,319.3,180.5,325.8,180.5,332.7z M180.5,301.6c4.1-0.2,8.1-0.2,11.9-0.6
		c2.5-0.2,4.4-1.8,4.7-4.3c0.3-2.2,0.2-4.6-0.1-6.8c-0.3-1.9-1.7-3.2-3.6-3.8c-4.3-1.4-8.6-0.5-13-0.7
		C180.5,290.8,180.5,296,180.5,301.6z"/>
	<path class="st0" d="M303.3,306.7c1,0.3,1.5,0.4,2,0.6c6.6,1.5,10.4,5.7,11.4,12.2c0.5,2.9,0.6,5.9,0.3,8.8
		c-1,8.4-5.4,12.9-13.9,14.4c-2.7,0.5-5.5,0.8-8.2,0.8c-7.2,0.1-14.4,0-21.8,0c0-23.1,0-46.1,0-69.3c1.1,0,2.1,0,3.2,0
		c7.7,0.1,15.5-0.1,23.2,0.5c6.9,0.5,12.6,3.7,14.7,11c1.2,3.9,1.1,7.9,0.1,11.9C312.8,302.9,309.1,305.7,303.3,306.7z M285.2,332.2
		c4.2,0,8.3,0.3,12.3-0.1c4-0.3,6-2.5,6.6-6.2c1-5.8-0.5-10.4-3.8-12.1c-0.4-0.2-0.8-0.4-1.3-0.5c-4.6-1.4-9.2-0.6-13.8-0.8
		C285.2,319.3,285.2,325.7,285.2,332.2z M285.2,301.4c3.4,0,6.6,0.1,9.8,0c5.1-0.3,7.1-2.6,7.3-7.6c0-0.8-0.1-1.6-0.2-2.4
		c-0.4-3.1-2-5.2-5.2-5.6c-3.9-0.5-7.8-0.4-11.8-0.6C285.2,290.8,285.2,296,285.2,301.4z"/>
	<path class="st0" d="M375.1,343.6c-4.4,0-8.6,0.1-12.7-0.1c-0.6,0-1.6-0.8-1.9-1.5c-2.7-6-5.3-12-7.9-18c-0.4-0.8-0.8-1.7-1.2-2.5
		c-2.7-4.9-4.9-6.1-10.8-5.4c0,9,0,18.1,0,27.3c-4.3,0-8.4,0-12.6,0c0-23,0-45.9,0-68.9c0.1-0.1,0.2-0.2,0.3-0.2
		c7.9,0.1,15.8-0.3,23.6,0.3c12.3,1,17.7,7.5,17.4,20c-0.1,1.9-0.3,3.8-0.7,5.6c-1.3,5.6-4.7,8.7-11.2,10.4c3.3,1.6,4.6,4.7,6,7.6
		C367.3,326.6,371.1,334.9,375.1,343.6z M340.7,304.6c2.4,0,4.6,0,6.8,0c1,0,2-0.2,2.9-0.4c3.4-0.7,5.4-3,5.6-6.7
		c0.3-4,0.7-8.1-3.6-10.6c-0.2-0.1-0.5-0.2-0.7-0.3c-3.6-1.2-7.3-0.7-11.1-0.8C340.7,292.1,340.7,298.2,340.7,304.6z"/>
	<path class="st0" d="M433.5,343.5c-4.9,0-9.5,0-14.3,0c-1.5-5.6-3-11.2-4.5-16.8c-6.4,0-12.7,0-19.1,0c-1.3,5-2.6,9.9-3.8,14.8
		c-0.4,1.5-0.9,2.1-2.6,2.1c-4-0.2-8-0.1-12.3-0.1c0.7-2.5,1.3-4.9,2-7.2c5.6-20,11.3-40.1,16.9-60.1c0.4-1.5,1-2,2.7-2
		c5.1,0.1,10.2,0,15.5,0C420.5,297.3,427,320.3,433.5,343.5z M412,315.1c-2.2-9.2-4.4-18.3-6.6-27.4c-0.1,0-0.3,0-0.4,0.1
		c-2.2,9.1-4.3,18.2-6.5,27.4C403.1,315.1,407.5,315.1,412,315.1z"/>
	<path class="st0" d="M438.1,325.9c1.5,1,2.6,1.8,3.7,2.5c4.7,3,9.7,5,15.3,4.9c4.9,0,8.2-2.3,9.1-6.2c1-4.5-0.9-8.6-5.2-10.8
		c-2.9-1.4-5.9-2.5-8.8-3.9c-2.6-1.3-5.2-2.7-7.7-4.4c-4-2.6-6-6.6-6.4-11.2c-0.2-3.2-0.2-6.6,0.5-9.8c1.8-8.2,8.3-13.3,17.3-13.9
		c6.4-0.4,12.5,0.9,18.3,3.7c0.5,0.3,1.2,1,1.2,1.5c0.1,4,0.1,8,0.1,12.4c-1-0.7-1.8-1.3-2.6-1.8c-5.1-3.2-10.6-5.3-16.8-4.1
		c-3.3,0.6-5.4,2.6-5.9,5.5c-0.6,3.6,0.4,6.1,3.4,7.9c1.4,0.9,3,1.6,4.5,2.3c2.1,1,4.3,1.9,6.5,2.7c13.2,5.2,16.5,16,13.3,28.7
		c-1.9,7.6-7.7,11-15.1,12.2c-8.1,1.3-15.8,0.1-23.2-3.4c-1.2-0.5-1.6-1.2-1.6-2.5C438.2,334.3,438.1,330.3,438.1,325.9z"/>
	<path class="st0" d="M231.7,343.5c0-19.1,0-38.1,0-57.3c-5.4,0-10.7,0-16.1,0c0-4,0-7.9,0-11.8c14.9,0,29.8,0,44.8,0
		c0,3.8,0,7.6,0,11.6c-5.3,0-10.5,0-16.1,0c0,19.2,0,38.3,0,57.4C240.1,343.5,236.1,343.5,231.7,343.5z"/>
	<path class="st0" d="M65.7,274.4c4.1,0,8.1,0,12.2,0c0,19,0,37.8,0,56.9c7.2,0,14.3,0,21.4,0c0,4.1,0,8,0,12.1
		c-11.1,0-22.3,0-33.6,0C65.7,320.5,65.7,297.5,65.7,274.4z"/>
	<path class="st0" d="M515.3,274.4c4.1,0,8.1,0,12.2,0c0,19,0,37.8,0,56.9c7.2,0,14.3,0,21.4,0c0,4.1,0,8,0,12.1
		c-11.1,0-22.3,0-33.6,0C515.3,320.5,515.3,297.5,515.3,274.4z"/>
	<path class="st0" d="M488.1,273.6c4.7,0,9.3,0,13.9,0c0,23.7,0,47.3,0,71c-4.6,0-9.2,0-13.9,0C488.1,321,488.1,297.4,488.1,273.6z"
		/>
</g>
</svg>
