<?xml version="1.0" encoding="utf-8"?>
<!-- Generator: Adobe Illustrator 16.0.0, SVG Export Plug-In . SVG Version: 6.00 Build 0)  -->
<!DOCTYPE svg PUBLIC "-//W3C//DTD SVG 1.1//EN" "http://www.w3.org/Graphics/SVG/1.1/DTD/svg11.dtd">
<svg version="1.1" id="Layer_1" xmlns="http://www.w3.org/2000/svg" xmlns:xlink="http://www.w3.org/1999/xlink" x="0px" y="0px"
	 width="300px" height="300px" viewBox="0 0 300 300" enable-background="new 0 0 300 300" xml:space="preserve">
<g>
	<path fill="none" d="M54.964,222.5c-7.794-10.111-13.04-23.361-16.038-40.569c-4.053-14.786-6.041-29.229-5.375-41.826
		c0.524-10.013,2.397-19.654,5.429-28.784c6.699-29.603,23.965-54.935,50.382-69.809c17.206-9.694,41.542-22.619,62.897-22.619
		H33.425V285.11h88.21C95.87,280.674,71.526,254.187,54.964,222.5z"/>
	<path fill="none" d="M152.26,18.893c19.458,0,35.904,10.672,49.737,14.619c24.281,6.927,40.512,19.539,50.882,36.388
		c13.581,19.186,18.988,47.162,16.889,87.076c-2.269,43.153-26.559,102.652-64.516,119.9l-40.986,6.417l-42.63,1.817h148.571V18.893
		H152.26z"/>
	<path fill="#FFFFFF" d="M132.79,184.275c-2.922-2.618-7.961-2.217-12.597-0.3c0.303,3.524,0.102,9.369,0.505,12.391h0.101
		c3.122,0.203,6.95,0.505,10.177,0C136.215,195.257,136.516,187.097,132.79,184.275z"/>
	<path fill="#FFFFFF" d="M196.265,192.437c-1.008,5.137-1.211,10.879-0.91,16.52c0.607,4.635,0.607,9.769,1.916,14.203
		c2.62,5.337,11.185,5.943,15.217,1.31c2.518-3.123,1.611-3.525,2.014-9.169c0.103-2.617,0.205-5.035,0.205-5.234v-4.837
		l-0.205-6.848c0-0.101-0.303-3.525-0.402-5.743c-0.301-3.726-2.116-7.051-5.239-8.561c-2.621-1.008-5.742-0.202-7.858,1.409
		C198.581,187.399,197.069,189.717,196.265,192.437z"/>
	<path fill="#FFFFFF" d="M205.252,276.876c37.957-17.248,62.247-76.747,64.516-119.9c2.1-39.914-3.308-67.89-16.889-87.076
		c-10.37-16.849-26.601-29.46-50.882-36.388c-13.833-3.947-30.279-14.619-49.737-14.619c-21.355,0-45.692,12.925-62.897,22.619
		C62.946,56.386,45.68,81.718,38.98,111.321c-3.031,9.129-4.904,18.771-5.429,28.784c-0.666,12.598,1.321,27.04,5.375,41.826
		c2.998,17.208,8.244,30.458,16.038,40.569c16.562,31.687,40.906,58.174,66.671,62.61l42.63-1.817L205.252,276.876z
		 M225.486,180.652c0.908,2.01,1.31,4.126,1.612,6.242c0.302,3.326,0.302,6.651,0.203,9.977c-0.403,7.05,0,13.697-0.506,20.648
		c-0.101,1.106-0.199,2.217-0.303,3.321c-0.202,4.635-1.41,9.675-3.826,13.602c-2.321,3.223-6.248,5.138-10.382,6.146
		c-3.728,1.007-7.66,1.308-11.486,1.007c-5.542-0.508-10.884-1.713-13.301-7.052c-1.815-3.327-2.318-7.354-2.418-11.185
		c-0.405-10.473-1.107-21.052-0.504-31.626c0.099-6.042,1.209-12.493,5.339-17.226c0.707-0.705,1.511-1.31,2.319-1.814
		c8.865-4.431,21.259-4.027,29.12,1.814C223.271,176.222,224.681,178.335,225.486,180.652z M168.454,86.864l-0.1-0.101h0.1
		c4.133-0.102,10.179-0.706,14.211,0.503v0.102c-0.706,16.218-0.404,32.736,0.905,49.458c1.914,6.546,11.185,5.743,12.396-0.504
		c0.703-16.016,0.504-33.241,0.908-48.754c3.627-0.2,11.589-1.71,14.711,0.303c0.806,17.123,0.705,34.953-1.21,52.178
		c-1.108,8.763-6.853,15.712-16.525,16.622c-11.388,1.108-25.292-3.928-25.797-16.219
		C168.053,122.825,168.658,104.491,168.454,86.864z M119.79,85.858c15.621-0.705,41.717-1.211,41.717-0.606
		c0.607,4.634,0,9.569,0,14.304v0.1c-8.464,1.913-17.632,0.303-26.4,1.211h-0.303l-0.102,0.1c0.102,3.827-0.804,8.161,0.102,11.785
		l0.102,0.101c4.03,0.304,8.264,0.202,12.395,0.304v0.1c0.706,4.533,0.102,9.063,0.201,14c-4.131,1.108-10.782-0.099-12.192,1.108
		c-0.707,3.93-0.303,9.368,0,12.591l0.101,0.102c8.768,0,17.332,0.706,26.398,0.505v0.2c0.202,4.331,0.306,9.166-0.805,13.197
		c-13.603-0.103-28.417,0.806-41.314-0.202C119.589,131.389,118.381,109.027,119.79,85.858z M97.93,155.262
		c-0.505-11.485,0-24.175-1.414-35.56V119.6c-1.811,2.422-3.525,5.138-5.441,7.255c-2.417-1.21-3.325-7.255-7.152-6.449
		c-0.102,12.592-0.505,22.164,0.299,34.552c-4.23,0.703-9.775,0.303-14.106,0.303c-0.1,0-0.202-0.102-0.302-0.303
		c-0.503-1.815-0.503-14.204-0.102-68.701c3.628-1.005,9.271-0.3,13.705-0.501h0.103c2.517,2.721,3.627,6.144,5.64,9.267
		c0.305,0.303,0.404,0.303,0.606,0.303c2.619-2.821,4.433-6.65,6.954-9.771c4.633,0,10.58-0.505,14.913-0.402
		c-0.503,12.792,0.605,25.282-0.103,38.073l-0.299,32.136C107.2,154.856,101.255,155.362,97.93,155.262z M137.525,240.183h-0.101
		c-2.723-6.146-8.264-18.231-14.008-25.28l-0.202-0.302c-0.703,6.039,0.202,19.437,0.505,24.574
		c-4.535,1.812-16.223,0.91-17.534,1.11c0.904,0,0.203-63.663-0.707-70.412c7.459-1.11,16.729-2.417,26.503-1.408
		c15.92,0.903,26.198,18.232,17.836,32.233c-2.519,4.833-6.754,8.36-13.1,8.763h-0.405h-0.099v0.103
		c5.644,9.97,13.906,19.337,17.938,30.419h0.099C149.518,239.982,143.572,240.588,137.525,240.183z M159.79,240.687
		c2.016-24.176-1.612-49.055,0.806-71.521v-0.201c0.705-0.102,3.225,0.201,4.131,0.201c2.418,0.102,5.041,0.403,11.085,0.304h2.418
		v0.403c-0.1,23.069-1.51,46.94-0.1,69.906C176.013,241.995,162.509,239.882,159.79,240.687z"/>
</g>
</svg>
