<?xml version="1.0" encoding="utf-8"?>
<!-- Generator: Adobe Illustrator 22.0.1, SVG Export Plug-In . SVG Version: 6.00 Build 0)  -->
<svg version="1.1" id="Layer_1" xmlns="http://www.w3.org/2000/svg" xmlns:xlink="http://www.w3.org/1999/xlink" x="0px" y="0px"
	 viewBox="0 0 387 280" style="enable-background:new 0 0 387 280;" xml:space="preserve">
<style type="text/css">
	.st0{fill:#FFFFFF;}
</style>
<g>
	<path class="st0" d="M178.5,60.7c1.4,2,3.5,2.8,5.8,1.8c2.1-0.9,3.5-2.9,3.5-5.2c0-1.6-0.9-2.5-1.9-3.7c-2.2-2.5-5.3-2.3-7.5,0.1
		c-0.9,1-1.8,2-1.6,3.5C177,58.5,177.8,59.7,178.5,60.7z"/>
	<path class="st0" d="M168.2,120.4c-0.1,0.3-2.3,21.3-2.7,23.6c-0.4,2.3-1.9,11.5-1.9,11.5c-0.4,3.7,0.1,7.9,3,10.5
		c2.5,2.3,5.7,2.5,8.4,0.4c2.9-2.2,4.1-5.9,4.3-9.4c0.2-2.3,0.2-5.6-1.2-7.6c-1.7-2.5-1-5.6-1-5.6s3.7-22.1,4.4-29.7
		c0.7-7.7,1-9.8-4.5-13c-5.5-3.2-17.3,8.1-26.3,19.6c-9,11.5-19.8,24.8-22.2,27.7c-2.4,2.9-1.8-0.1-1-3.2c0.8-3.1,1.7-6.3,2.8-9.4
		c0.5-1.5,1.1-3.1,1.6-4.6c3-8,5.8-15.9,7.9-24.2c0.7-3,1.4-6.1,2.1-9.2c0.7-3,1.1-6.2-0.5-9.1c-0.9-1.6-2.4-3-4.1-3.6c0,0,0,0,0,0
		c-12.3-4.1-33.9,36.6-33.9,36.6c-0.2-6,4.5-28.4,4.5-28.4s3.3-11.2-5.3-13.5c-8.5-2.3-29.5,35-29.5,35C77,74.4,76,73.5,76.1,62.4
		c0.1-11.1-2.4-17.8-7.6-19.6c-5.2-1.8-10.2,5.7-10.2,5.7C54.5,54,51.4,60,48.7,66.1c-3.9,8.8-7.2,17.9-10,27.2
		c-2.3,7.3-4.3,14.7-6.1,22.2c-0.6,2.4-1.6,5.4-1.7,8.2c-0.1,2.6,0.4,5,2.8,6.6c2.4,1.6,5.1,0.4,6.8-1.7c1.3-1.6,2-3.7,2.4-5.8
		c0.4-2.4,0.5-4.8,1-7.2c0.6-3.1,1.2-6.2,1.9-9.3c2.1-9.2,4.8-18.3,8.4-27.1c0.6-1.5,1.2-2.9,1.9-4.3c0,0,3-6.9,4.8-10.7
		c0.4-0.9,0.7-1.7,1.1-2.3c0.5-0.8,0.9-1.3,1.3-1.2c0.9,0.2,0.9,5.1,1,5.9c0.2,2.4,0.2,4.9,0.2,7.3c0,3.9-0.2,7.7-0.4,11.6
		c-0.3,7.6-0.8,15.2-1.2,22.8c-0.4,6.6-1.1,13-2,19.6c-1.2,8.5-2.5,17-4,25.5c-0.6,3.3-1.2,6.7-2,10c-0.4,0-0.8,0-1.2,0
		c-14.3,0-24.6,8.4-24.6,21.2v0.2c0,13.9,9.1,17.9,23.3,21.5c11.7,3,14.1,5,14.1,8.9v0.2c0,4.1-3.8,6.6-10.1,6.6
		c-8,0-14.6-3.3-21-8.5l-9.1,10.9c8.4,7.5,19.2,11.2,29.8,11.2c15.1,0,25.8-7.8,25.8-21.8v-0.2c0-12.2-8-17.4-22.3-21.1
		c-12.1-3.1-15.1-4.6-15.1-9.2v-0.2c0-3.4,3.1-6.1,9-6.1c5.9,0,12,2.6,18.2,6.9l8-11.6c-4-3.2-8.5-5.6-13.4-7.1c0-0.1,0-0.3,0.1-0.4
		c0.3-1.5,0.7-3.1,1.1-4.6c0.8-3,1.6-6,2.5-9c1.7-5.4,3.6-10.8,5.8-16c3.3-7.9,7.1-15.6,11.4-23c1.7-2.9,3.6-5.6,5.1-8.5
		c2.2-4.1,1.4,1.4,1.4,1.7c0,0.3-2.2,23.7-5.8,42.1c-3.6,18.5,2.8,18.4,2.8,18.4c4.3,0.8,7.3-2.8,9-6.2c0.9-1.8,1.6-3.7,2.1-5.7
		c0.7-2.7,1.7-5.3,2.7-7.9c3.4-8.9,7-17.8,11.6-26.1c2.2-4,4.6-7.8,7.4-11.4c0.4-0.5,0.8-1.1,1.3-1.6c3.4-4.5,2.8-2.8,2.1,1.4
		c-0.6,4.1-2.7,8.9-9.5,29.7c-6.8,20.8,2.4,25.7,2.4,25.7s8,7.3,23.7-14.9c15.6-22.2,20.8-26.6,23.2-30.1
		C169,115.2,168.3,120.1,168.2,120.4z"/>
	<path class="st0" d="M236.3,104.9c-1.3-1.5-3.9-2.6-5.8-3c-2.5-0.5-4.9,0.7-7,1.7c-5.6,2.7-12,9.9-12,9.9s-1.3,2.3-1-1.3
		c0.4-4.3,1.3-8.4,1.5-12.7c0.1-2.7,0.1-5.4-0.4-8c-1.1-5.2-7-10.6-11.6-5.4c-2,2.3-2.9,5-1.9,7.9c0.1,0.3,0.2,0.7,0.3,1
		c0.6,2.4,0.3,4.5,0.2,7.1c-0.1,4.4-0.4,8.8-0.8,13.1c-1.6,16.6-5,33-9.4,49c0,0-3.4,9.7,2.4,12.4c5.8,2.8,9.7-5.3,10.9-10.3
		c1.3-5,7-38.3,22-50.1c0.4-0.4,1-0.9,1.6-0.9c1.5-0.1,1,2.1,1,2.9c0,2-0.2,4-0.3,6c-0.1,2-0.2,4-0.4,6c-0.3,4-0.7,8-1.4,12
		c-1,6.1-2.2,12.2-2.3,18.4c-0.1,4.6,5.1,11.7,10,7.6c1-0.9,1.6-2.1,1.9-3.3c0.5-2.3,0.2-4.4,0.3-6.7c0.1-2.5,0.3-5.1,0.6-7.6
		c0.6-6.2,1.3-12.5,2-18.7c0.3-2.3,0.5-4.5,0.8-6.8C238.3,118.9,240.9,110,236.3,104.9z"/>
	<path class="st0" d="M250.6,165c0-2.2,0.3-4.3,0.5-6.5c0.8-6.2,1.6-12.3,4.3-18.1c1.5-3.3,3.4-6.2,5.6-9c1.2-1.5,1.4-0.8,1.9,0.6
		c0.5,1.5,2.1,10.2,2.5,12.5c1.3,7,0.1,14.4,2.3,21.2c0.5,1.5,1.1,2.9,2,4.3c1.6,2.5,4.1,4.4,7.2,3.7c1.7-0.4,3.1-1.6,4.3-2.8
		c1.6-1.7,2.2-4.5,0.8-6.5c-0.8-1.2-2-2.1-2.4-3.5c-0.4-1.3-0.3-2.8-0.4-4.2c-0.2-3.2-0.5-6.4-0.8-9.6c-0.7-5.9-1.5-11.9-2.6-17.7
		c-1.3-6.5-5.6-11.9-9.9-12.4c-4.3-0.5-10.8,4.6-13.2,8.5c-1.6,2.6-1.4,0.1-1.2-1.4c0.4-3.1,0.6-6.3,1-9.4
		c0.8-6.6,1.8-13.1,2.9-19.6c1-6.3,2-12.6,3.1-18.9c0.8-4.6,1.6-9.1,2.8-13.5c0.5-1.7,1-3.4,1.5-5.1c1.1-3.4,2.2-6.7,3.4-10
		c1.7-5,4.5-9.7,2.7-15.1c-0.8-2.4-2.6-4.5-5.3-4.5c-3,0.1-5.2,2.5-6.5,5c-1.1,2-1.3,4.4-2,6.5c-0.6,1.8-1,3.6-1.5,5.5
		c-0.9,3.8-1.8,7.6-2.7,11.5c-1.8,8.2-3.4,16.4-4.8,24.7c-1.8,10.6-3.3,21.2-4.6,31.8c-1.2,10-2,20.1-2.5,30.2
		c-0.3,6.7-0.5,13.4-0.5,20c0,1.8-0.1,3.8,0.2,5.6c0.4,2.6,1.5,4.9,4.6,6c2.4,0.8,4.7-1.1,5.9-3.2
		C250.3,169.7,250.6,167.3,250.6,165z"/>
	<path class="st0" d="M313.5,142.8c0.1,0.2,0.2,0.6,2.9,6.8c2.7,6.2,8.5,13.2,9,13.9c0.5,0.6,6.5,6.7,12.5,7.4
		c5.9,0.7,8.4-1.5,9.9-3.4c1.5-1.9,0.7-3.2-1-5.1c-1.4-1.6-3.2-1.3-5.1-1.7c-1.5-0.4-3.1-2-4.2-3.1c-1.6-1.6-3.1-3.4-4.3-5.3
		c-5.1-8.4-8.9-18-9.8-27.9c-0.1-1.1-0.4-2.5,0-3.6c0.3-0.8,1-1.2,1.6-1.8c1-1,1.9-2,2.8-3.1c0,0,3.8-6.6-3-9.8
		c-6.8-3.2-14.1,9.6-15.1,10.9c-1,1.4-4.6,5.7-5.6,7.1c-1.1,1.4-6.1,5.3-12.3,19.1c-0.9,2-1.7,4.1-2.3,6.3c-0.7,2.7-1.2,6.1,0.3,8.7
		c0.3,0.5,0.8,1,1.2,1.5c1.8,1.7,4.6,2.7,6.8,1.8c2-0.8,3.5-2.4,5.1-3.9c2.8-2.5,7.9-13.1,8.8-15.2
		C312.8,140.5,313.5,142.6,313.5,142.8z"/>
	<path class="st0" d="M116,180.2c-9.1,0-14.9,1.7-20.9,4.3l3.8,11.6c4.9-1.8,9-2.9,14.8-2.9c7.6,0,11.5,3.5,11.5,9.8v0.9
		c-3.8-1.3-7.7-2.2-13.1-2.2c-12.7,0-21.7,5.4-21.7,17.2v0.2c0,10.6,8.3,16.4,18.5,16.4c7.4,0,12.5-2.7,16.2-6.8v5.8h14.7v-31.2
		c0-7.2-1.8-13.1-5.8-17.1C130.3,182.4,124.3,180.2,116,180.2z M125.5,215.6c0,5.5-4.8,9.4-11.9,9.4c-4.9,0-8.3-2.4-8.3-6.5v-0.2
		c0-4.8,4-7.4,10.5-7.4c3.7,0,7.1,0.8,9.7,2V215.6z"/>
	<path class="st0" d="M216.9,179.8c-7.3,0-12.9,3-17.6,8.5c-2.8-5.4-8.1-8.5-15.1-8.5c-7.7,0-12.3,4.1-15.8,8.6v-7.6h-15.2h0v53.8
		h15.2v-30c0-7.2,3.5-10.9,9.2-10.9c5.7,0,8.9,3.7,8.9,10.9v30h15.2v-30c0-7.2,3.5-10.9,9.2-10.9c5.7,0,8.9,3.7,8.9,10.9v30h15.2
		v-35C235.1,186.6,228.3,179.8,216.9,179.8z"/>
	<path class="st0" d="M280.3,179.8c-7.9,0-13,3.7-16.8,8.7v-7.7h-15.2v69.8h15.2v-23.1c3.6,4.3,8.6,8,16.8,8
		c12.7,0,24.5-9.8,24.5-27.8v-0.2C304.8,189.6,292.8,179.8,280.3,179.8z M289.5,207.8c0,9-6,14.8-13.1,14.8c-7.1,0-13-5.9-13-14.8
		v-0.2c0-8.9,5.9-14.8,13-14.8c7.1,0,13.1,5.9,13.1,14.8V207.8z"/>
	<path class="st0" d="M356.4,186.2c-3.8-3.8-9.8-6-18.1-6c-9.1,0-14.9,1.7-20.9,4.3l3.8,11.6c4.9-1.8,9-2.9,14.8-2.9
		c7.6,0,11.5,3.5,11.5,9.8v0.9c-3.8-1.3-7.7-2.2-13.1-2.2c-12.7,0-21.7,5.4-21.7,17.2v0.2c0,10.6,8.3,16.4,18.5,16.4
		c7.4,0,12.5-2.7,16.2-6.8v5.8h14.7v-31.2C362.2,196.1,360.4,190.2,356.4,186.2z M347.8,215.6c0,5.5-4.8,9.4-11.9,9.4
		c-4.9,0-8.3-2.4-8.3-6.5v-0.2c0-4.8,4-7.4,10.5-7.4c3.7,0,7.1,0.8,9.7,2V215.6z"/>
</g>
</svg>
