<?xml version="1.0" encoding="utf-8"?>
<!-- Generator: Adobe Illustrator 19.0.0, SVG Export Plug-In . SVG Version: 6.00 Build 0)  -->
<svg version="1.1" id="Camada_1" xmlns="http://www.w3.org/2000/svg" xmlns:xlink="http://www.w3.org/1999/xlink" x="0px" y="0px"
	 viewBox="116.1 198.9 357.8 343.6" style="enable-background:new 116.1 198.9 357.8 343.6;" xml:space="preserve">
<style type="text/css">
	.st0{fill:#FFFFFF;}
</style>
<g>
	<path class="st0" d="M331.2,445.3c3.2,0,5.1,2.1,5.1,5.3c0,2.8-1.5,4.8-4.2,5.3l4.7,9.2c0,0-0.1,0.1-0.2,0.1
		c-0.2,0-0.2-0.1-0.2-0.1l-4.7-9.2h-6.6v9.2c0,0-0.1,0.1-0.2,0.1s-0.2-0.1-0.2-0.1v-19.8H331.2z M325.1,455.5h6.1
		c2.8,0,4.6-1.8,4.6-4.9s-1.8-4.9-4.6-4.9h-6.1V455.5z"/>
	<path class="st0" d="M352,445.3c0.1,0.1,0.1,0.3,0,0.4h-10v9.2h8.7c0.1,0.1,0.1,0.3,0,0.4H342v9.5h10.3c0.1,0.1,0.1,0.3,0,0.4
		h-10.7v-19.9H352z"/>
	<path class="st0" d="M361.9,445.3c5.2,0,7.9,2.1,7.9,9.9s-2.8,9.9-7.9,9.9h-5v-19.9h5V445.3z M361.8,464.7c5,0,7.5-2,7.5-9.5
		s-2.4-9.5-7.5-9.5h-4.5v19H361.8z"/>
	<path class="st0" d="M385.4,445.3c0.1,0.1,0.1,0.3,0,0.4h-10v9.2h8.7c0.1,0.1,0.1,0.3,0,0.4h-8.7v9.5h10.3c0.1,0.1,0.1,0.3,0,0.4
		H375v-19.9H385.4z"/>
	<path class="st0" d="M326.9,498c0,0-0.5,0.2-1.4,0.2s-1.4-0.2-1.4-0.2v-19.7h11c0.1,0.3,0.2,0.7,0.2,1.1s-0.1,0.8-0.2,1.2h-8.2v6.7
		h7.2c0.1,0.3,0.2,0.7,0.2,1.1s-0.1,0.9-0.2,1.2h-7.2V498z"/>
	<path class="st0" d="M349.9,478.3c0.1,0.3,0.2,0.7,0.2,1.1s-0.1,0.9-0.2,1.2h-8.4v6.4h7c0.1,0.3,0.2,0.7,0.2,1.1s-0.1,0.8-0.2,1.2
		h-7v6.6h8.7c0.1,0.4,0.2,0.7,0.2,1.1s-0.1,0.8-0.2,1.2h-11.5v-19.9L349.9,478.3L349.9,478.3z"/>
	<path class="st0" d="M370.4,478.3c1.1,0,1.8,0.2,1.8,0.2V498c0,0-0.5,0.2-1.4,0.2s-1.4-0.2-1.4-0.2v-8.8c0-2.7-0.1-5.7,0.2-7.4
		h-0.1c-0.3,1.2-1.5,3.5-2.5,5.5l-3.2,6.1c0,0-0.4,0.1-0.9,0.1s-0.8-0.1-0.8-0.1l-3.2-6c-1-2-2.2-4.4-2.5-5.7h-0.1
		c0.3,1.4,0.3,4.2,0.3,6.9v9.2c0,0-0.4,0.2-1.3,0.2c-0.8,0-1.2-0.2-1.2-0.2v-19.5c0,0,0.7-0.2,1.7-0.2c0.9,0,1.7,0.2,1.7,0.2
		l3.6,6.9c0.8,1.6,1.6,3.3,1.9,4.3h0.1c0.2-0.6,0.5-1.4,1-2.5c1.5-2.9,3-5.8,4.5-8.7C369.1,478.4,369.8,478.3,370.4,478.3z"/>
	<path class="st0" d="M377.1,478.5c0,0,0.5-0.2,1.4-0.2c1,0,1.4,0.2,1.4,0.2V498c0,0-0.5,0.2-1.4,0.2c-1,0-1.4-0.2-1.4-0.2V478.5z"
		/>
	<path class="st0" d="M388.9,485.5c-1-1.8-1.6-3.6-1.6-3.6h-0.1c0,0,0.2,1.8,0.2,4.6V498c0,0-0.4,0.2-1.3,0.2s-1.3-0.2-1.3-0.2
		v-19.5c0,0,0.6-0.2,1.7-0.2s1.7,0.2,1.7,0.2L395,491c1,1.8,1.7,3.7,1.7,3.7h0.1c0,0-0.2-2-0.2-4.6v-11.5c0,0,0.4-0.2,1.3-0.2
		s1.3,0.2,1.3,0.2V498c0,0-0.5,0.2-1.6,0.2s-1.7-0.2-1.7-0.2L388.9,485.5z"/>
	<path class="st0" d="M404.1,478.5c0,0,0.5-0.2,1.4-0.2c1,0,1.4,0.2,1.4,0.2V498c0,0-0.5,0.2-1.4,0.2c-1,0-1.4-0.2-1.4-0.2V478.5z"
		/>
	<path class="st0" d="M417.6,478.1c3.3,0,5.4,0.8,5.4,0.8c0,0.8-0.2,1.7-0.8,2.2c0,0-1.9-0.6-4.2-0.6c-2.9,0-4.3,1.1-4.3,3.1
		c0,2.1,2.4,2.6,4.9,3.4c2.6,0.9,5.2,2.1,5.2,5.7c0,3.7-2.4,5.8-6.9,5.8c-3.6,0-6-1.2-6-1.2c0-0.7,0.2-1.6,0.7-2.2
		c0,0,2.6,0.9,5.2,0.9c2.8,0,4.2-1.1,4.2-3.1s-1.6-2.6-3.5-3.3c-2.9-1-6.5-1.7-6.5-5.8C410.9,480.3,413.1,478.1,417.6,478.1z"/>
	<path class="st0" d="M439.1,478.3c0,0,0.2,0.5,0.2,1.2s-0.2,1.2-0.2,1.2H434V498c0,0-0.5,0.2-1.4,0.2c-1,0-1.4-0.2-1.4-0.2v-17.2
		h-5.3c0,0-0.2-0.5-0.2-1.2s0.2-1.2,0.2-1.2L439.1,478.3L439.1,478.3z"/>
	<path class="st0" d="M447.5,478.3c1,0,1.7,0.2,1.7,0.2L456,498c0,0-0.5,0.2-1.5,0.2c-0.9,0-1.4-0.2-1.4-0.2l-1.7-4.9h-8.2l-1.7,4.9
		c0,0-0.5,0.2-1.4,0.2s-1.3-0.2-1.3-0.2l6.9-19.5C445.8,478.5,446.5,478.3,447.5,478.3z M447.3,481.4c0,0-0.2,1.1-0.7,2.5l-2.5,7
		h6.6l-2.5-7C447.6,482.4,447.4,481.4,447.3,481.4L447.3,481.4z"/>
	<path class="st0" d="M329.7,511.4c5.2,0,7.9,2.1,7.9,9.9s-2.8,9.9-7.9,9.9h-5v-19.9h5V511.4z M329.6,530.9c5,0,7.5-2,7.5-9.5
		s-2.4-9.5-7.5-9.5h-4.5v19H329.6z"/>
	<path class="st0" d="M353.3,511.4c0.1,0.1,0.1,0.3,0,0.4h-10v9.2h8.7c0.1,0.1,0.1,0.3,0,0.4h-8.7v9.5h10.3c0.1,0.1,0.1,0.3,0,0.4
		h-10.7v-19.9H353.3z"/>
	<path class="st0" d="M369.7,511.5c0,0,0.1-0.1,0.2-0.1s0.2,0.1,0.2,0.1v15.8c0,3-0.9,4.2-3.8,4.2c-2,0-3.7-0.8-3.7-0.8
		c0-0.2,0.1-0.3,0.2-0.4c0,0,1.5,0.8,3.6,0.8c2.3,0,3.3-0.9,3.3-3.8L369.7,511.5L369.7,511.5z"/>
	<path class="st0" d="M388.4,525.3c0,3.9-2.3,6.2-6.2,6.2c-3.9,0-6.2-2.3-6.2-6.2v-13.8c0,0,0.1-0.1,0.2-0.1c0.2,0,0.2,0.1,0.2,0.1
		v13.9c0,3.6,2.2,5.8,5.8,5.8s5.8-2.2,5.8-5.8v-13.9c0,0,0.1-0.1,0.2-0.1s0.2,0.1,0.2,0.1V525.3z"/>
	<path class="st0" d="M400.9,511.4c3.2,0,5.1,2.1,5.1,5.3c0,2.8-1.5,4.8-4.2,5.3l4.7,9.2c0,0-0.1,0.1-0.2,0.1
		c-0.2,0-0.2-0.1-0.2-0.1l-4.7-9.2h-6.6v9.2c0,0-0.1,0.1-0.2,0.1s-0.2-0.1-0.2-0.1v-19.8H400.9z M394.8,521.6h6.1
		c2.8,0,4.6-1.8,4.6-4.9c0-3.1-1.8-4.9-4.6-4.9h-6.1V521.6z"/>
	<path class="st0" d="M411.2,511.5c0,0,0.1-0.1,0.2-0.1s0.2,0.1,0.2,0.1v19.7c0,0-0.1,0.1-0.2,0.1s-0.2-0.1-0.2-0.1V511.5z"/>
	<path class="st0" d="M422.8,511.1c2.9,0,4.8,0.6,4.8,0.6c0,0.2,0,0.3-0.1,0.4c0,0-2.2-0.6-4.7-0.6c-3.8,0-5.7,1.9-5.7,4.7
		c0,3.3,2.3,4.1,5.4,4.8c2.8,0.7,5.8,1.6,5.8,5.3c0,3.2-2.4,5.2-6.3,5.2c-3.2,0-5.3-1-5.3-1c0-0.1,0.1-0.3,0.2-0.4c0,0,2.2,1,5,1
		c3.7,0,6-1.7,6-4.8c0-3.4-2.6-4.2-5.4-4.9c-3-0.7-5.8-1.6-5.8-5.2C416.7,513.1,418.9,511.1,422.8,511.1z"/>
	<path class="st0" d="M443.5,511.4c0,0,0.1,0,0.1,0.2s-0.1,0.2-0.1,0.2h-5.9v19.4c0,0-0.1,0.1-0.2,0.1s-0.2-0.1-0.2-0.1v-19.4h-6.1
		c0,0-0.1-0.1-0.1-0.2c0-0.2,0.1-0.2,0.1-0.2H443.5z"/>
	<path class="st0" d="M459.6,531.2c0,0-0.1,0.1-0.2,0.1s-0.2-0.1-0.2-0.1l-2.5-6.3h-10.2l-2.5,6.3c0,0-0.1,0.1-0.2,0.1
		s-0.2-0.1-0.2-0.1l8-19.9h0.1L459.6,531.2z M456.5,524.6l-5-12.3l-4.9,12.3H456.5z"/>
	<path class="st0" d="M468.4,511.1c2.9,0,4.8,0.6,4.8,0.6c0,0.2,0,0.3-0.1,0.4c0,0-2.2-0.6-4.7-0.6c-3.8,0-5.7,1.9-5.7,4.7
		c0,3.3,2.3,4.1,5.4,4.8c2.8,0.7,5.8,1.6,5.8,5.3c0,3.2-2.4,5.2-6.3,5.2c-3.2,0-5.3-1-5.3-1c0-0.1,0.1-0.3,0.2-0.4c0,0,2.2,1,5,1
		c3.7,0,6-1.7,6-4.8c0-3.4-2.6-4.2-5.4-4.9c-3-0.7-5.8-1.6-5.8-5.2C462.3,513.1,464.5,511.1,468.4,511.1z"/>
</g>
<g>
	<g>
		<path class="st0" d="M210.4,199.6c0,0-20.8,76,47.7,145.6C258.1,345.2,347.3,246.9,210.4,199.6z"/>
		<path class="st0" d="M258.1,345.9l-0.4-0.4c-35.5-36-46.6-73.8-49.7-99.2c-3.3-27.5,1.8-46.7,1.9-46.9l0.1-0.5l0.5,0.2
			c42.6,14.7,67.7,35.9,74.7,63c10.6,41.6-26.4,83-26.8,83.4L258.1,345.9z M210.7,200.3c-0.8,3.2-4.7,21.2-1.7,46
			c3.1,25.1,14,62.4,49,98.1c3.8-4.3,36.1-43.2,26.2-82.1C277.4,235.8,252.7,214.9,210.7,200.3z"/>
	</g>
	<g>
		<path class="st0" d="M239.9,438.2h-0.2c-0.1,0-14-1.8-29.9-10.3c-14.7-7.9-34.1-23.4-43.5-52.3l-0.2-0.5l0.5-0.2l90.9-30l0.4-0.6
			l0.4,0.2c0.2,0.1,16.3,9.7,18.3,28.9s-10.3,41-36.5,64.7L239.9,438.2z M167.4,375.7c17.4,52.5,68.4,60.9,72.2,61.5
			c25.8-23.4,37.9-44.8,36-63.6c-1.8-17-14.9-26.2-17.4-27.9l-0.1,0.1l-0.2,0.1L167.4,375.7z"/>
	</g>
	<g>
		<path class="st0" d="M240.7,437.1c0,0-49.9,36.4,16.6,104.4c0,0-132.7-39.3-90.3-165.3C166.9,376.1,179.9,427.3,240.7,437.1z"/>
		<path class="st0" d="M258.9,542.5l-1.8-0.5c-0.6-0.2-61.1-18.6-87.1-68.7c-14.6-28.1-15.8-60.8-3.5-97.2l0.5-1.6l0.4,1.6
			c0,0.1,3.4,12.9,14,26.6c9.8,12.7,28.1,28.9,59.3,33.9l1.2,0.2l-1,0.7c-0.2,0.1-15.8,11.8-17.6,33.7c-1.8,21.4,9.7,44.9,34.2,70
			L258.9,542.5z M166.9,377.8c-11.6,35.5-10.3,67.5,4,94.9c23.2,44.7,74.1,64,84.6,67.6c-23.8-24.7-34.9-48-33.1-69.3
			c1.6-19.3,13.7-30.8,17.1-33.6c-30.9-5.3-49-21.4-58.9-34.1C172,392.1,168.1,381.6,166.9,377.8z"/>
	</g>
	<g>
		<path class="st0" d="M271.1,443.4c-7.8,0-18-2-30.6-5.9l-0.9-0.3l0.7-0.6c0.2-0.2,24.6-21.5,32.2-42.8l1.1-2.8
			c0.1-0.3,11-26.6-15.9-45.5l-0.8-0.6l0.9-0.3c0.4-0.1,38-12.8,52.8,26.1l0.2,0.4l-0.4,0.2c-0.2,0.1-16.8,8.8-19,19.1
			c-0.7,3.2,0.2,6.2,2.4,9l0.2,0.3l-5.7,8.2l0.2,20.5c0.2,0.7,1.4,6.4-3,10.6C282.7,442,277.8,443.4,271.1,443.4z M241.7,436.8
			c28.1,8.7,39.1,5.6,43.4,1.5c4.1-4,2.7-9.6,2.7-9.6v-0.1l-0.2-20.9l5.5-7.9c-2.3-3-3.1-6.2-2.4-9.6c2.1-9.9,16.4-18.1,19.1-19.6
			c-13.2-34.2-44.5-27.1-50.4-25.4c26.5,19.4,15.5,45.9,15.4,46.1l-1.1,2.8C266.6,413.8,245.7,433.2,241.7,436.8z"/>
	</g>
	<g>
		<path class="st0" d="M162.7,376c-22.2-3.6-36.6-11.7-43-24.1c-8.4-16.2,0.4-34.3,0.5-34.5l0.1-0.2h0.3c15-2.3,26.7,0.6,34.7,8.6
			c16.6,16.5,12,49.4,11.9,49.8l-0.1,0.4H162.7z M121,318.1c-1,2.1-8,18.6-0.4,33.4c6.2,12.1,20.4,20,42.2,23.5h3.5
			c0.5-3.9,3.5-33.4-11.7-48.5C146.8,318.8,135.5,316,121,318.1z"/>
	</g>
</g>
</svg>
