<?xml version="1.0" encoding="utf-8"?>
<!-- Generator: Adobe Illustrator 22.0.1, SVG Export Plug-In . SVG Version: 6.00 Build 0)  -->
<svg version="1.1" id="Camada_1" xmlns="http://www.w3.org/2000/svg" xmlns:xlink="http://www.w3.org/1999/xlink" x="0px" y="0px"
	 viewBox="0 0 600 600" style="enable-background:new 0 0 600 600;" xml:space="preserve">
<style type="text/css">
	.st0{fill:#FFFFFF;}
</style>
<g>
	<path class="st0" d="M336.2,348.3c3.2,0,5.1,2.1,5.1,5.3c0,2.8-1.5,4.8-4.2,5.3l4.7,9.2c0,0-0.1,0.1-0.2,0.1
		c-0.2,0-0.2-0.1-0.2-0.1l-4.7-9.2h-6.6v9.2c0,0-0.1,0.1-0.2,0.1c-0.1,0-0.2-0.1-0.2-0.1v-19.8H336.2z M330.1,358.5h6.1
		c2.8,0,4.6-1.8,4.6-4.9s-1.8-4.9-4.6-4.9h-6.1V358.5z"/>
	<path class="st0" d="M357,348.3c0.1,0.1,0.1,0.3,0,0.4h-10v9.2h8.7c0.1,0.1,0.1,0.3,0,0.4H347v9.5h10.3c0.1,0.1,0.1,0.3,0,0.4
		h-10.7v-19.9H357z"/>
	<path class="st0" d="M366.9,348.3c5.2,0,7.9,2.1,7.9,9.9c0,7.8-2.8,9.9-7.9,9.9h-5v-19.9H366.9z M366.8,367.7c5,0,7.5-2,7.5-9.5
		c0-7.5-2.4-9.5-7.5-9.5h-4.5v19H366.8z"/>
	<path class="st0" d="M390.4,348.3c0.1,0.1,0.1,0.3,0,0.4h-10v9.2h8.7c0.1,0.1,0.1,0.3,0,0.4h-8.7v9.5h10.3c0.1,0.1,0.1,0.3,0,0.4
		H380v-19.9H390.4z"/>
	<path class="st0" d="M331.9,401c0,0-0.5,0.2-1.4,0.2c-0.9,0-1.4-0.2-1.4-0.2v-19.7h11c0.1,0.3,0.2,0.7,0.2,1.1
		c0,0.4-0.1,0.8-0.2,1.2h-8.2v6.7h7.2c0.1,0.3,0.2,0.7,0.2,1.1c0,0.4-0.1,0.9-0.2,1.2h-7.2V401z"/>
	<path class="st0" d="M354.9,381.3c0.1,0.3,0.2,0.7,0.2,1.1c0,0.4-0.1,0.9-0.2,1.2h-8.4v6.4h7c0.1,0.3,0.2,0.7,0.2,1.1
		c0,0.4-0.1,0.8-0.2,1.2h-7v6.6h8.7c0.1,0.4,0.2,0.7,0.2,1.1c0,0.4-0.1,0.8-0.2,1.2h-11.5v-19.9H354.9z"/>
	<path class="st0" d="M375.4,381.3c1.1,0,1.8,0.2,1.8,0.2V401c0,0-0.5,0.2-1.4,0.2c-0.9,0-1.4-0.2-1.4-0.2v-8.8
		c0-2.7-0.1-5.7,0.2-7.4h-0.1c-0.3,1.2-1.5,3.5-2.5,5.5l-3.2,6.1c0,0-0.4,0.1-0.9,0.1c-0.5,0-0.8-0.1-0.8-0.1l-3.2-6
		c-1-2-2.2-4.4-2.5-5.7h-0.1c0.3,1.4,0.3,4.2,0.3,6.9v9.2c0,0-0.4,0.2-1.3,0.2c-0.8,0-1.2-0.2-1.2-0.2v-19.5c0,0,0.7-0.2,1.7-0.2
		c0.9,0,1.7,0.2,1.7,0.2l3.6,6.9c0.8,1.6,1.6,3.3,1.9,4.3h0.1c0.2-0.6,0.5-1.4,1-2.5c1.5-2.9,3-5.8,4.5-8.7
		C374.1,381.4,374.8,381.3,375.4,381.3z"/>
	<path class="st0" d="M382.1,381.5c0,0,0.5-0.2,1.4-0.2c1,0,1.4,0.2,1.4,0.2V401c0,0-0.5,0.2-1.4,0.2c-1,0-1.4-0.2-1.4-0.2V381.5z"
		/>
	<path class="st0" d="M393.9,388.5c-1-1.8-1.6-3.6-1.6-3.6h-0.1c0,0,0.2,1.8,0.2,4.6V401c0,0-0.4,0.2-1.3,0.2
		c-0.9,0-1.3-0.2-1.3-0.2v-19.5c0,0,0.6-0.2,1.7-0.2c1.1,0,1.7,0.2,1.7,0.2L400,394c1,1.8,1.7,3.7,1.7,3.7h0.1c0,0-0.2-2-0.2-4.6
		v-11.5c0,0,0.4-0.2,1.3-0.2c0.9,0,1.3,0.2,1.3,0.2V401c0,0-0.5,0.2-1.6,0.2s-1.7-0.2-1.7-0.2L393.9,388.5z"/>
	<path class="st0" d="M409.1,381.5c0,0,0.5-0.2,1.4-0.2c1,0,1.4,0.2,1.4,0.2V401c0,0-0.5,0.2-1.4,0.2c-1,0-1.4-0.2-1.4-0.2V381.5z"
		/>
	<path class="st0" d="M422.6,381.1c3.3,0,5.4,0.8,5.4,0.8c0,0.8-0.2,1.7-0.8,2.2c0,0-1.9-0.6-4.2-0.6c-2.9,0-4.3,1.1-4.3,3.1
		c0,2.1,2.4,2.6,4.9,3.4c2.6,0.9,5.2,2.1,5.2,5.7c0,3.7-2.4,5.8-6.9,5.8c-3.6,0-6-1.2-6-1.2c0-0.7,0.2-1.6,0.7-2.2
		c0,0,2.6,0.9,5.2,0.9c2.8,0,4.2-1.1,4.2-3.1c0-2-1.6-2.6-3.5-3.3c-2.9-1-6.5-1.7-6.5-5.8C415.9,383.3,418.1,381.1,422.6,381.1z"/>
	<path class="st0" d="M444.1,381.3c0,0,0.2,0.5,0.2,1.2c0,0.7-0.2,1.2-0.2,1.2H439V401c0,0-0.5,0.2-1.4,0.2c-1,0-1.4-0.2-1.4-0.2
		v-17.2h-5.3c0,0-0.2-0.5-0.2-1.2c0-0.7,0.2-1.2,0.2-1.2H444.1z"/>
	<path class="st0" d="M452.5,381.3c1,0,1.7,0.2,1.7,0.2L461,401c0,0-0.5,0.2-1.5,0.2c-0.9,0-1.4-0.2-1.4-0.2l-1.7-4.9h-8.2l-1.7,4.9
		c0,0-0.5,0.2-1.4,0.2c-0.9,0-1.3-0.2-1.3-0.2l6.9-19.5C450.8,381.5,451.5,381.3,452.5,381.3z M452.3,384.4c0,0-0.2,1.1-0.7,2.5
		l-2.5,7h6.6l-2.5-7C452.6,385.4,452.4,384.4,452.3,384.4L452.3,384.4z"/>
	<path class="st0" d="M334.7,414.4c5.2,0,7.9,2.1,7.9,9.9c0,7.8-2.8,9.9-7.9,9.9h-5v-19.9H334.7z M334.6,433.9c5,0,7.5-2,7.5-9.5
		c0-7.5-2.4-9.5-7.5-9.5h-4.5v19H334.6z"/>
	<path class="st0" d="M358.3,414.4c0.1,0.1,0.1,0.3,0,0.4h-10v9.2h8.7c0.1,0.1,0.1,0.3,0,0.4h-8.7v9.5h10.3c0.1,0.1,0.1,0.3,0,0.4
		h-10.7v-19.9H358.3z"/>
	<path class="st0" d="M374.7,414.5c0,0,0.1-0.1,0.2-0.1c0.1,0,0.2,0.1,0.2,0.1v15.8c0,3-0.9,4.2-3.8,4.2c-2,0-3.7-0.8-3.7-0.8
		c0-0.2,0.1-0.3,0.2-0.4c0,0,1.5,0.8,3.6,0.8c2.3,0,3.3-0.9,3.3-3.8V414.5z"/>
	<path class="st0" d="M393.4,428.3c0,3.9-2.3,6.2-6.2,6.2c-3.9,0-6.2-2.3-6.2-6.2v-13.8c0,0,0.1-0.1,0.2-0.1c0.2,0,0.2,0.1,0.2,0.1
		v13.9c0,3.6,2.2,5.8,5.8,5.8s5.8-2.2,5.8-5.8v-13.9c0,0,0.1-0.1,0.2-0.1c0.1,0,0.2,0.1,0.2,0.1V428.3z"/>
	<path class="st0" d="M405.9,414.4c3.2,0,5.1,2.1,5.1,5.3c0,2.8-1.5,4.8-4.2,5.3l4.7,9.2c0,0-0.1,0.1-0.2,0.1
		c-0.2,0-0.2-0.1-0.2-0.1l-4.7-9.2h-6.6v9.2c0,0-0.1,0.1-0.2,0.1c-0.1,0-0.2-0.1-0.2-0.1v-19.8H405.9z M399.8,424.6h6.1
		c2.8,0,4.6-1.8,4.6-4.9s-1.8-4.9-4.6-4.9h-6.1V424.6z"/>
	<path class="st0" d="M416.2,414.5c0,0,0.1-0.1,0.2-0.1s0.2,0.1,0.2,0.1v19.7c0,0-0.1,0.1-0.2,0.1c-0.1,0-0.2-0.1-0.2-0.1V414.5z"/>
	<path class="st0" d="M427.8,414.1c2.9,0,4.8,0.6,4.8,0.6c0,0.2,0,0.3-0.1,0.4c0,0-2.2-0.6-4.7-0.6c-3.8,0-5.7,1.9-5.7,4.7
		c0,3.3,2.3,4.1,5.4,4.8c2.8,0.7,5.8,1.6,5.8,5.3c0,3.2-2.4,5.2-6.3,5.2c-3.2,0-5.3-1-5.3-1c0-0.1,0.1-0.3,0.2-0.4c0,0,2.2,1,5,1
		c3.7,0,6-1.7,6-4.8c0-3.4-2.6-4.2-5.4-4.9c-3-0.7-5.8-1.6-5.8-5.2C421.7,416.1,423.9,414.1,427.8,414.1z"/>
	<path class="st0" d="M448.5,414.4c0,0,0.1,0,0.1,0.2c0,0.2-0.1,0.2-0.1,0.2h-5.9v19.4c0,0-0.1,0.1-0.2,0.1c-0.1,0-0.2-0.1-0.2-0.1
		v-19.4h-6.1c0,0-0.1-0.1-0.1-0.2c0-0.2,0.1-0.2,0.1-0.2H448.5z"/>
	<path class="st0" d="M464.6,434.2c0,0-0.1,0.1-0.2,0.1c-0.1,0-0.2-0.1-0.2-0.1l-2.5-6.3h-10.2l-2.5,6.3c0,0-0.1,0.1-0.2,0.1
		c-0.1,0-0.2-0.1-0.2-0.1l8-19.9c0,0,0.1,0,0.1,0L464.6,434.2z M461.5,427.6l-5-12.3l-4.9,12.3H461.5z"/>
	<path class="st0" d="M473.4,414.1c2.9,0,4.8,0.6,4.8,0.6c0,0.2,0,0.3-0.1,0.4c0,0-2.2-0.6-4.7-0.6c-3.8,0-5.7,1.9-5.7,4.7
		c0,3.3,2.3,4.1,5.4,4.8c2.8,0.7,5.8,1.6,5.8,5.3c0,3.2-2.4,5.2-6.3,5.2c-3.2,0-5.3-1-5.3-1c0-0.1,0.1-0.3,0.2-0.4c0,0,2.2,1,5,1
		c3.7,0,6-1.7,6-4.8c0-3.4-2.6-4.2-5.4-4.9c-3-0.7-5.8-1.6-5.8-5.2C467.3,416.1,469.5,414.1,473.4,414.1z"/>
</g>
<g>
	<g>
		<path class="st0" d="M215.4,102.6c0,0-20.8,76,47.7,145.6C263.1,248.2,352.3,149.9,215.4,102.6z"/>
		<path class="st0" d="M263.1,248.9l-0.4-0.4c-35.5-36-46.6-73.8-49.7-99.2c-3.3-27.5,1.8-46.7,1.9-46.9l0.1-0.5l0.5,0.2
			c42.6,14.7,67.7,35.9,74.7,63c10.6,41.6-26.4,83-26.8,83.4L263.1,248.9z M215.7,103.3c-0.8,3.2-4.7,21.2-1.7,46
			c3.1,25.1,14,62.4,49,98.1c3.8-4.3,36.1-43.2,26.2-82.1C282.4,138.8,257.7,117.9,215.7,103.3z"/>
	</g>
	<g>
		<path class="st0" d="M244.9,341.2l-0.2,0c-0.1,0-14-1.8-29.9-10.3c-14.7-7.9-34.1-23.4-43.5-52.3l-0.2-0.5l0.5-0.2l90.9-30
			l0.4-0.6l0.4,0.2c0.2,0.1,16.3,9.7,18.3,28.9c2,19.2-10.3,41-36.5,64.7L244.9,341.2z M172.4,278.7c17.4,52.5,68.4,60.9,72.2,61.5
			c25.8-23.4,37.9-44.8,36-63.6c-1.8-17-14.9-26.2-17.4-27.9l-0.1,0.1l-0.2,0.1L172.4,278.7z"/>
	</g>
	<g>
		<path class="st0" d="M245.7,340.1c0,0-49.9,36.4,16.6,104.4c0,0-132.7-39.3-90.3-165.3C171.9,279.1,184.9,330.3,245.7,340.1z"/>
		<path class="st0" d="M263.9,445.5l-1.8-0.5c-0.6-0.2-61.1-18.6-87.1-68.7c-14.6-28.1-15.8-60.8-3.5-97.2l0.5-1.6l0.4,1.6
			c0,0.1,3.4,12.9,14,26.6c9.8,12.7,28.1,28.9,59.3,33.9l1.2,0.2l-1,0.7c-0.2,0.1-15.8,11.8-17.6,33.7c-1.8,21.4,9.7,44.9,34.2,70
			L263.9,445.5z M171.9,280.8c-11.6,35.5-10.3,67.5,4,94.9c23.2,44.7,74.1,64,84.6,67.6c-23.8-24.7-34.9-48-33.1-69.3
			c1.6-19.3,13.7-30.8,17.1-33.6c-30.9-5.3-49-21.4-58.9-34.1C177,295.1,173.1,284.6,171.9,280.8z"/>
	</g>
	<g>
		<path class="st0" d="M276.1,346.4c-7.8,0-18-2-30.6-5.9l-0.9-0.3l0.7-0.6c0.2-0.2,24.6-21.5,32.2-42.8l1.1-2.8
			c0.1-0.3,11-26.6-15.9-45.5l-0.8-0.6l0.9-0.3c0.4-0.1,38-12.8,52.8,26.1l0.2,0.4l-0.4,0.2c-0.2,0.1-16.8,8.8-19,19.1
			c-0.7,3.2,0.2,6.2,2.4,9l0.2,0.3l-5.7,8.2l0.2,20.5c0.2,0.7,1.4,6.4-3,10.6C287.7,345,282.8,346.4,276.1,346.4z M246.7,339.8
			c28.1,8.7,39.1,5.6,43.4,1.5c4.1-4,2.7-9.6,2.7-9.6l0-0.1l-0.2-20.9l5.5-7.9c-2.3-3-3.1-6.2-2.4-9.6c2.1-9.9,16.4-18.1,19.1-19.6
			c-13.2-34.2-44.5-27.1-50.4-25.4c26.5,19.4,15.5,45.9,15.4,46.1l-1.1,2.8C271.6,316.8,250.7,336.2,246.7,339.8z"/>
	</g>
	<g>
		<path class="st0" d="M167.7,279c-22.2-3.6-36.6-11.7-43-24.1c-8.4-16.2,0.4-34.3,0.5-34.5l0.1-0.2l0.3,0c15-2.3,26.7,0.6,34.7,8.6
			c16.6,16.5,12,49.4,11.9,49.8l-0.1,0.4L167.7,279z M126,221.1c-1,2.1-8,18.6-0.4,33.4c6.2,12.1,20.4,20,42.2,23.5l3.5,0
			c0.5-3.9,3.5-33.4-11.7-48.5C151.8,221.8,140.5,219,126,221.1z"/>
	</g>
</g>
</svg>
