<svg id="Camada_1" xmlns="http://www.w3.org/2000/svg" viewBox="162.9 328.1 769.6 215.8"><style>.st0{fill:#fff}</style><ellipse class="st0" cx="270.6" cy="435.8" rx="107.7" ry="107.7"/><path d="M338.9 431.7c-.5-.5-.6-1-.2-1.6 1.9-3.2 1.3-5-2-6.4-2.3-1-3.4-4-1.8-5 4.7-3.2 3-6.7-.3-9.2-4.3-3.3-8.9-6.1-13.2-9.2-2.7-1.9-3.9-5.5-2.8-8.4.8-2.1.4-3.9-.5-5.5-6.6-12.7-16.2-22.2-29.9-27-6.6-2.3-13.4-2.3-20.3-1.4-8 .9-15.8 3.3-23.6 5-7.5 1.6-13.6 6-19 11.2-5.3 5.1-8.5 11.4-10 18.5-1.7 8.6-1 17.4-.6 26.1.3 6.6 3.4 12.4 8.5 17.1 3.9 3.6 8.6 6.3 11.5 11.1 2.3 3.8 6 6.7 7.4 11.2.9 3.1 1.1 6.4 1.7 9.5 1.6 8.9-2.5 15.8-8 22-5.1 5.8-12.2 9.3-18.5 13.7-5.3 3.7-11.8 9.9-15.5 15.3 18.7 15.5 42.7 24.9 68.9 24.9 22.7 0 43.7-7 61.1-19-1.2-1.5-2.7-3.4-3.8-4.6-3.7-4-8.4-6.8-12.5-10.2-4.2-3.5-8.8-6.6-14.4-7.5-3.1-.5-5.9-1.7-8.9-2.5 1.4-1.1 3.7-1.6 3.2-4.2-.5-2.2-1.8-4.1-3.6-5.1-1.1-.6-1.1-.8-.7-1.7 2.5-6.4 5.5-12.5 8.2-18.8 1.8-4.1 4.4-6.5 8.1-8.5 4.7-2.5 9.6-4 14.9-4.3 3.8-.2 7.7-.8 11.4-1.8 2.3-.7 5.2-1.4 5.8-4 .8-3.3 1.5-6.8-.7-10-1.6-2.3-1.5-3 .9-4.4 1.2-.7 1.3-1.3.8-2.4-.6-1-.7-2.1-1.6-2.9zm-94.4 57.7c1-1.8 2-3.7 2.3-5.9.2-1.1 1-1.7 2.2-.7 5.8 4.5 12 8.2 18.7 11.1 1.1.5 1.2 1 .6 2.1-1.4 2.6-2.5 5.3-3.7 8.1-7.1-2.7-13.3-7.1-19.4-11.7-1.2-.8-1.4-1.7-.7-3zm14.5 15.8c-.5.8-.6 1.6-.6 2.6 0 3.4-.1 3.4-3.6 3.4-3.7 0-4.1-.1-3.9-3.3.1-1.7 2.1-2.4 3.1-3.7 1.5-1.7 3.1-.9 4.7-.2.8.3.7.6.3 1.2zm-6.5 18.8c-3.6-2.7-8.2-3.1-12.6-3.6-1.1-.1-2-.4-3.4-1.1 6.5-1.3 19.9 2.1 23.4 5.8-2.6.2-4.8.8-7.4-1.1zm17-9.9c-2.8 0-5.4-1.6-5.3-3.3.1-1.1 1.5-2.2 3-2.2 1.7 0 3.4 1.8 3.3 3.7 0 .6.5 1.8-1 1.8zm47.1-116.2c.4-.3 1.3-.2 1.6.3.9 1.7-.7 2.5-1.5 3.6.2-1.3-1.6-2.7-.1-3.9zM278 446.3c0 .1-.1.2-.1.3h.6v.3c-.2-.1-.4-.2-.5-.2-.1-.1-.1-.2-.2-.2 0-.1.1-.1.2-.2zm-6-12.2c-.9 0-.3-1.2-.7-1.8-.2-2.5 3-4.3 4-1.7.1.3-2.7 3.5-3.3 3.5zm8 74.2c-2-.8-3.6-.3-5.2-.8-1.3-.4-1.5-.8-1.1-2.2.7-2.5 2.2-4.7 3-7.1.3-.9.9-.6 1.5-.4 1.3.4 2.6.8 4 1.1 2.7.7 2.7.6 1.3 3.2-.9 1.6-1.6 3.4-2.3 5.1-.4.7-.6 1.5-1.2 1.1zm5.4-.3c-.4 1.2-1.8.7-2.9.4.3-2.6 1.9-4.6 2.8-7 .5-1.6 2-1.7 3.6-1.2-.6 2.9-2.6 5.1-3.5 7.8zm8.9-117.2c-.8-.1-1.2-.8-1.4-1.4-.9-2.3-2.7-3.6-4.9-4.4-.7-.2-.8-.8-1.2-1-.6-.2-.5-2.7-1.8-.6-.2.4-.3-.1-.4-.2-1-1.1-.5-4 .7-5s1.5-3 3.6-3c.3 0 .6-.1.9-.1.1.7-.4.6-.7.7-.8.3-1.1 1.2-.8 1.6.4.6 1.2.3 1.8-.1 1.2-.7 2.7-1.9 3.8-1.5 2.1.9 4.2 1.9 5.8 3.7.1.1.1.1.1.2 1 1.4 3 2.6 2.6 4.4-.5 2.3-2.3 4-3.9 5.8-1 1.1-2.4-.3-3.4.8-.2.2-.5.8-.8.1zm24.7 35.9c-.2-.4-.3-.8-.4-1.3-1.9 1.1-2.8-.7-3.6-1.5-3.5-3.5-7.3-6.7-11.3-9.6-1.7-1.3-3.6-2.5-5.5-3.5-1.6-.8-1.9-2.2-2.1-3.5-.2-2.3-.4-4.8 1.1-6.7 1.2-1.5 2.6-2.9 3.5-4.6 1-1.8 2.2-3.4 2-5.6-.1-1 3-2.9 3.1-2.4.2 1 1.4 1.4 1 2.6-.3.8.2 1.5.7 2.1 2 2.7 3.5 5.5 2.2 9.1.4-2.2-4 0-2.4-3.3-1.2 1.2-2.4 1.4-3.6.7-.8-.5-1.1.3-1.4.7-.4.5.1 1.2.6 1.3 3.5.7 3.2 2.7 2.1 5.4-1 2.4 1 3.9 2.8 4.9 2.5 1.3 4.4 2.9 5.4 5.6.9 2.3 3.1 3.8 4.5 5.8.6.9.7 1.7.9 2.6.5-.3.9.3.4 1.2zm14.1 2c-1.9 1.7-3.9 3.2-5.8 4.8-1.4 1.2-5-1.1-4.8-2.9.1-.9 1.1-1.2 1.8-1.5.7-.3 1.9-.5 2.3.3 1 2.3 3.1.4 3.2.2.7-1.6 2.3-.9 3.7-2.2-.3.9-.3 1.2-.4 1.3z" fill="#020304" stroke="#000" stroke-width=".5" stroke-miterlimit="10"/><path class="st0" d="M309.8 401.8c.4-2.2-4 0-2.4-3.3-1.2 1.2-2.4 1.4-3.6.7-.8-.5-1.1.3-1.4.7-.4.5.1 1.2.6 1.3 3.5.7 3.2 2.7 2.1 5.4-1 2.4 1 3.9 2.8 4.9 2.5 1.3 4.4 2.9 5.4 5.6.9 2.3 3.1 3.8 4.5 5.8.9 1.3.7 2.6 1.4 3.9.5-.9.1-1.6-.4-1.3-1.9 1.1-2.8-.7-3.6-1.5-3.5-3.5-7.3-6.7-11.3-9.6-1.7-1.3-3.6-2.5-5.5-3.5-1.6-.8-1.9-2.2-2.1-3.5-.2-2.3-.4-4.8 1.1-6.7 1.2-1.5 2.6-2.9 3.5-4.6 1-1.8 2.2-3.4 2-5.6-.1-1 3-2.9 3.1-2.4.2 1 1.4 1.4 1 2.6-.3.8.2 1.5.7 2.1 1.8 2.7 3.4 5.5 2.1 9zm-45.2 102.4c-7.1-2.7-13.3-7.1-19.4-11.7-1.2-.9-1.4-1.8-.6-3.1 1-1.8 2-3.7 2.3-5.9.2-1.1 1-1.7 2.2-.7 5.8 4.5 12 8.2 18.7 11.1 1.1.5 1.2 1 .6 2.1-1.4 2.6-2.5 5.4-3.8 8.2zm29.7-113.4c-.8-.1-1.2-.8-1.4-1.4-.9-2.3-2.7-3.6-4.9-4.4-.7-.2-.8-.8-1.2-1-.6-.2-.5-2.7-1.8-.6-.2.4-.3-.1-.4-.2-1-1.1-.5-4 .7-5s1.5-3 3.6-3c.3 0 .6-.1.9-.1.1.7-.4.6-.7.7-.8.3-1.1 1.2-.8 1.6.4.6 1.2.3 1.8-.1 1.2-.7 2.7-1.9 3.8-1.5 2.1.9 4.2 1.9 5.8 3.7.1.1.1.1.1.2 1 1.4 3 2.6 2.6 4.4-.5 2.3-2.3 4-3.9 5.8-1 1.1-2.4-.3-3.4.8.4-.9-.3-1.1-.8-1.1-.7.3-.4.8 0 1.2zM280 508.3c-2-.8-3.6-.3-5.2-.8-1.3-.4-1.5-.8-1.1-2.2.7-2.5 2.2-4.7 3-7.1.3-.9.9-.6 1.5-.4 1.3.4 2.6.8 4 1.1 2.7.7 2.7.6 1.3 3.2-.9 1.6-1.6 3.4-2.3 5.1-.4.7-.6 1.5-1.2 1.1zm-25.2 2.9c-3.7 0-4.1-.1-3.9-3.3.1-1.7 2.1-2.4 3.1-3.7 1.5-1.7 3.1-.9 4.7-.2.8.3.6.6.3 1.2-.5.8-.6 1.6-.6 2.6-.1 3.4-.1 3.4-3.6 3.4zm-18.3 8c6.5-1.3 19.9 2.1 23.4 5.8-2.6.4-4.8.9-7.4-1-3.6-2.7-8.2-3.1-12.6-3.6-1-.2-2-.5-3.4-1.2zm25.4-55.1c-3.2-3.7-3.2-8.1-2.1-12.4.7-3.1 2.4-6 5.5-7.6.5-.3 1-.7 1.6-.8 3.1-.8 2.4-.7 2.5-4 .1-2.8.1-3.8.3-1.1.8 0 .9 3.5 2.2 4.5 1.3 1 3.5.4 5.1 2.4-2.1-.4-3.6-1.4-5.5-1.4-5.9.1-10.1 3.5-11.1 9.4-.7 3.8-.1 7.3 1.9 10.6l-.4.4zm71.6-36.7c-.3.9-.3 1.2-.4 1.3-1.9 1.7-3.9 3.2-5.8 4.8-1.4 1.2-5-1.1-4.8-2.9.1-.9 1.1-1.2 1.8-1.5.7-.3 1.9-.5 2.3.3 1 2.3 3.1.4 3.2.2.7-1.6 2.3-.9 3.7-2.2zm-51 80.9c.3-2.6 1.9-4.6 2.8-7 .5-1.6 2-1.7 3.6-1.2-.5 2.9-2.5 5.1-3.4 7.8-.5 1.2-2 .8-3 .4zm-15.3.3c1.7 0 3.4 1.8 3.3 3.7 0 .6.5 1.8-1 1.8-2.8 0-5.4-1.6-5.3-3.3.1-1.1 1.6-2.2 3-2.2zm4.8-74.5c-.9 0-.3-1.2-.7-1.8-.2-2.5 3-4.3 4-1.7.1.3-2.7 3.5-3.3 3.5zm44.7-32.2c.1-1.4-1.7-2.7-.1-4 .4-.3 1.3-.2 1.6.3.9 1.7-.6 2.5-1.5 3.7zm-36.5 47.5c-.6-.5-.9-1.1-1-1.9 1.1 0 1 1 1.4 1.5-.1.2-.2.3-.4.4zm15-58.6c-.3.1-.6.7-.9 0v.1c.3.1.6.6.9-.1zM278 446.7c.2.1.4.2.5.2v-.3c-.2.1-.4.1-.5.1zm-.1 0c0-.1.1-.2.1-.3-.1 0-.2.1-.3.1.1 0 .2.1.2.2z"/><path d="M295.2 390.8c-.3.6-.6.2-1 0-.3-.4-.6-1 .2-1.1.5 0 1.2.3.8 1.1z" fill="#020304"/><path class="st0" d="M269.4 431.9c.4-.4.7-1.1 1.1-1.5.2-.2.4-.2.6-.3.2-.1.3-.2.5-.3.1-.1.3-.2.5-.3.2 0 .4-.1.5-.1.6 0 1.1.2 1.6.5.3.2.5.5.7.8.2.4.2.7-.1 1-.2.2-.4.3-.6.4-.3.2-.5.4-.6.7 0 .1-.1.1-.1.2l-.6.9c-.2.4-.5.8-.8 1.1-.1.2-.3.3-.4.4l-.7.7c-.4.4-.6.8-.6 1.3 0 .4 0-.4 0 0 0 .7.3 3.6 0 1.7 0-.1-.3 0-.3 0-.1.1-.3.1-.4-.1s-.1-.4-.1-.7c0-.4-.1-1.4-.1-1.8v-.1c-.1-.3-.3-.5-.6-.5-.4-.1-.7-.3-.9-.6-.1-.2-.3-.3-.5-.5-.4-.2-.8-.4-1.3-.5-.3-.1-.6-.2-.9-.4-.2-.1-.4-.2-.7-.2-.3 0-.6-.1-.8-.1-4.2.2-8.8-2.2-11.2-5.9 2.3.9 4.2 3.3 6.8 2.3.3-.2.6-.4.9-.5.2-.1.4-.1.6.1.2.1.5.2.8.2.3 0 .5.2.6.5.1.2.1.4.2.6.1.5.4.8.8 1.1.2.1.4.1.6.2.2 0 .5.1.7.1.2 0 .3 0 .5-.1.2-.2.5-.2.8-.1.2.1.3 0 .4-.1l.1-.1c-.2-.2-.4-.4-.5-.6-.2-.3-.2-.9.2-1.1.2-.1.3 0 .4.1.2.1.3.3.4.5 0 .1.1.1.1.2.1.1.1.1.2.1.3-.1.6 0 .9.1.2 0 .3.1.5.1s.2.4.4.4m-23.1-11c.1.4 1 1.7-.4.8-3.2-2.3-3.7-7.9-.5-11.1 1.9 3.2.5 6.9.9 10.3zm27.7 3.6c0 .3 0 .5-.2.7-.3.2-.4.6-.6.9s-.3.6-.6.9c-.1.1-.2.3-.3.4s-.2.3-.3.4c-.2.2-.4.3-.6.5s-.4.2-.7.3c-.3.1-.6.1-1 .2h-.5c-.2 0-.4-.1-.6-.2-.2 0-.3-.1-.4-.2s-.2-.1-.4-.2c-.4 0-.9-.2-1.3-.3-.2-.1-.4-.1-.5-.2-.2-.1-.3-.3-.3-.6 0-.1 0-.2.1-.2h.3c.4 0 .7.1 1.1.1.4.1.8.2 1.1.6.2.2.4.2.6.2.3 0 .6 0 1 .1.3 0 .6 0 .9-.2.4-.3.8-.6 1.1-1.1.1-.2.2-.4.2-.6s.1-.4.3-.6c.1-.2.2-.3.2-.5 0-.4 0-.8-.3-1.1l-.2-.2c-.3-.2-.5-.4-.8-.6-.5-.3-1-.7-1.6-1-.4-.1-.6-.4-.7-.7-.2-.4-.3-.9-.2-1.3 0-.2.1-.3.1-.5.1-.5.2-.9.2-1.4v-.3c0-.2.1-.4.3-.4.2-.1.4 0 .5.2s.2.3.3.5c.1.3.1.6.2.8 0 .5.2.9.3 1.3.1.2.1.3.2.5.1.3.2.4.5.3h.2c.1 0 .2 0 .2.2 0 .1 0 .3.1.4.1.3.3.5.6.5.1 0 .2.1.3.2.2.2.5.5.6.8.1.2.2.5.4.7.1.1.2.2.2.3v.4c.1 0 0 0 0 0zM258.3 413c0 .2-.1.4-.3.5-.2.2-.4.4-.5.6-.1.3-.4.5-.7.5-.3 0-.4.2-.5.4-.1.4-.5.6-.8.8-.1 0-.2.1-.3.1-.2.1-.4.2-.4.5-.1.2-.2.3-.3.4-.2.2-.3.4-.3.6 0 .6-.1 1.1-.2 1.7-.1.4-.1.7 0 1.1.1.3.1.6.1.9s.1.5.2.7c.2.3.2.7.2 1 0 .1 0 .1-.1.2-.1.2-.3.3-.5.2l-.3-.3c-.2-.2-.4-.5-.6-.7-.4-.5-.7-.9-.7-1.6v-.4c0-.6-.1-1.3-.1-1.9v-.3c0-.6.1-1.2.1-1.8v-1.1c0-.2 0-.4-.1-.5s-.1-.2-.2-.3c-.2-.3 0-.7.3-.8.2-.1.3 0 .3.1s.1.2.1.4c.1.3.2.4.5.5.2 0 .4.1.5.1s.2.1.3.3c.1.1.1.3.2.4.1.1.2.1.3.1s.1-.1.2-.1c.3-.3.6-.4.9-.5.1 0 .2-.1.4-.1s.3-.2.4-.3c.1-.3.3-.5.6-.7.2-.1.3-.2.5-.4s.4-.4.7-.4c0-.3.1-.1.1.1z"/><path class="st0" d="M260.5 428.6c-.6 0-1 0-1.4-.1-.3 0-.6-.2-.9-.4-.2-.2-.4-.3-.7-.4-.5-.2-.9-.5-1.2-1-.1-.2-.3-.3-.4-.4l-.3-.3c-.2-.2-.3-.4-.5-.6-.1-.1-.2-.2-.2-.4-.1-.1-.2-.3-.3-.4-.2-.2-.3-.4-.2-.7 0-.1.1-.2.2-.3.1-.1.3-.1.4.1 0 .1.1.1.1.2.1.3.4.6.7.8.2.2.4.1.4-.2 0-.4-.1-.8-.5-1-.2-.1-.3-.2-.4-.3-.2-.1-.3-.2-.3-.4v-1.2c0-.2.1-.4.1-.6s.1-.4.1-.6c0-.6.1-1.2.3-1.8.1-.4.2-.8.3-1.3 0-.2.1-.3.3-.4.5-.3.8-.3 1.2 0 .3.2.3.4.2.7-.1.2-.2.5-.3.8s-.2.6-.5.7c-.1.1-.2.1-.2.2-.2.2-.3.4-.3.7 0 .2-.1.4-.1.5v1.2c0 .2.1.4.2.6.1.2.2.3.3.5.2.6.8.7 1.2.7h.5c.4 0 .6.4.5.8-.1.2-.2.5-.4.7-.1.2-.3.3-.5.3-.1 0-.2 0-.3.1-.2.1-.3.2-.2.4.1.2.2.4.4.5.6.4 1.3.8 1.9 1 .2.1.4.1.6.1.4-.1.7 0 1.1.2 0 0 .1 0 .1.1.2.1.2.2.1.4-.5.3-.9.5-1.1.5zm-10.4-19.1c.1-.2.1-.4.2-.5.1-.2.2-.3.2-.5.1-.2.2-.4.5-.5.2-.1.4-.2.7-.2.2 0 .3 0 .5.1.1.1.3.2.4.4.1.2.2.3.1.5s-.1.5 0 .7v.4c-.1.4-.1.8 0 1.2 0 .3 0 .6-.2.9-.1.2-.3.5-.6.5s-.5-.1-.7-.3c-.3-.3-.4-.7-.4-1.2 0-.3-.1-.6-.3-.8-.3-.2-.4-.4-.4-.7z"/><path class="st0" d="M260.5 425.3c.4 0 .8.4.7.7-.1.4-.4.7-.8.8-.4.1-.8-.1-.8-.5 0-.3 0-.7.4-.8.1-.1.3-.2.5-.2zm-13.2-1.3c0 .2-.2.3-.3.2-.4-.2-.6-.5-.7-.9 0 0 0-.1.1-.1h.1c.2.1.3.2.5.3.2.1.3.3.3.5zm23.2 45.8c-6.6 0-12-6.3-12-13.9 0-7.7 5.4-13.9 12-13.9s12 6.3 12 13.9c.1 7.7-5.3 13.9-12 13.9zm0-26.4c-5.9 0-10.6 5.6-10.6 12.5s4.8 12.5 10.6 12.5c5.9 0 10.7-5.6 10.7-12.5s-4.8-12.5-10.7-12.5z"/><path class="st0" d="M269.3 436.6s.4 5.1-1.2 5.7 1.6.3 1.6.3v-5.1l-.4-.9zm208.8 76.1c-1.4 0-2.5-.6-3.2-1.7L431 442.1v66.8c0 2.1-1.7 3.8-3.8 3.8H414c-2.1 0-3.8-1.7-3.8-3.8v-101c0-2.1 1.7-3.7 3.8-3.7h13.2c1.4 0 2.5.6 3.2 1.7l44 68.9V408c0-2.1 1.7-3.7 3.8-3.7h13.1c2.1 0 3.8 1.6 3.8 3.7v100.9c0 2.1-1.7 3.8-3.8 3.8h-13.2zm34 0c-2.1 0-3.8-1.7-3.8-3.8v-101c0-2.1 1.7-3.7 3.8-3.7h63.8c2.1 0 3.8 1.6 3.8 3.7v11.8c0 2.1-1.7 3.8-3.8 3.8h-46.7v24.7h42.3c2.2 0 3.8 1.7 3.8 3.8v11.8c0 2.1-1.7 3.8-3.8 3.8h-42.3v25.5h46.7c2.1 0 3.8 1.7 3.8 3.8v11.8c0 2.1-1.7 3.8-3.8 3.8h-63.8v.2zm100.9-2.5c-6.9-2.9-12.7-7.3-17.6-13.1-4.3-5.2-7.6-11.2-9.8-18.1-2-6.4-3.1-13.3-3.1-20.5 0-7.3 1-14.1 3.1-20.5 2.2-7 5.5-13 9.8-18.2 4.9-5.8 10.7-10.1 17.6-13 6.5-2.8 13.7-4.2 21.6-4.2 6.1 0 12.1.8 18.1 2.4 6.3 1.7 11.9 4 16.8 7.1 1.2.8 1.8 1.9 1.8 3.3 0 .7-.1 1.3-.5 1.9l-5.9 10.3c-.8 1.3-2 1.9-3.4 1.9-.7 0-1.4-.2-2.1-.7-3.2-2.3-7.1-4-11.8-5.3-4.3-1.1-8.6-1.7-13-1.7-5 0-9.5 1-13.5 3-4.1 2-7.6 5.1-10.5 9.1-4.6 6.7-7 14.9-7 24.8 0 9.8 2.3 18.1 7 24.7 5.7 8.1 13.7 12.1 24.1 12.1 4 0 7.9-.5 11.9-1.5 4.3-1 8.1-2.5 11.2-4.5v-21.8h-18c-2.1 0-3.8-1.7-3.8-3.8v-11.8c0-2.1 1.7-3.8 3.8-3.8h33.6c2.2 0 3.8 1.7 3.8 3.8v45c0 1.1-.4 1.9-1.1 2.7-4.9 4.7-11.4 8.4-19.3 11-7.3 2.4-14.6 3.6-22.1 3.6-8 0-15.2-1.4-21.7-4.2zm134.4 2.5c-1.4 0-2.5-.6-3.3-1.9l-24.7-42.9h-13.3v41c0 2.1-1.6 3.8-3.7 3.8H689c-2.1 0-3.8-1.7-3.8-3.8v-101c0-2.1 1.7-3.7 3.8-3.7h36.8c8.5 0 16 2.1 22.3 6.3 8.7 5.8 13.7 15.1 13.7 25.6 0 5.2-1.2 10.1-3.6 14.5-3.7 6.8-9.5 11.7-17.2 14.6l24.1 41.8c.4.6.6 1.2.6 1.9s-.2 1.3-.6 1.9c-.7 1.3-1.8 1.9-3.3 1.9h-14.4zm-21.7-64.3c4.1 0 7.6-1 10.3-2.8 3.1-2.3 4.7-5.4 4.7-9.5s-1.6-7.3-4.7-9.5c-2.8-1.9-6.2-2.9-10.3-2.9h-19.6v24.8h19.6v-.1z"/><path class="st0" d="M786 510.1c-.7 1.7-1.9 2.5-3.6 2.5h-14.2c-1.5 0-2.5-.5-3.2-1.6-.3-.6-.4-1.3-.4-2s.4-2 1.1-3.8l35.7-98.5c.5-1.5 1.9-2.5 3.5-2.5h18.4c1.7 0 2.9.8 3.6 2.5l35.7 98.5c.7 1.8 1 3.1 1 3.8 0 .7-.1 1.4-.5 2-.6 1.1-1.6 1.6-3.1 1.6h-14.2c-1.7 0-2.9-.8-3.6-2.5l-8.7-24.6h-38.8l-8.7 24.6zm40.6-44l-12.5-35.6-12.6 35.6h25.1zm38.9-22c-1.3-3.4-2-7-2-10.8 0-5.5 1.2-10.4 3.6-14.8 5.6-10.6 16.1-16 31.3-16 12.4 0 23.2 3.2 32.3 9.6 1.2.8 1.8 1.9 1.8 3.3 0 .6-.2 1.2-.5 1.8l-5.9 10.3c-.8 1.3-1.9 1.9-3.3 1.9-.8 0-1.6-.2-2.2-.8-2.2-1.6-5.2-3.2-9.3-5-4-1.8-8.2-2.8-12.8-2.8-3.7 0-6.8.7-9.4 2.3-3.1 1.9-4.6 4.5-4.6 7.6 0 4.9 3.7 9.7 11.1 14.3 2.6 1.6 5.9 3.4 9.8 5.5 8 4.4 13.8 8.2 17.5 11.3 3.4 3 6 6.7 7.6 11 1.3 3.4 2 7 2 10.8 0 5.5-1.2 10.4-3.6 14.8-5.6 10.6-16.1 16-31.3 16-12.4 0-23.2-3.2-32.3-9.6-1.2-.8-1.8-1.9-1.8-3.3 0-.6.1-1.2.5-1.8l5.9-10.3c.8-1.3 1.9-1.9 3.3-1.9.8 0 1.6.2 2.2.7 2.2 1.6 5.3 3.2 9.2 5 4 1.8 8.3 2.8 12.9 2.8 4.4 0 7.8-1 10.3-3.1 2.5-1.9 3.7-4.2 3.7-6.8 0-4.9-2.8-9.1-8.6-12.9-2.8-1.7-6.7-4-11.5-6.6-8.4-4.6-14.5-8.5-18.2-11.7-3.5-2.8-6-6.5-7.7-10.8zm-455.2-58.5c-.7 0-1.3-.6-1.3-1.3v-34.5c0-.7.6-1.3 1.3-1.3h12.5c2.9 0 5.5.7 7.6 2.2 3 2 4.7 5.1 4.7 8.7 0 3.2-1.3 5.6-4 7.1 3.4 2.3 5.1 5 5.1 8.1 0 3.6-1.7 6.8-4.8 8.8-2.2 1.4-4.8 2.2-7.7 2.2h-13.4zm12.5-21.9c1.4 0 2.6-.3 3.5-1 1.1-.8 1.6-1.8 1.6-3.3 0-1.4-.5-2.5-1.6-3.3-.9-.7-2.1-1-3.5-1h-6.7v8.5l6.7.1zm1 15.3c1.5 0 2.7-.3 3.6-1 1.1-.8 1.7-1.9 1.7-3.3s-.6-2.5-1.7-3.3c-.9-.7-2.2-1-3.6-1h-7.7v8.7h7.7v-.1zm16.5 6.6c-.7 0-1.3-.6-1.3-1.3v-34.5c0-.7.6-1.3 1.3-1.3h4.6c.7 0 1.3.6 1.3 1.3v29.1h15.9c.7 0 1.3.6 1.3 1.3v4c0 .7-.6 1.3-1.3 1.3h-21.8v.1zm31.7-.8c-2.4-1-4.4-2.5-6-4.5-1.5-1.8-2.6-3.8-3.4-6.2a22.805 22.805 0 0 1 0-14c.7-2.4 1.9-4.5 3.4-6.2 1.7-2 3.7-3.5 6-4.5 2.2-.9 4.7-1.4 7.4-1.4s5.1.5 7.4 1.4c2.4 1 4.4 2.5 6 4.5 1.5 1.8 2.6 3.8 3.4 6.2.7 2.2 1 4.5 1 7s-.4 4.8-1 7c-.7 2.4-1.9 4.4-3.4 6.2-1.7 2-3.7 3.5-6 4.5-2.2.9-4.7 1.4-7.4 1.4s-5.2-.5-7.4-1.4zm15.6-9.2c1.6-2.3 2.4-5.1 2.4-8.5s-.8-6.2-2.4-8.5c-2-2.7-4.7-4.1-8.2-4.1s-6.3 1.4-8.2 4.1c-1.6 2.3-2.4 5.1-2.4 8.5s.8 6.2 2.4 8.5c1.9 2.8 4.7 4.1 8.2 4.1 3.6 0 6.3-1.4 8.2-4.1zm21.8 9.2c-2.4-1-4.4-2.5-6-4.5-1.5-1.8-2.6-3.8-3.4-6.2-.7-2.2-1-4.5-1-7s.4-4.8 1-7c.7-2.4 1.9-4.5 3.4-6.2 1.7-2 3.7-3.5 6-4.5 2.2-.9 4.7-1.4 7.4-1.4 2.1 0 4.1.3 6.2.8 2.2.6 4.1 1.4 5.7 2.4.4.3.6.6.6 1.1 0 .2-.1.4-.2.6l-2 3.5c-.3.4-.7.6-1.2.6-.3 0-.5-.1-.7-.2-1.1-.8-2.4-1.4-4-1.8-1.5-.4-2.9-.6-4.5-.6-1.7 0-3.3.3-4.6 1-1.4.7-2.6 1.7-3.6 3.1-1.6 2.3-2.4 5.1-2.4 8.5s.8 6.2 2.4 8.5c1.9 2.8 4.7 4.1 8.2 4.1 1.4 0 2.7-.2 4.1-.5 1.5-.4 2.8-.9 3.8-1.5v-7.4h-6.1c-.7 0-1.3-.6-1.3-1.3v-4c0-.7.6-1.3 1.3-1.3H530c.7 0 1.3.6 1.3 1.3v15.4c0 .4-.1.7-.4.9-1.7 1.6-3.9 2.9-6.6 3.8-2.5.8-5 1.2-7.6 1.2-2.6 0-5-.5-7.3-1.4zm32.9.2c-1.9-.8-3.6-2-4.9-3.7-1.2-1.5-2.2-3.2-2.8-5.1-.6-1.8-.9-3.7-.9-5.8v-20.6c0-.7.6-1.3 1.3-1.3h4.6c.7 0 1.3.6 1.3 1.3v20.6c0 2.5.6 4.5 1.7 6.1 1.4 2 3.3 2.9 5.8 2.9s4.4-1 5.8-2.9c1.2-1.7 1.7-3.7 1.7-6.1v-20.6c0-.7.6-1.3 1.3-1.3h4.6c.7 0 1.3.6 1.3 1.3v20.6c0 2-.3 3.9-.9 5.8-.6 1.9-1.5 3.7-2.8 5.1-1.4 1.6-3 2.8-5 3.7-1.8.8-3.9 1.2-6.1 1.2-2.1 0-4.2-.4-6-1.2zm25.8.6c-.7 0-1.3-.6-1.3-1.3v-34.5c0-.7.6-1.3 1.3-1.3H590c.7 0 1.3.6 1.3 1.3v4c0 .7-.6 1.3-1.3 1.3h-16v8.4h14.4c.7 0 1.3.6 1.3 1.3v4c0 .7-.6 1.3-1.3 1.3H574v8.7h16c.7 0 1.3.6 1.3 1.3v4c0 .7-.6 1.3-1.3 1.3h-21.9v.2zm27.3 0c-.7 0-1.3-.6-1.3-1.3v-34.5c0-.7.6-1.3 1.3-1.3h4.6c.7 0 1.3.6 1.3 1.3v34.5c0 .7-.6 1.3-1.3 1.3h-4.6zm31.7 0c-.5 0-.9-.2-1.1-.6l-8.5-14.7H613v14c0 .7-.6 1.3-1.3 1.3h-4.6c-.7 0-1.3-.6-1.3-1.3v-34.5c0-.7.6-1.3 1.3-1.3h12.6c2.9 0 5.5.7 7.6 2.2 3 2 4.7 5.1 4.7 8.7 0 1.8-.4 3.5-1.2 5-1.3 2.3-3.3 4-5.9 5l8.2 14.3c.1.2.2.4.2.6s-.1.4-.2.7c-.2.4-.6.6-1.1.6h-4.9zm-7.5-21.9c1.4 0 2.6-.3 3.5-1 1.1-.8 1.6-1.8 1.6-3.3 0-1.4-.5-2.5-1.6-3.3-.9-.7-2.1-1-3.5-1h-6.7v8.5l6.7.1z"/><path class="st0" d="M640.2 384.8c-.2.6-.6.9-1.2.9h-4.9c-.5 0-.9-.2-1.1-.6-.1-.2-.2-.4-.2-.7 0-.3.1-.7.4-1.3l12.2-33.7c.2-.5.7-.8 1.2-.8h6.3c.6 0 1 .3 1.2.8l12.2 33.7c.2.6.4 1 .4 1.3s-.1.5-.2.7c-.2.4-.6.6-1.1.6h-4.9c-.6 0-1-.3-1.2-.9l-3-8.4H643l-2.8 8.4zm13.9-15.1l-4.3-12.2-4.3 12.2h8.6zm13.3-7.5c-.5-1.2-.7-2.4-.7-3.7 0-1.9.4-3.6 1.2-5.1 1.9-3.6 5.5-5.5 10.7-5.5 4.2 0 7.9 1.1 11 3.3.4.3.6.6.6 1.1 0 .2-.1.4-.2.6l-2 3.5c-.3.4-.6.7-1.1.7-.3 0-.5-.1-.8-.3-.7-.5-1.8-1.1-3.2-1.7-1.4-.6-2.8-.9-4.4-1-1.3 0-2.3.3-3.2.8-1.1.7-1.6 1.5-1.6 2.6 0 1.7 1.3 3.3 3.8 4.9.9.5 2 1.2 3.4 1.9 2.7 1.5 4.7 2.8 6 3.9 1.2 1 2 2.3 2.6 3.8.5 1.2.7 2.4.7 3.7 0 1.9-.4 3.6-1.2 5.1-1.9 3.6-5.5 5.5-10.7 5.5-4.2 0-7.9-1.1-11-3.3-.4-.3-.6-.6-.6-1.1 0-.2.1-.4.2-.6l2-3.5c.3-.4.6-.7 1.1-.7.3 0 .5.1.8.3.7.5 1.8 1.1 3.1 1.7 1.4.6 2.8.9 4.4 1 1.5 0 2.7-.4 3.5-1 .8-.7 1.3-1.4 1.3-2.3 0-1.7-1-3.1-2.9-4.4-1-.6-2.3-1.4-3.9-2.3-2.9-1.6-4.9-2.9-6.2-4-1.2-1.1-2.1-2.4-2.7-3.9z"/></svg>