<?xml version="1.0" encoding="utf-8"?>
<!-- Generator: Adobe Illustrator 22.0.1, SVG Export Plug-In . SVG Version: 6.00 Build 0)  -->
<svg version="1.1" id="Camada_1" xmlns="http://www.w3.org/2000/svg" xmlns:xlink="http://www.w3.org/1999/xlink" x="0px" y="0px"
	 viewBox="0 0 841.9 595.3" style="enable-background:new 0 0 841.9 595.3;" xml:space="preserve">
<style type="text/css">
	.st0{fill-rule:evenodd;clip-rule:evenodd;fill:#FFFFFF;}
	.st1{fill-rule:evenodd;clip-rule:evenodd;fill:#020304;stroke:#000000;stroke-width:0.5;stroke-miterlimit:10;}
	.st2{fill-rule:evenodd;clip-rule:evenodd;fill:#020304;}
	.st3{fill:#FFFFFF;}
</style>
<g>
	
		<ellipse transform="matrix(9.909675e-02 -0.9951 0.9951 9.909675e-02 -194.3598 457.6257)" class="st0" cx="155.6" cy="336.2" rx="107.7" ry="107.7"/>
	<g>
		<g>
			<g>
				<path class="st1" d="M223.9,332c-0.5-0.5-0.6-1-0.2-1.6c1.9-3.2,1.3-5-2-6.4c-2.3-1-3.4-4-1.8-5c4.7-3.2,3-6.7-0.3-9.2
					c-4.3-3.3-8.9-6.1-13.2-9.2c-2.7-1.9-3.9-5.5-2.8-8.4c0.8-2.1,0.4-3.9-0.5-5.5c-6.6-12.7-16.2-22.2-29.9-27
					c-6.6-2.3-13.4-2.3-20.3-1.4c-8,0.9-15.8,3.3-23.6,5c-7.5,1.6-13.6,6-19,11.2c-5.3,5.1-8.5,11.4-10,18.5
					c-1.7,8.6-1,17.4-0.6,26.1c0.3,6.6,3.4,12.4,8.5,17.1c3.9,3.6,8.6,6.3,11.5,11.1c2.3,3.8,6,6.7,7.4,11.2
					c0.9,3.1,1.1,6.4,1.7,9.5c1.6,8.9-2.5,15.8-8,22c-5.1,5.8-12.2,9.3-18.5,13.7c-5.3,3.7-11.8,9.9-15.5,15.3
					c18.7,15.5,42.7,24.9,68.9,24.9c22.7,0,43.7-7,61.1-19c-1.2-1.5-2.7-3.4-3.8-4.6c-3.7-4-8.4-6.8-12.5-10.2
					c-4.2-3.5-8.8-6.6-14.4-7.5c-3.1-0.5-5.9-1.7-8.9-2.5c1.4-1.1,3.7-1.6,3.2-4.2c-0.5-2.2-1.8-4.1-3.6-5.1
					c-1.1-0.6-1.1-0.8-0.7-1.7c2.5-6.4,5.5-12.5,8.2-18.8c1.8-4.1,4.4-6.5,8.1-8.5c4.7-2.5,9.6-4,14.9-4.3c3.8-0.2,7.7-0.8,11.4-1.8
					c2.3-0.7,5.2-1.4,5.8-4c0.8-3.3,1.5-6.8-0.7-10c-1.6-2.3-1.5-3,0.9-4.4c1.2-0.7,1.3-1.3,0.8-2.4
					C224.9,333.9,224.8,332.8,223.9,332z M129.5,389.7c1-1.8,2-3.7,2.3-5.9c0.2-1.1,1-1.7,2.2-0.7c5.8,4.5,12,8.2,18.7,11.1
					c1.1,0.5,1.2,1,0.6,2.1c-1.4,2.6-2.5,5.3-3.7,8.1c-7.1-2.7-13.3-7.1-19.4-11.7C129,391.9,128.8,391,129.5,389.7z M144,405.5
					c-0.5,0.8-0.6,1.6-0.6,2.6c0,3.4-0.1,3.4-3.6,3.4c-3.7,0-4.1-0.1-3.9-3.3c0.1-1.7,2.1-2.4,3.1-3.7c1.5-1.7,3.1-0.9,4.7-0.2
					C144.5,404.6,144.4,404.9,144,405.5z M137.5,424.3c-3.6-2.7-8.2-3.1-12.6-3.6c-1.1-0.1-2-0.4-3.4-1.1c6.5-1.3,19.9,2.1,23.4,5.8
					C142.3,425.6,140.1,426.2,137.5,424.3z M154.5,414.4c-2.8,0-5.4-1.6-5.3-3.3c0.1-1.1,1.5-2.2,3-2.2c1.7,0,3.4,1.8,3.3,3.7
					C155.5,413.2,156,414.4,154.5,414.4z M201.6,298.2c0.4-0.3,1.3-0.2,1.6,0.3c0.9,1.7-0.7,2.5-1.5,3.6
					C201.9,300.8,200.1,299.4,201.6,298.2z M163,346.6c0,0.1-0.1,0.2-0.1,0.3c0,0,0,0,0,0c0.2,0,0.4,0,0.6,0c0,0.1,0,0.2,0,0.3
					c-0.2-0.1-0.4-0.2-0.5-0.2c0,0,0,0,0,0c0,0,0,0,0,0c0,0,0,0,0,0c-0.1-0.1-0.1-0.2-0.2-0.2C162.8,346.7,162.9,346.7,163,346.6z
					 M157,334.4c-0.9,0-0.3-1.2-0.7-1.8c-0.2-2.5,3-4.3,4-1.7C160.4,331.2,157.6,334.4,157,334.4z M165,408.6
					c-2-0.8-3.6-0.3-5.2-0.8c-1.3-0.4-1.5-0.8-1.1-2.2c0.7-2.5,2.2-4.7,3-7.1c0.3-0.9,0.9-0.6,1.5-0.4c1.3,0.4,2.6,0.8,4,1.1
					c2.7,0.7,2.7,0.6,1.3,3.2c-0.9,1.6-1.6,3.4-2.3,5.1C165.8,408.2,165.6,409,165,408.6z M170.4,408.3c-0.4,1.2-1.8,0.7-2.9,0.4
					c0.3-2.6,1.9-4.6,2.8-7c0.5-1.6,2-1.7,3.6-1.2C173.3,403.4,171.3,405.6,170.4,408.3z M179.3,291.1c-0.8-0.1-1.2-0.8-1.4-1.4
					c-0.9-2.3-2.7-3.6-4.9-4.4c-0.7-0.2-0.8-0.8-1.2-1c-0.6-0.2-0.5-2.7-1.8-0.6c-0.2,0.4-0.3-0.1-0.4-0.2c-1-1.1-0.5-4,0.7-5
					c1.2-1,1.5-3,3.6-3c0.3,0,0.6-0.1,0.9-0.1c0.1,0.7-0.4,0.6-0.7,0.7c-0.8,0.3-1.1,1.2-0.8,1.6c0.4,0.6,1.2,0.3,1.8-0.1
					c1.2-0.7,2.7-1.9,3.8-1.5c2.1,0.9,4.2,1.9,5.8,3.7c0.1,0.1,0.1,0.1,0.1,0.2c1,1.4,3,2.6,2.6,4.4c-0.5,2.3-2.3,4-3.9,5.8
					c-1,1.1-2.4-0.3-3.4,0.8C179.9,291.2,179.6,291.8,179.3,291.1z M204,327c-0.2-0.4-0.3-0.8-0.4-1.3c0,0,0,0,0,0
					c-1.9,1.1-2.8-0.7-3.6-1.5c-3.5-3.5-7.3-6.7-11.3-9.6c-1.7-1.3-3.6-2.5-5.5-3.5c-1.6-0.8-1.9-2.2-2.1-3.5
					c-0.2-2.3-0.4-4.8,1.1-6.7c1.2-1.5,2.6-2.9,3.5-4.6c1-1.8,2.2-3.4,2-5.6c-0.1-1,3-2.9,3.1-2.4c0.2,1,1.4,1.4,1,2.6
					c-0.3,0.8,0.2,1.5,0.7,2.1c2,2.7,3.5,5.5,2.2,9.1c0.4-2.2-4,0-2.4-3.3c-1.2,1.2-2.4,1.4-3.6,0.7c-0.8-0.5-1.1,0.3-1.4,0.7
					c-0.4,0.5,0.1,1.2,0.6,1.3c3.5,0.7,3.2,2.7,2.1,5.4c-1,2.4,1,3.9,2.8,4.9c2.5,1.3,4.4,2.9,5.4,5.6c0.9,2.3,3.1,3.8,4.5,5.8
					c0.6,0.9,0.7,1.7,0.9,2.6C204.1,325.5,204.5,326.1,204,327z M218.1,329c-1.9,1.7-3.9,3.2-5.8,4.8c-1.4,1.2-5-1.1-4.8-2.9
					c0.1-0.9,1.1-1.2,1.8-1.5c0.7-0.3,1.9-0.5,2.3,0.3c1,2.3,3.1,0.4,3.2,0.2c0.7-1.6,2.3-0.9,3.7-2.2
					C218.2,328.6,218.2,328.9,218.1,329z"/>
				<g>
					<path class="st0" d="M194.8,302.1c0.4-2.2-4,0-2.4-3.3c-1.2,1.2-2.4,1.4-3.6,0.7c-0.8-0.5-1.1,0.3-1.4,0.7
						c-0.4,0.5,0.1,1.2,0.6,1.3c3.5,0.7,3.2,2.7,2.1,5.4c-1,2.4,1,3.9,2.8,4.9c2.5,1.3,4.4,2.9,5.4,5.6c0.9,2.3,3.1,3.8,4.5,5.8
						c0.9,1.3,0.7,2.6,1.4,3.9c0.5-0.9,0.1-1.6-0.4-1.3c-1.9,1.1-2.8-0.7-3.6-1.5c-3.5-3.5-7.3-6.7-11.3-9.6
						c-1.7-1.3-3.6-2.5-5.5-3.5c-1.6-0.8-1.9-2.2-2.1-3.5c-0.2-2.3-0.4-4.8,1.1-6.7c1.2-1.5,2.6-2.9,3.5-4.6c1-1.8,2.2-3.4,2-5.6
						c-0.1-1,3-2.9,3.1-2.4c0.2,1,1.4,1.4,1,2.6c-0.3,0.8,0.2,1.5,0.7,2.1C194.5,295.8,196.1,298.6,194.8,302.1z"/>
				</g>
				<g>
					<path class="st0" d="M149.6,404.5c-7.1-2.7-13.3-7.1-19.4-11.7c-1.2-0.9-1.4-1.8-0.6-3.1c1-1.8,2-3.7,2.3-5.9
						c0.2-1.1,1-1.7,2.2-0.7c5.8,4.5,12,8.2,18.7,11.1c1.1,0.5,1.2,1,0.6,2.1C152,398.9,150.9,401.7,149.6,404.5z"/>
				</g>
				<g>
					<path class="st0" d="M179.3,291.1c-0.8-0.1-1.2-0.8-1.4-1.4c-0.9-2.3-2.7-3.6-4.9-4.4c-0.7-0.2-0.8-0.8-1.2-1
						c-0.6-0.2-0.5-2.7-1.8-0.6c-0.2,0.4-0.3-0.1-0.4-0.2c-1-1.1-0.5-4,0.7-5c1.2-1,1.5-3,3.6-3c0.3,0,0.6-0.1,0.9-0.1
						c0.1,0.7-0.4,0.6-0.7,0.7c-0.8,0.3-1.1,1.2-0.8,1.6c0.4,0.6,1.2,0.3,1.8-0.1c1.2-0.7,2.7-1.9,3.8-1.5c2.1,0.9,4.2,1.9,5.8,3.7
						c0.1,0.1,0.1,0.1,0.1,0.2c1,1.4,3,2.6,2.6,4.4c-0.5,2.3-2.3,4-3.9,5.8c-1,1.1-2.4-0.3-3.4,0.8l0,0c0.4-0.9-0.3-1.1-0.8-1.1
						C178.6,290.2,178.9,290.7,179.3,291.1L179.3,291.1z"/>
				</g>
				<g>
					<path class="st0" d="M165,408.6c-2-0.8-3.6-0.3-5.2-0.8c-1.3-0.4-1.5-0.8-1.1-2.2c0.7-2.5,2.2-4.7,3-7.1
						c0.3-0.9,0.9-0.6,1.5-0.4c1.3,0.4,2.6,0.8,4,1.1c2.7,0.7,2.7,0.6,1.3,3.2c-0.9,1.6-1.6,3.4-2.3,5.1
						C165.8,408.2,165.6,409,165,408.6z"/>
				</g>
				<g>
					<path class="st0" d="M139.8,411.5c-3.7,0-4.1-0.1-3.9-3.3c0.1-1.7,2.1-2.4,3.1-3.7c1.5-1.7,3.1-0.9,4.7-0.2
						c0.8,0.3,0.6,0.6,0.3,1.2c-0.5,0.8-0.6,1.6-0.6,2.6C143.3,411.5,143.3,411.5,139.8,411.5z"/>
				</g>
				<g>
					<path class="st0" d="M121.5,419.5c6.5-1.3,19.9,2.1,23.4,5.8c-2.6,0.4-4.8,0.9-7.4-1c-3.6-2.7-8.2-3.1-12.6-3.6
						C123.9,420.5,122.9,420.2,121.5,419.5z"/>
				</g>
				<g>
					<path class="st0" d="M146.9,364.4c-3.2-3.7-3.2-8.1-2.1-12.4c0.7-3.1,2.4-6,5.5-7.6c0.5-0.3,1-0.7,1.6-0.8
						c3.1-0.8,2.4-0.7,2.5-4c0.1-2.8,0.1-3.8,0.3-1.1c0.8,0,0.9,3.5,2.2,4.5c1.3,1,3.5,0.4,5.1,2.4c-2.1-0.4-3.6-1.4-5.5-1.4
						c-5.9,0.1-10.1,3.5-11.1,9.4c-0.7,3.8-0.1,7.3,1.9,10.6C147.2,364.1,147,364.3,146.9,364.4z"/>
				</g>
				<g>
					<path class="st0" d="M218.5,327.7c-0.3,0.9-0.3,1.2-0.4,1.3c-1.9,1.7-3.9,3.2-5.8,4.8c-1.4,1.2-5-1.1-4.8-2.9
						c0.1-0.9,1.1-1.2,1.8-1.5c0.7-0.3,1.9-0.5,2.3,0.3c1,2.3,3.1,0.4,3.2,0.2C215.5,328.3,217.1,329,218.5,327.7z"/>
				</g>
				<g>
					<path class="st0" d="M167.5,408.6c0.3-2.6,1.9-4.6,2.8-7c0.5-1.6,2-1.7,3.6-1.2c-0.5,2.9-2.5,5.1-3.4,7.8
						C170,409.4,168.5,409,167.5,408.6z"/>
				</g>
				<g>
					<path class="st0" d="M152.2,408.9c1.7,0,3.4,1.8,3.3,3.7c0,0.6,0.5,1.8-1,1.8c-2.8,0-5.4-1.6-5.3-3.3
						C149.3,410,150.8,408.9,152.2,408.9z"/>
				</g>
				<g>
					<path class="st0" d="M157,334.4c-0.9,0-0.3-1.2-0.7-1.8c-0.2-2.5,3-4.3,4-1.7C160.4,331.2,157.6,334.4,157,334.4z"/>
				</g>
				<g>
					<path class="st0" d="M201.7,302.2c0.1-1.4-1.7-2.7-0.1-4c0.4-0.3,1.3-0.2,1.6,0.3C204.1,300.2,202.6,301,201.7,302.2z"/>
				</g>
				<g>
					<path class="st0" d="M165.2,349.7c-0.6-0.5-0.9-1.1-1-1.9c1.1,0,1,1,1.4,1.5C165.5,349.5,165.4,349.6,165.2,349.7z"/>
				</g>
				<g>
					<path class="st0" d="M180.2,291.1c-0.3,0.1-0.6,0.7-0.9,0l0,0.1C179.6,291.3,179.9,291.8,180.2,291.1L180.2,291.1z"/>
				</g>
				<g>
					<path class="st0" d="M163,347c0.2,0.1,0.4,0.2,0.5,0.2c0-0.1,0-0.2,0-0.3C163.3,347,163.1,347,163,347L163,347z"/>
				</g>
				<g>
					<path class="st0" d="M162.9,347c0-0.1,0.1-0.2,0.1-0.3c-0.1,0-0.2,0.1-0.3,0.1C162.8,346.8,162.9,346.9,162.9,347L162.9,347z"
						/>
				</g>
				<g>
					<path class="st2" d="M180.2,291.1c-0.3,0.6-0.6,0.2-1,0c-0.3-0.4-0.6-1,0.2-1.1C179.9,290,180.6,290.3,180.2,291.1z"/>
				</g>
			</g>
			<g>
				<g>
					<g>
						<path class="st0" d="M153,312.1"/>
					</g>
					<g>
						<path class="st0" d="M154.4,332.2c0.4-0.4,0.7-1.1,1.1-1.5c0.2-0.2,0.4-0.2,0.6-0.3c0.2-0.1,0.3-0.2,0.5-0.3
							c0.1-0.1,0.3-0.2,0.5-0.3c0.2,0,0.4-0.1,0.5-0.1c0.6,0,1.1,0.2,1.6,0.5c0.3,0.2,0.5,0.5,0.7,0.8c0.2,0.4,0.2,0.7-0.1,1
							c-0.2,0.2-0.4,0.3-0.6,0.4c-0.3,0.2-0.5,0.4-0.6,0.7c0,0.1-0.1,0.1-0.1,0.2c-0.2,0.3-0.4,0.6-0.6,0.9
							c-0.2,0.4-0.5,0.8-0.8,1.1c-0.1,0.2-0.3,0.3-0.4,0.4c-0.2,0.2-0.5,0.5-0.7,0.7c-0.4,0.4-0.6,0.8-0.6,1.3c0,0.4,0-0.4,0,0
							c0,0.7,0.3,3.6,0,1.7c0-0.1-0.3,0-0.3,0c-0.1,0.1-0.3,0.1-0.4-0.1c-0.1-0.2-0.1-0.4-0.1-0.7c0-0.4-0.1-1.4-0.1-1.8
							c0-0.3,0,0.2,0-0.1c-0.1-0.3-0.3-0.5-0.6-0.5c-0.4-0.1-0.7-0.3-0.9-0.6c-0.1-0.2-0.3-0.3-0.5-0.5c-0.4-0.2-0.8-0.4-1.3-0.5
							c-0.3-0.1-0.6-0.2-0.9-0.4c-0.2-0.1-0.4-0.2-0.7-0.2c-0.3,0-0.6-0.1-0.8-0.1c-4.2,0.2-8.8-2.2-11.2-5.9
							c2.3,0.9,4.2,3.3,6.8,2.3c0.3-0.2,0.6-0.4,0.9-0.5c0.2-0.1,0.4-0.1,0.6,0.1c0.2,0.1,0.5,0.2,0.8,0.2c0.3,0,0.5,0.2,0.6,0.5
							c0.1,0.2,0.1,0.4,0.2,0.6c0.1,0.5,0.4,0.8,0.8,1.1c0.2,0.1,0.4,0.1,0.6,0.2c0.2,0,0.5,0.1,0.7,0.1c0.2,0,0.3,0,0.5-0.1
							c0.2-0.2,0.5-0.2,0.8-0.1c0.2,0.1,0.3,0,0.4-0.1c0,0,0.1-0.1,0.1-0.1c-0.2-0.2-0.4-0.4-0.5-0.6c-0.2-0.3-0.2-0.9,0.2-1.1
							c0.2-0.1,0.3,0,0.4,0.1c0.2,0.1,0.3,0.3,0.4,0.5c0,0.1,0.1,0.1,0.1,0.2c0.1,0.1,0.1,0.1,0.2,0.1c0.3-0.1,0.6,0,0.9,0.1
							c0.2,0,0.3,0.1,0.5,0.1c0.2,0,0.2,0.4,0.4,0.4"/>
					</g>
					<g>
						<path class="st0" d="M130.9,321c0.1,0.4,1,1.7-0.4,0.8c-3.2-2.3-3.7-7.9-0.5-11.1C131.9,313.9,130.5,317.6,130.9,321
							C130.9,321,130.9,321,130.9,321z"/>
					</g>
					<g>
						<path class="st0" d="M158.6,324.6c0,0.3,0,0.5-0.2,0.7c-0.3,0.2-0.4,0.6-0.6,0.9c-0.2,0.3-0.3,0.6-0.6,0.9
							c-0.1,0.1-0.2,0.3-0.3,0.4c-0.1,0.1-0.2,0.3-0.3,0.4c-0.2,0.2-0.4,0.3-0.6,0.5c-0.2,0.2-0.4,0.2-0.7,0.3
							c-0.3,0.1-0.6,0.1-1,0.2c-0.1,0-0.3,0-0.5,0c-0.2,0-0.4-0.1-0.6-0.2c-0.2,0-0.3-0.1-0.4-0.2c-0.1-0.1-0.2-0.1-0.4-0.2
							c-0.4,0-0.9-0.2-1.3-0.3c-0.2-0.1-0.4-0.1-0.5-0.2c-0.2-0.1-0.3-0.3-0.3-0.6c0-0.1,0-0.2,0.1-0.2c0.1,0,0.2,0,0.3,0
							c0.4,0,0.7,0.1,1.1,0.1c0.4,0.1,0.8,0.2,1.1,0.6c0.2,0.2,0.4,0.2,0.6,0.2c0.3,0,0.6,0,1,0.1c0.3,0,0.6,0,0.9-0.2
							c0.4-0.3,0.8-0.6,1.1-1.1c0.1-0.2,0.2-0.4,0.2-0.6c0-0.2,0.1-0.4,0.3-0.6c0.1-0.2,0.2-0.3,0.2-0.5c0-0.4,0-0.8-0.3-1.1
							c-0.1-0.1-0.1-0.1-0.2-0.2c-0.3-0.2-0.5-0.4-0.8-0.6c-0.5-0.3-1-0.7-1.6-1c-0.4-0.1-0.6-0.4-0.7-0.7c-0.2-0.4-0.3-0.9-0.2-1.3
							c0-0.2,0.1-0.3,0.1-0.5c0.1-0.5,0.2-0.9,0.2-1.4c0-0.1,0-0.2,0-0.3c0-0.2,0.1-0.4,0.3-0.4c0.2-0.1,0.4,0,0.5,0.2
							c0.1,0.2,0.2,0.3,0.3,0.5c0.1,0.3,0.1,0.6,0.2,0.8c0,0.5,0.2,0.9,0.3,1.3c0.1,0.2,0.1,0.3,0.2,0.5c0.1,0.3,0.2,0.4,0.5,0.3
							c0.1,0,0.1,0,0.2,0c0.1,0,0.2,0,0.2,0.2c0,0.1,0,0.3,0.1,0.4c0.1,0.3,0.3,0.5,0.6,0.5c0.1,0,0.2,0.1,0.3,0.2
							c0.2,0.2,0.5,0.5,0.6,0.8c0.1,0.2,0.2,0.5,0.4,0.7c0.1,0.1,0.2,0.2,0.2,0.3C158.6,324.2,158.6,324.4,158.6,324.6
							C158.7,324.6,158.6,324.6,158.6,324.6z"/>
					</g>
					<g>
						<path class="st0" d="M143.3,313.3c0,0.2-0.1,0.4-0.3,0.5c-0.2,0.2-0.4,0.4-0.5,0.6c-0.1,0.3-0.4,0.5-0.7,0.5
							c-0.3,0-0.4,0.2-0.5,0.4c-0.1,0.4-0.5,0.6-0.8,0.8c-0.1,0-0.2,0.1-0.3,0.1c-0.2,0.1-0.4,0.2-0.4,0.5c-0.1,0.2-0.2,0.3-0.3,0.4
							c-0.2,0.2-0.3,0.4-0.3,0.6c0,0.6-0.1,1.1-0.2,1.7c-0.1,0.4-0.1,0.7,0,1.1c0.1,0.3,0.1,0.6,0.1,0.9c0,0.3,0.1,0.5,0.2,0.7
							c0.2,0.3,0.2,0.7,0.2,1c0,0.1,0,0.1-0.1,0.2c-0.1,0.2-0.3,0.3-0.5,0.2c-0.1-0.1-0.2-0.2-0.3-0.3c-0.2-0.2-0.4-0.5-0.6-0.7
							c-0.4-0.5-0.7-0.9-0.7-1.6c0-0.1,0-0.3,0-0.4c0-0.6-0.1-1.3-0.1-1.9c0-0.1,0-0.2,0-0.3c0-0.6,0.1-1.2,0.1-1.8
							c0-0.3,0-0.6,0-0.9c0-0.1,0-0.1,0-0.2c0-0.2,0-0.4-0.1-0.5c-0.1-0.1-0.1-0.2-0.2-0.3c-0.2-0.3,0-0.7,0.3-0.8
							c0.2-0.1,0.3,0,0.3,0.1c0,0.1,0.1,0.2,0.1,0.4c0.1,0.3,0.2,0.4,0.5,0.5c0.2,0,0.4,0.1,0.5,0.1c0.1,0,0.2,0.1,0.3,0.3
							c0.1,0.1,0.1,0.3,0.2,0.4c0.1,0.1,0.2,0.1,0.3,0.1c0.1,0,0.1-0.1,0.2-0.1c0.3-0.3,0.6-0.4,0.9-0.5c0.1,0,0.2-0.1,0.4-0.1
							c0.2,0,0.3-0.2,0.4-0.3c0.1-0.3,0.3-0.5,0.6-0.7c0.2-0.1,0.3-0.2,0.5-0.4c0.2-0.2,0.4-0.4,0.7-0.4
							C143.2,312.9,143.3,313.1,143.3,313.3z"/>
					</g>
					<g>
						<path class="st0" d="M145.5,328.9c-0.6,0-1,0-1.4-0.1c-0.3,0-0.6-0.2-0.9-0.4c-0.2-0.2-0.4-0.3-0.7-0.4
							c-0.5-0.2-0.9-0.5-1.2-1c-0.1-0.2-0.3-0.3-0.4-0.4c-0.1-0.1-0.2-0.2-0.3-0.3c-0.2-0.2-0.3-0.4-0.5-0.6
							c-0.1-0.1-0.2-0.2-0.2-0.4c-0.1-0.1-0.2-0.3-0.3-0.4c-0.2-0.2-0.3-0.4-0.2-0.7c0-0.1,0.1-0.2,0.2-0.3c0.1-0.1,0.3-0.1,0.4,0.1
							c0,0.1,0.1,0.1,0.1,0.2c0.1,0.3,0.4,0.6,0.7,0.8c0.2,0.2,0.4,0.1,0.4-0.2c0-0.4-0.1-0.8-0.5-1c-0.2-0.1-0.3-0.2-0.4-0.3
							c-0.2-0.1-0.3-0.2-0.3-0.4c0-0.1,0-0.3,0-0.4c0-0.3,0-0.5,0-0.8c0-0.2,0.1-0.4,0.1-0.6c0-0.2,0.1-0.4,0.1-0.6
							c0-0.6,0.1-1.2,0.3-1.8c0.1-0.4,0.2-0.8,0.3-1.3c0-0.2,0.1-0.3,0.3-0.4c0.5-0.3,0.8-0.3,1.2,0c0.3,0.2,0.3,0.4,0.2,0.7
							c-0.1,0.2-0.2,0.5-0.3,0.8c-0.1,0.3-0.2,0.6-0.5,0.7c-0.1,0.1-0.2,0.1-0.2,0.2c-0.2,0.2-0.3,0.4-0.3,0.7
							c0,0.2-0.1,0.4-0.1,0.5c0,0.1,0,0.1,0,0.2c0,0.3,0,0.7,0,1c0,0.2,0.1,0.4,0.2,0.6c0.1,0.2,0.2,0.3,0.3,0.5
							c0.2,0.6,0.8,0.7,1.2,0.7c0.2,0,0.4,0,0.5,0c0.4,0,0.6,0.4,0.5,0.8c-0.1,0.2-0.2,0.5-0.4,0.7c-0.1,0.2-0.3,0.3-0.5,0.3
							c-0.1,0-0.2,0-0.3,0.1c-0.2,0.1-0.3,0.2-0.2,0.4c0.1,0.2,0.2,0.4,0.4,0.5c0.6,0.4,1.3,0.8,1.9,1c0.2,0.1,0.4,0.1,0.6,0.1
							c0.4-0.1,0.7,0,1.1,0.2c0,0,0.1,0,0.1,0.1c0.2,0.1,0.2,0.2,0.1,0.4C146.1,328.7,145.7,328.9,145.5,328.9z"/>
					</g>
					<g>
						<path class="st0" d="M135.1,309.8c0.1-0.2,0.1-0.4,0.2-0.5c0.1-0.2,0.2-0.3,0.2-0.5c0.1-0.2,0.2-0.4,0.5-0.5
							c0.2-0.1,0.4-0.2,0.7-0.2c0.2,0,0.3,0,0.5,0.1c0.1,0.1,0.3,0.2,0.4,0.4c0.1,0.2,0.2,0.3,0.1,0.5c-0.1,0.2-0.1,0.5,0,0.7
							c0,0.1,0,0.3,0,0.4c-0.1,0.4-0.1,0.8,0,1.2c0,0.3,0,0.6-0.2,0.9c-0.1,0.2-0.3,0.5-0.6,0.5c-0.3,0-0.5-0.1-0.7-0.3
							c-0.3-0.3-0.4-0.7-0.4-1.2c0-0.3-0.1-0.6-0.3-0.8C135.2,310.3,135.1,310.1,135.1,309.8C135.1,309.8,135.1,309.8,135.1,309.8z"
							/>
					</g>
					<g>
						<path class="st0" d="M145.5,325.6c0.4,0,0.8,0.4,0.7,0.7c-0.1,0.4-0.4,0.7-0.8,0.8c-0.4,0.1-0.8-0.1-0.8-0.5
							c0-0.3,0-0.7,0.4-0.8C145.1,325.7,145.3,325.6,145.5,325.6C145.5,325.6,145.5,325.6,145.5,325.6z"/>
					</g>
					<g>
						<path class="st0" d="M132.3,324.3c0,0.2-0.2,0.3-0.3,0.2c-0.4-0.2-0.6-0.5-0.7-0.9c0,0,0-0.1,0.1-0.1c0,0,0.1,0,0.1,0
							c0.2,0.1,0.3,0.2,0.5,0.3C132.2,323.9,132.3,324.1,132.3,324.3z"/>
					</g>
				</g>
			</g>
			<g>
				<path class="st3" d="M155.5,370.1c-6.6,0-12-6.3-12-13.9c0-7.7,5.4-13.9,12-13.9c6.6,0,12,6.3,12,13.9
					C167.6,363.9,162.2,370.1,155.5,370.1z M155.5,343.7c-5.9,0-10.6,5.6-10.6,12.5c0,6.9,4.8,12.5,10.6,12.5
					c5.9,0,10.7-5.6,10.7-12.5C166.2,349.3,161.4,343.7,155.5,343.7z"/>
			</g>
			<g>
				<path class="st0" d="M154.3,336.9c0,0,0.4,5.1-1.2,5.7c-1.6,0.6,1.6,0.3,1.6,0.3v-3.9v-1.2L154.3,336.9z"/>
			</g>
		</g>
		<g>
			<path class="st3" d="M363.1,413c-1.4,0-2.5-0.6-3.2-1.7L316,342.4v66.8c0,2.1-1.7,3.8-3.8,3.8H299c-2.1,0-3.8-1.7-3.8-3.8V308.2
				c0-2.1,1.7-3.7,3.8-3.7h13.2c1.4,0,2.5,0.6,3.2,1.7l44,68.9v-66.8c0-2.1,1.7-3.7,3.8-3.7h13.1c2.1,0,3.8,1.6,3.8,3.7v100.9
				c0,2.1-1.7,3.8-3.8,3.8H363.1z"/>
			<path class="st3" d="M397.1,413c-2.1,0-3.8-1.7-3.8-3.8V308.2c0-2.1,1.7-3.7,3.8-3.7h63.8c2.1,0,3.8,1.6,3.8,3.7V320
				c0,2.1-1.7,3.8-3.8,3.8h-46.7v24.7h42.3c2.2,0,3.8,1.7,3.8,3.8v11.8c0,2.1-1.7,3.8-3.8,3.8h-42.3v25.5h46.7
				c2.1,0,3.8,1.7,3.8,3.8v11.8c0,2.1-1.7,3.8-3.8,3.8H397.1z"/>
			<path class="st3" d="M498,410.5c-6.9-2.9-12.7-7.3-17.6-13.1c-4.3-5.2-7.6-11.2-9.8-18.1c-2-6.4-3.1-13.3-3.1-20.5
				c0-7.3,1-14.1,3.1-20.5c2.2-7,5.5-13,9.8-18.2c4.9-5.8,10.7-10.1,17.6-13c6.5-2.8,13.7-4.2,21.6-4.2c6.1,0,12.1,0.8,18.1,2.4
				c6.3,1.7,11.9,4,16.8,7.1c1.2,0.8,1.8,1.9,1.8,3.3c0,0.7-0.1,1.3-0.5,1.9l-5.9,10.3c-0.8,1.3-2,1.9-3.4,1.9
				c-0.7,0-1.4-0.2-2.1-0.7c-3.2-2.3-7.1-4-11.8-5.3c-4.3-1.1-8.6-1.7-13-1.7c-5,0-9.5,1-13.5,3c-4.1,2-7.6,5.1-10.5,9.1
				c-4.6,6.7-7,14.9-7,24.8c0,9.8,2.3,18.1,7,24.7c5.7,8.1,13.7,12.1,24.1,12.1c4,0,7.9-0.5,11.9-1.5c4.3-1,8.1-2.5,11.2-4.5V368
				h-18c-2.1,0-3.8-1.7-3.8-3.8v-11.8c0-2.1,1.7-3.8,3.8-3.8h33.6c2.2,0,3.8,1.7,3.8,3.8v45c0,1.1-0.4,1.9-1.1,2.7
				c-4.9,4.7-11.4,8.4-19.3,11c-7.3,2.4-14.6,3.6-22.1,3.6C511.7,414.7,504.5,413.3,498,410.5z"/>
			<path class="st3" d="M632.4,413c-1.4,0-2.5-0.6-3.3-1.9l-24.7-42.9h-13.3v41c0,2.1-1.6,3.8-3.7,3.8h-13.4c-2.1,0-3.8-1.7-3.8-3.8
				V308.2c0-2.1,1.7-3.7,3.8-3.7h36.8c8.5,0,16,2.1,22.3,6.3c8.7,5.8,13.7,15.1,13.7,25.6c0,5.2-1.2,10.1-3.6,14.5
				c-3.7,6.8-9.5,11.7-17.2,14.6l24.1,41.8c0.4,0.6,0.6,1.2,0.6,1.9c0,0.7-0.2,1.3-0.6,1.9c-0.7,1.3-1.8,1.9-3.3,1.9H632.4z
				 M610.7,348.7c4.1,0,7.6-1,10.3-2.8c3.1-2.3,4.7-5.4,4.7-9.5c0-4.1-1.6-7.3-4.7-9.5c-2.8-1.9-6.2-2.9-10.3-2.9h-19.6v24.8H610.7z
				"/>
			<path class="st3" d="M671,410.4c-0.7,1.7-1.9,2.5-3.6,2.5h-14.2c-1.5,0-2.5-0.5-3.2-1.6c-0.3-0.6-0.4-1.3-0.4-2
				c0-0.7,0.4-2,1.1-3.8l35.7-98.5c0.5-1.5,1.9-2.5,3.5-2.5h18.4c1.7,0,2.9,0.8,3.6,2.5l35.7,98.5c0.7,1.8,1,3.1,1,3.8
				c0,0.7-0.1,1.4-0.5,2c-0.6,1.1-1.6,1.6-3.1,1.6h-14.2c-1.7,0-2.9-0.8-3.6-2.5l-8.7-24.6h-38.8L671,410.4z M711.6,366.4
				l-12.5-35.6l-12.6,35.6H711.6z"/>
			<path class="st3" d="M750.5,344.4c-1.3-3.4-2-7-2-10.8c0-5.5,1.2-10.4,3.6-14.8c5.6-10.6,16.1-16,31.3-16
				c12.4,0,23.2,3.2,32.3,9.6c1.2,0.8,1.8,1.9,1.8,3.3c0,0.6-0.2,1.2-0.5,1.8l-5.9,10.3c-0.8,1.3-1.9,1.9-3.3,1.9
				c-0.8,0-1.6-0.2-2.2-0.8c-2.2-1.6-5.2-3.2-9.3-5c-4-1.8-8.2-2.8-12.8-2.8c-3.7,0-6.8,0.7-9.4,2.3c-3.1,1.9-4.6,4.5-4.6,7.6
				c0,4.9,3.7,9.7,11.1,14.3c2.6,1.6,5.9,3.4,9.8,5.5c8,4.4,13.8,8.2,17.5,11.3c3.4,3,6,6.7,7.6,11c1.3,3.4,2,7,2,10.8
				c0,5.5-1.2,10.4-3.6,14.8c-5.6,10.6-16.1,16-31.3,16c-12.4,0-23.2-3.2-32.3-9.6c-1.2-0.8-1.8-1.9-1.8-3.3c0-0.6,0.1-1.2,0.5-1.8
				l5.9-10.3c0.8-1.3,1.9-1.9,3.3-1.9c0.8,0,1.6,0.2,2.2,0.7c2.2,1.6,5.3,3.2,9.2,5c4,1.8,8.3,2.8,12.9,2.8c4.4,0,7.8-1,10.3-3.1
				c2.5-1.9,3.7-4.2,3.7-6.8c0-4.9-2.8-9.1-8.6-12.9c-2.8-1.7-6.7-4-11.5-6.6c-8.4-4.6-14.5-8.5-18.2-11.7
				C754.7,352.4,752.2,348.7,750.5,344.4z"/>
		</g>
		<g>
			<path class="st3" d="M295.3,285.9c-0.7,0-1.3-0.6-1.3-1.3v-34.5c0-0.7,0.6-1.3,1.3-1.3h12.5c2.9,0,5.5,0.7,7.6,2.2
				c3,2,4.7,5.1,4.7,8.7c0,3.2-1.3,5.6-4,7.1c3.4,2.3,5.1,5,5.1,8.1c0,3.6-1.7,6.8-4.8,8.8c-2.2,1.4-4.8,2.2-7.7,2.2H295.3z
				 M307.8,264c1.4,0,2.6-0.3,3.5-1c1.1-0.8,1.6-1.8,1.6-3.3c0-1.4-0.5-2.5-1.6-3.3c-0.9-0.7-2.1-1-3.5-1h-6.7v8.5H307.8z
				 M308.8,279.3c1.5,0,2.7-0.3,3.6-1c1.1-0.8,1.7-1.9,1.7-3.3c0-1.4-0.6-2.5-1.7-3.3c-0.9-0.7-2.2-1-3.6-1h-7.7v8.7H308.8z"/>
			<path class="st3" d="M325.3,285.9c-0.7,0-1.3-0.6-1.3-1.3v-34.5c0-0.7,0.6-1.3,1.3-1.3h4.6c0.7,0,1.3,0.6,1.3,1.3v29.1h15.9
				c0.7,0,1.3,0.6,1.3,1.3v4c0,0.7-0.6,1.3-1.3,1.3H325.3z"/>
			<path class="st3" d="M357,285.1c-2.4-1-4.4-2.5-6-4.5c-1.5-1.8-2.6-3.8-3.4-6.2c-0.7-2.2-1.1-4.5-1.1-7c0-2.5,0.4-4.8,1.1-7
				c0.7-2.4,1.9-4.5,3.4-6.2c1.7-2,3.7-3.5,6-4.5c2.2-0.9,4.7-1.4,7.4-1.4c2.7,0,5.1,0.5,7.4,1.4c2.4,1,4.4,2.5,6,4.5
				c1.5,1.8,2.6,3.8,3.4,6.2c0.7,2.2,1,4.5,1,7c0,2.5-0.4,4.8-1,7c-0.7,2.4-1.9,4.4-3.4,6.2c-1.7,2-3.7,3.5-6,4.5
				c-2.2,0.9-4.7,1.4-7.4,1.4C361.7,286.5,359.2,286,357,285.1z M372.6,275.9c1.6-2.3,2.4-5.1,2.4-8.5c0-3.4-0.8-6.2-2.4-8.5
				c-2-2.7-4.7-4.1-8.2-4.1s-6.3,1.4-8.2,4.1c-1.6,2.3-2.4,5.1-2.4,8.5c0,3.4,0.8,6.2,2.4,8.5c1.9,2.8,4.7,4.1,8.2,4.1
				C368,280,370.7,278.6,372.6,275.9z"/>
			<path class="st3" d="M394.4,285.1c-2.4-1-4.4-2.5-6-4.5c-1.5-1.8-2.6-3.8-3.4-6.2c-0.7-2.2-1-4.5-1-7c0-2.5,0.4-4.8,1-7
				c0.7-2.4,1.9-4.5,3.4-6.2c1.7-2,3.7-3.5,6-4.5c2.2-0.9,4.7-1.4,7.4-1.4c2.1,0,4.1,0.3,6.2,0.8c2.2,0.6,4.1,1.4,5.7,2.4
				c0.4,0.3,0.6,0.6,0.6,1.1c0,0.2-0.1,0.4-0.2,0.6l-2,3.5c-0.3,0.4-0.7,0.6-1.2,0.6c-0.3,0-0.5-0.1-0.7-0.2c-1.1-0.8-2.4-1.4-4-1.8
				c-1.5-0.4-2.9-0.6-4.5-0.6c-1.7,0-3.3,0.3-4.6,1c-1.4,0.7-2.6,1.7-3.6,3.1c-1.6,2.3-2.4,5.1-2.4,8.5c0,3.4,0.8,6.2,2.4,8.5
				c1.9,2.8,4.7,4.1,8.2,4.1c1.4,0,2.7-0.2,4.1-0.5c1.5-0.4,2.8-0.9,3.8-1.5v-7.4h-6.1c-0.7,0-1.3-0.6-1.3-1.3v-4
				c0-0.7,0.6-1.3,1.3-1.3h11.5c0.7,0,1.3,0.6,1.3,1.3v15.4c0,0.4-0.1,0.7-0.4,0.9c-1.7,1.6-3.9,2.9-6.6,3.8c-2.5,0.8-5,1.2-7.6,1.2
				C399.1,286.5,396.7,286,394.4,285.1z"/>
			<path class="st3" d="M427.3,285.3c-1.9-0.8-3.6-2-4.9-3.7c-1.2-1.5-2.2-3.2-2.8-5.1c-0.6-1.8-0.9-3.7-0.9-5.8v-20.6
				c0-0.7,0.6-1.3,1.3-1.3h4.6c0.7,0,1.3,0.6,1.3,1.3v20.6c0,2.5,0.6,4.5,1.7,6.1c1.4,2,3.3,2.9,5.8,2.9c2.5,0,4.4-1,5.8-2.9
				c1.2-1.7,1.7-3.7,1.7-6.1v-20.6c0-0.7,0.6-1.3,1.3-1.3h4.6c0.7,0,1.3,0.6,1.3,1.3v20.6c0,2-0.3,3.9-0.9,5.8
				c-0.6,1.9-1.5,3.7-2.8,5.1c-1.4,1.6-3,2.8-5,3.7c-1.8,0.8-3.9,1.2-6.1,1.2C431.2,286.5,429.1,286.1,427.3,285.3z"/>
			<path class="st3" d="M453.1,285.9c-0.7,0-1.3-0.6-1.3-1.3v-34.5c0-0.7,0.6-1.3,1.3-1.3H475c0.7,0,1.3,0.6,1.3,1.3v4
				c0,0.7-0.6,1.3-1.3,1.3h-16v8.4h14.4c0.7,0,1.3,0.6,1.3,1.3v4c0,0.7-0.6,1.3-1.3,1.3H459v8.7h16c0.7,0,1.3,0.6,1.3,1.3v4
				c0,0.7-0.6,1.3-1.3,1.3H453.1z"/>
			<path class="st3" d="M480.4,285.9c-0.7,0-1.3-0.6-1.3-1.3v-34.5c0-0.7,0.6-1.3,1.3-1.3h4.6c0.7,0,1.3,0.6,1.3,1.3v34.5
				c0,0.7-0.6,1.3-1.3,1.3H480.4z"/>
			<path class="st3" d="M512.1,285.9c-0.5,0-0.9-0.2-1.1-0.6l-8.5-14.7h-4.5v14c0,0.7-0.6,1.3-1.3,1.3h-4.6c-0.7,0-1.3-0.6-1.3-1.3
				v-34.5c0-0.7,0.6-1.3,1.3-1.3h12.6c2.9,0,5.5,0.7,7.6,2.2c3,2,4.7,5.1,4.7,8.7c0,1.8-0.4,3.5-1.2,5c-1.3,2.3-3.3,4-5.9,5
				l8.2,14.3c0.1,0.2,0.2,0.4,0.2,0.6c0,0.2-0.1,0.4-0.2,0.7c-0.2,0.4-0.6,0.6-1.1,0.6H512.1z M504.6,264c1.4,0,2.6-0.3,3.5-1
				c1.1-0.8,1.6-1.8,1.6-3.3c0-1.4-0.5-2.5-1.6-3.3c-0.9-0.7-2.1-1-3.5-1h-6.7v8.5H504.6z"/>
			<path class="st3" d="M525.2,285.1c-0.2,0.6-0.6,0.9-1.2,0.9h-4.9c-0.5,0-0.9-0.2-1.1-0.6c-0.1-0.2-0.2-0.4-0.2-0.7
				c0-0.3,0.1-0.7,0.4-1.3l12.2-33.7c0.2-0.5,0.7-0.8,1.2-0.8h6.3c0.6,0,1,0.3,1.2,0.8l12.2,33.7c0.2,0.6,0.4,1,0.4,1.3
				c0,0.3-0.1,0.5-0.2,0.7c-0.2,0.4-0.6,0.6-1.1,0.6h-4.9c-0.6,0-1-0.3-1.2-0.9l-3-8.4h-13.3L525.2,285.1z M539.1,270l-4.3-12.2
				l-4.3,12.2H539.1z"/>
			<path class="st3" d="M552.4,262.5c-0.5-1.2-0.7-2.4-0.7-3.7c0-1.9,0.4-3.6,1.2-5.1c1.9-3.6,5.5-5.5,10.7-5.5
				c4.2,0,7.9,1.1,11,3.3c0.4,0.3,0.6,0.6,0.6,1.1c0,0.2-0.1,0.4-0.2,0.6l-2,3.5c-0.3,0.4-0.6,0.7-1.1,0.7c-0.3,0-0.5-0.1-0.8-0.3
				c-0.7-0.5-1.8-1.1-3.2-1.7c-1.4-0.6-2.8-0.9-4.4-1c-1.3,0-2.3,0.3-3.2,0.8c-1.1,0.7-1.6,1.5-1.6,2.6c0,1.7,1.3,3.3,3.8,4.9
				c0.9,0.5,2,1.2,3.4,1.9c2.7,1.5,4.7,2.8,6,3.9c1.2,1,2,2.3,2.6,3.8c0.5,1.2,0.7,2.4,0.7,3.7c0,1.9-0.4,3.6-1.2,5.1
				c-1.9,3.6-5.5,5.5-10.7,5.5c-4.2,0-7.9-1.1-11-3.3c-0.4-0.3-0.6-0.6-0.6-1.1c0-0.2,0.1-0.4,0.2-0.6l2-3.5
				c0.3-0.4,0.6-0.7,1.1-0.7c0.3,0,0.5,0.1,0.8,0.3c0.7,0.5,1.8,1.1,3.1,1.7c1.4,0.6,2.8,0.9,4.4,1c1.5,0,2.7-0.4,3.5-1
				c0.8-0.7,1.3-1.4,1.3-2.3c0-1.7-1-3.1-2.9-4.4c-1-0.6-2.3-1.4-3.9-2.3c-2.9-1.6-4.9-2.9-6.2-4C553.9,265.3,553,264,552.4,262.5z"
				/>
		</g>
	</g>
</g>
</svg>
