<svg id="Camada_1" xmlns="http://www.w3.org/2000/svg" viewBox="81.4 259.3 443.8 258.5"><style>.st0{fill:#fff}.st1{fill:#fefefe}</style><path class="st0" d="M83 259.4h42.2c-15.1 4.9-29.3 11.8-42.2 20.5v-20.5zM488.8 423c12.5-.7 24.7-2.7 36.4-6v34.3h-36.4V423zm0 57.9h36.4v36.9h-36.4zM356.6 259.4h168.6v105.8c-14.1 5.7-29.6 8.9-45.7 8.9-65.1-.1-118.6-50.8-122.9-114.7z"/><path class="st1" d="M323.9 468.6H334l-5.1-11.1z"/><path class="st1" d="M459.3 451.3V422c-82.7-9.8-147.9-78.4-152-162.7h-75.4c69 22.5 119 87.6 119 163.8h-49.2c0-67.8-55.4-123.1-123.1-123.1-38.5 0-72.9 17.9-95.5 45.6V459c.9-1.7 2.2-3.3 3.9-4.6 3.7-2.9 8.5-4.3 14.6-4.3 5.1 0 9.2 1 12.3 2.9 3.1 2 5 4.7 5.6 8.2l-10 .6c-.2-1.9-1-3.5-2.4-4.7-1.4-1.1-3.2-1.7-5.4-1.7-2.9 0-5.2.9-6.8 2.7-1.5 1.7-2.3 4.3-2.3 7.7s.8 5.9 2.3 7.5c1.5 1.7 3.8 2.6 6.8 2.6 2.2 0 3.9-.5 5.4-1.6 1.4-1 2.3-2.4 2.8-4.4l9.7.6c-.7 3.4-2.7 6.2-5.8 8-3.2 1.9-7.2 2.9-12.2 2.9-6.1 0-11-1.4-14.6-4.2-1.7-1.3-3-2.8-3.9-4.5v45.1h376.2v-36.9H410v-29.5h49.3v-.1zm-298.4 5h-20.8v6.9h16.3v5.2h-16.3V481h-10.6v-30.1h31.4v5.4zm40.8 24.6h-32.6v-30.1h32.3v5.4h-22v6.5h17.7v5.1h-17.7v7.5h22.3v5.6zm57.5 0h-10.1l.1-23.9-11.2 23.9h-6.9l-11.1-24 .2 24h-8.3v-30.1h14l9.7 19.9 9-19.9h14.6v30.1zm45.2 0h-32.6v-30.1h32.3v5.4h-22v6.5h17.8v5.1h-17.8v7.5h22.4l-.1 5.6zm35 0l-3.3-7.2h-14.3l-3.2 7.2h-8.8l14.4-30.1h11.6l14.5 30.1h-10.9zm-258-15c0 2.6.5 4.9 1.6 6.9v-13.7c-1 2-1.6 4.2-1.6 6.8z"/><path class="st0" d="M356.6 259.4h168.6v105.8c-14.1 5.7-29.6 8.9-45.7 8.9-65.1-.1-118.6-50.8-122.9-114.7z"/></svg>