<svg id="Camada_1" xmlns="http://www.w3.org/2000/svg" viewBox="0 0 600 600"><style>.st0{fill:#fff}</style><path class="st0" d="M226.1 271.8c-4.1-2.6-5.3-8-2.7-12 2.6-4.1 7.9-5.3 12-2.7 4 2.6 5.3 8 2.7 12-.3.5-.7 1.1-1.2 1.5-2.8 2.8-7.3 3.4-10.8 1.2zm-24.9-37.5c-4.1-2.6-5.3-8-2.7-12 2.6-4 7.9-5.3 11.9-2.7 4 2.6 5.3 8 2.7 12-.3.5-.7 1-1.2 1.5-2.8 2.9-7.2 3.5-10.7 1.2zm-7.5-42.4c-4.1-2.6-5.3-8-2.7-12 2.6-4 7.9-5.2 11.9-2.7 4 2.6 5.3 8 2.7 12-.3.5-.7 1.1-1.2 1.5-2.7 2.9-7.2 3.5-10.7 1.2zm7.5-44.9c-4.1-2.6-5.3-8-2.7-12 2.6-4 7.9-5.2 11.9-2.7 4 2.6 5.3 8 2.7 12-.3.5-.7 1-1.2 1.5-2.8 2.9-7.2 3.5-10.7 1.2zm24.9-34.9c-4.1-2.6-5.3-8-2.7-12 2.6-4 7.9-5.2 12-2.7 4 2.6 5.3 8 2.7 12-.3.5-.7 1-1.2 1.5-2.8 2.9-7.3 3.4-10.8 1.2zm157.2 0c-4.1-2.6-5.3-8-2.7-12 2.6-4 7.9-5.2 11.9-2.7 4 2.6 5.3 8 2.7 12-.3.5-.7 1-1.2 1.5-2.7 2.9-7.2 3.4-10.7 1.2zm24.9 37.4c-4.1-2.6-5.3-8-2.7-12 2.6-4 7.9-5.3 11.9-2.7 4 2.6 5.3 8 2.7 12-.3.5-.7 1.1-1.2 1.5-2.7 2.9-7.2 3.5-10.7 1.2zm7.5 42.4c-4.1-2.6-5.3-8-2.7-12 2.6-4 7.9-5.2 11.9-2.7 4 2.6 5.3 8 2.7 12-.3.5-.7 1.1-1.2 1.5-2.7 2.9-7.2 3.5-10.7 1.2zm-7.5 42.4c-4.1-2.6-5.3-8-2.7-12 2.6-4 7.9-5.3 11.9-2.7 4 2.6 5.3 8 2.7 12-.3.5-.7 1-1.2 1.5-2.7 2.9-7.2 3.5-10.7 1.2zm-22.4 37.5c-4.1-2.6-5.3-8-2.7-12 2.6-4.1 7.9-5.3 11.9-2.7 4 2.6 5.3 8 2.7 12-.3.5-.7 1.1-1.2 1.5-2.8 2.8-7.2 3.4-10.7 1.2zm-37.4 24.9c-4.1-2.6-5.3-8-2.7-12 2.6-4 7.9-5.2 11.9-2.7 4 2.6 5.3 8 2.7 12-.3.5-.7 1.1-1.2 1.5-2.8 2.9-7.2 3.4-10.7 1.2zm-44.9 7.5c-4.1-2.6-5.3-8-2.7-12 2.6-4 7.9-5.2 11.9-2.7 4 2.6 5.3 8 2.7 12-.3.5-.7 1.1-1.2 1.5-2.8 2.9-7.2 3.4-10.7 1.2zm-42.4-7.5c-4.1-2.6-5.3-8-2.7-12 2.6-4 7.9-5.2 11.9-2.7 4 2.6 5.3 8 2.7 12-.3.5-.7 1.1-1.2 1.5-2.8 2.9-7.3 3.4-10.7 1.2zM248.3 249c-3.1-2-4.1-6.1-2.1-9.2 2-3.1 6.1-4 9.2-2.1 3.1 2 4.1 6.1 2.1 9.3-.3.4-.6.8-.9 1.1-2.2 2.2-5.6 2.6-8.3.9zM230 221.5c-3.1-2-4.1-6.1-2.1-9.2 2-3.1 6.1-4 9.2-2.1 3.1 2 4.1 6.1 2.1 9.3l-.9 1.2c-2.2 2.1-5.6 2.5-8.3.8zm-5.5-31.1c-3.1-2-4.1-6.1-2.1-9.3 2-3.1 6.1-4 9.2-2.1 3.1 2 4.1 6.1 2.1 9.3l-.9 1.2c-2.2 2.2-5.6 2.6-8.3.9zm5.5-32.9c-3.1-2-4.1-6.1-2.1-9.2 2-3.1 6.1-4.1 9.2-2.1 3.1 2 4.1 6.1 2.1 9.3l-.9 1.2c-2.2 2-5.6 2.5-8.3.8zm18.3-25.7c-3.1-2-4.1-6.1-2.1-9.2 2-3.1 6.1-4.1 9.2-2.1 3.1 2 4.1 6.1 2.1 9.3-.3.4-.6.8-.9 1.1-2.2 2.2-5.6 2.7-8.3.9zm115.3 0c-3.1-2-4.1-6.1-2.1-9.2 2-3.1 6.1-4.1 9.2-2.1 3.1 2 4.1 6.1 2.1 9.3-.3.4-.6.8-.9 1.1-2.2 2.2-5.6 2.7-8.3.9zm18.3 27.5c-3.1-2-4.1-6.1-2.1-9.2 2-3.1 6.1-4 9.2-2.1 3.1 2 4.1 6.1 2.1 9.3l-.9 1.2c-2.2 2.1-5.6 2.5-8.3.8zm5.5 31.1c-3.1-2-4.1-6.1-2.1-9.3 2-3.1 6.1-4 9.2-2.1 3.1 2 4.1 6.1 2.1 9.3l-.9 1.2c-2.2 2.2-5.6 2.6-8.3.9zm-5.5 31.1c-3.1-2-4.1-6.1-2.1-9.2 2-3.1 6.1-4 9.2-2.1 3.1 2 4.1 6.1 2.1 9.3l-.9 1.2c-2.2 2.1-5.6 2.5-8.3.8zM365.4 249c-3.1-2-4.1-6.1-2.1-9.2 2-3.1 6.1-4 9.2-2.1 3.1 2 4.1 6.1 2.1 9.3-.3.4-.6.8-.9 1.1-2.1 2.2-5.6 2.6-8.3.9zM338 267.3c-3.1-2-4.1-6.1-2.1-9.3 2-3.1 6.1-4 9.2-2.1 3.1 2 4.1 6.1 2.1 9.3-.3.4-.6.8-.9 1.1-2.2 2.3-5.6 2.7-8.3 1zm-33 5.5c-3.1-2-4.1-6.1-2.1-9.3 2-3.1 6.1-4 9.2-2.1 3.1 2 4.1 6.1 2.1 9.3-.3.4-.6.8-.9 1.1-2.1 2.3-5.6 2.7-8.3 1zm-31.1-5.5c-3.1-2-4.1-6.1-2.1-9.3 2-3.1 6.1-4 9.2-2.1 3.1 2 4.1 6.1 2.1 9.3-.3.4-.6.8-.9 1.1-2.2 2.3-5.6 2.7-8.3 1zm5.5-74.4c1.5 0 3 .9 3.5 2.5.6 1.6 1.3 3.2 2.2 4.6 5 8.4 13.9 13.4 23.6 13.4 2.1 0 3.8 1.7 3.8 3.8 0 2.1-1.7 3.8-3.8 3.8-12.2 0-23.8-6.5-30.1-17-1.1-1.9-2.1-3.8-2.8-5.9-.7-1.9.3-4.1 2.2-4.8.5-.3.9-.4 1.4-.4zm1.6-7c0 2.1-1.7 3.8-3.8 3.8-2.1 0-3.8-1.7-3.8-3.8 0-2.1 1.7-3.8 3.8-3.8 2.1 0 3.8 1.7 3.8 3.8z"/><path class="st0" d="M349.9 159.1l-1.9-2.9h-.1c-1.9-2.7-3.8-5.2-5.7-7.5l-5 4c2 2.6 4.2 5.2 6.1 8.1l1.2 1.8c4.5 6.8 6.8 14.8 6.8 23.3 0 23.4-19 42.5-42.4 42.5-23.4-.1-42.4-19.1-42.4-42.5 0-8.5 2.4-16.5 6.9-23.3h.1l1.2-1.8c1.9-2.9 4.1-5.6 6.2-8.2 5.3-6.6 10.3-12.9 10.3-21.3v-2.8c.1-5.3 2.2-7.3 7.8-7.3h20.2c5.6 0 7.7 2 7.8 7.3v2.8c0 8.4 5 14.7 10.3 21.3l4.9-4c-5-6.2-8.9-11.2-8.9-17.3v-2.9c-.1-8.7-5.2-13.5-14.2-13.5h-20.2c-11.5 0-14 7.4-14.2 13.6v2.9c0 6.1-4.1 11.3-8.9 17.3-2.1 2.6-4 5-5.8 7.6l-1.9 2.9c-5.2 7.9-7.9 17.1-7.9 26.8 0 26.9 21.9 48.8 48.8 48.9 26.9-.1 48.8-22 48.8-48.9 0-9.8-2.7-19-7.9-26.9zm-24.1-61.8h-33c-1.6 0-2.9 1.7-2.9 3.7 0 2.1 1.3 3.7 2.9 3.7h33c1.6 0 2.9-1.7 2.9-3.7 0-2.1-1.3-3.7-2.9-3.7zm0-15.3h-33c-1.6 0-2.9 1.7-2.9 3.7 0 2.1 1.3 3.7 2.9 3.7h33c1.6 0 2.9-1.7 2.9-3.7 0-2.1-1.3-3.7-2.9-3.7zM118.2 416.4h5.6v45.1h-5.6v-45.1zm18 0h6.4l16 27.3c1.5 2.5 3.2 5.8 4.4 8.9h.2c-.1-5.1-.2-9.3-.2-13.7v-22.6h5.5v45.1h-6.2l-16-27.2c-1.5-2.6-2.9-5.5-4.7-9.3h-.2c.2 5 .2 9.3.2 13.7l.1 22.9h-5.5v-45.1zm54.5 4.9c-6.8.1-13.6.1-14.2.1v-5h34v5c-.7 0-7.4 0-14.2-.1v40.2h-5.6v-40.2zm27.7-4.9h26.3v5.1c-.7 0-13.8 0-20.7-.1 0 .7 0 10.9-.1 14.2 6.4-.1 17.8-.1 18.4-.1v4.8c-.7 0-12.1 0-18.4-.1.1 7.1.1 15.4.1 16.1 7.2-.1 20.7-.1 21.4-.1v5.1h-27v-44.9zm36.7 0h5.6c0 .7-.1 33.7-.1 40.1 7.2-.1 18.3-.1 19-.1v5.1h-24.4v-45.1zm34.9 0h5.6v45.1H290v-45.1zm38.7 45.6c-14.5 0-22.1-9.5-22.1-23.7 0-13 6.5-23 20.2-23 4.2 0 8.6 1 12.5 3l-2.3 4.6c-2.7-1.6-6.9-2.6-10.8-2.6-10 0-13.7 8.2-13.7 18 0 11 4.8 19 16.6 19 2.1 0 4-.1 5.7-.9 0-.5 0-7.1.1-16-5.4.1-6.8.1-7.5.1v-4.9h12.9v24.6c-2.8 1.1-7.2 1.8-11.6 1.8zm24-45.6H379v5.1c-.7 0-13.8 0-20.7-.1 0 .7 0 10.9-.1 14.2 6.4-.1 17.8-.1 18.4-.1v4.8c-.7 0-12.1 0-18.4-.1.1 7.1.1 15.4.1 16.1 7.2-.1 20.7-.1 21.4-.1v5.1h-27v-44.9zm36.7 0h6.4l16 27.3c1.5 2.5 3.2 5.8 4.4 8.9h.2c-.1-5.1-.2-9.3-.2-13.7v-22.6h5.5v45.1h-6.2l-16-27.2c-1.5-2.6-2.9-5.5-4.7-9.3h-.2c.2 5 .2 9.3.2 13.7l.1 22.9h-5.5v-45.1zm54.4 4.9c-6.8.1-13.6.1-14.2.1v-5h34v5c-.7 0-7.4 0-14.2-.1v40.2h-5.6v-40.2zm29.6-4.9h26.3v5.1c-.7 0-13.8 0-20.7-.1 0 .7 0 10.9-.1 14.2 6.4-.1 17.8-.1 18.4-.1v4.8c-.7 0-12.1 0-18.4-.1.1 7.1.1 15.4.1 16.1 7.2-.1 20.7-.1 21.4-.1v5.1h-27v-44.9zm-328-33.7c-3.4 3.1-7.7 5.6-14.2 5.6-12.8 0-17.5-11.9-17.5-23 0-11 5.4-22 17.6-22 5.6 0 9.5 1.4 12.9 3.6l-2.8 4.2c-2.8-2-6-3-9.8-3-9.2 0-12.2 9.6-12.2 17.2 0 7.5 2.7 18.3 12.4 18.3 4 0 7.6-1.7 10.7-4.5l2.9 3.6zm18.3-38.4h5.5v43.2h-5.5v-43.2zm27.4 0H204c2.9 0 18.5 0 18.5 21.6s-15.6 21.6-18.5 21.6h-12.8v-43.2zm10.6 38.5c6 0 15.1-.1 15.1-16.9 0-16.7-9.1-16.9-15.1-16.9h-5.1v33.9h5.1zm66 4.7l-4.5-12.8h-16.1l-4.6 12.8h-5.7c5.2-14.4 10.8-30 15.7-43.2h6.1c4.7 13.2 10.1 28.8 15.1 43.2h-6zm-9.2-27.8c-1.5-4.4-2.3-7.4-3-9.6h-.1c-.6 2.2-1.6 5.1-3.1 9.6l-3.7 10.5c2.1-.1 4.7-.1 6.7-.1 2.1 0 4.7 0 6.7.1l-3.5-10.5zm32.9-15.4h12.8c2.9 0 18.5 0 18.5 21.6s-15.6 21.6-18.5 21.6h-12.8v-43.2zm10.6 38.5c6 0 15.1-.1 15.1-16.9 0-16.7-9.1-16.9-15.1-16.9h-5.1v33.9h5.1zm66 4.7l-4.5-12.8h-16.1l-4.6 12.8h-5.7c5.2-14.4 10.8-30 15.7-43.2h6.1c4.7 13.2 10.1 28.8 15.1 43.2h-6zm-9.2-27.8c-1.5-4.4-2.3-7.4-3-9.6h-.1c-.6 2.2-1.6 5.1-3.1 9.6l-3.7 10.5c2.1-.1 4.7-.1 6.7-.1 2.1 0 4.7 0 6.7.1l-3.5-10.5zm32.9-15.4h6.3l15.6 26.2c1.4 2.3 3.1 5.5 4.3 8.6h.2c-.1-4.9-.2-8.9-.2-13.1v-21.6h5.4v43.2h-6.1l-15.6-26.1c-1.5-2.5-2.8-5.3-4.6-8.9h-.2c.2 4.8.2 8.9.2 13.1l.1 22h-5.4v-43.4zm53.4 0h5.5v43.2h-5.5v-43.2zm54 43.2l-4.5-12.8h-16.1l-4.6 12.8h-5.7c5.2-14.4 10.8-30 15.7-43.2h6.1c4.7 13.2 10.1 28.8 15.1 43.2h-6zm-9.2-27.8c-1.5-4.4-2.3-7.4-3-9.6h-.1c-.6 2.2-1.6 5.1-3.1 9.6l-3.7 10.5c2.1-.1 4.7-.1 6.7-.1 2.1 0 4.7 0 6.7.1l-3.5-10.5z"/></svg>