<svg id="Camada_1" xmlns="http://www.w3.org/2000/svg" viewBox="60.7 370 483.2 71.9"><path d="M136.9 414.6h-10.4v-11.3h23.9v29.9c0 1.3-.4 2.2-1.5 2.9-11 6.8-22.6 7.6-34.4 2.8-7.3-3-12-8.8-14.4-16.3-3.6-11-3.7-22.2 0-33.2 3.8-11.3 12.2-17.3 23.9-18.9 7.7-1 15 0 22 3.4 1.3.6 1.8 1.3 1.8 2.8-.1 4.2 0 8.4 0 13-.7-.7-1.2-1.2-1.7-1.6-5.7-5.1-12.3-6.7-19.7-5.2-5.2 1.1-8.6 4.4-10.5 9.2-2.1 5.4-2.4 11.1-2.1 16.8.2 4.1.8 8.1 2.5 11.8 3.4 7.3 11.2 10.7 18.9 8.1 1.4-.5 2-1.1 2-2.6-.4-3.8-.3-7.6-.3-11.6zm26.3 26v-69.1c.4-.1.8-.1 1.2-.1 7 0 14.1-.2 21.1.1 3.4.1 6.8.8 10 1.9 6 2.1 9 6.7 9.6 13 .2 2.1.2 4.4-.1 6.5-1 6.2-4.7 9.9-11.3 11 .7.2 1 .3 1.3.4 8.2 1.6 12.1 7.4 12.5 15.9.1 2.1 0 4.2-.3 6.3-.9 7.1-5.2 11.4-12 13.1-2.3.6-4.6.8-7 1.1-1.4.2-2.8.1-4.1.1-7-.2-13.8-.2-20.9-.2zm12.3-10.9c4.4-.2 8.6-.2 12.8-.7 3.2-.3 5.5-2.3 5.8-5.5.3-2.7.2-5.5-.2-8.2s-2.3-4.8-5-5.1c-4.4-.6-8.9-.7-13.4-1.1v20.6zm0-31.1c4.1-.2 8.1-.2 11.9-.6 2.5-.2 4.4-1.8 4.7-4.3.3-2.2.2-4.6-.1-6.8-.3-1.9-1.7-3.2-3.6-3.8-4.3-1.4-8.6-.5-13-.7.1 5.4.1 10.6.1 16.2zm122.8 5.1c1 .3 1.5.4 2 .6 6.6 1.5 10.4 5.7 11.4 12.2.5 2.9.6 5.9.3 8.8-1 8.4-5.4 12.9-13.9 14.4-2.7.5-5.5.8-8.2.8-7.2.1-14.4 0-21.8 0v-69.3h3.2c7.7.1 15.5-.1 23.2.5 6.9.5 12.6 3.7 14.7 11 1.2 3.9 1.1 7.9.1 11.9-1.5 5.3-5.2 8.1-11 9.1zm-18.1 25.5c4.2 0 8.3.3 12.3-.1 4-.3 6-2.5 6.6-6.2 1-5.8-.5-10.4-3.8-12.1-.4-.2-.8-.4-1.3-.5-4.6-1.4-9.2-.6-13.8-.8v19.7zm0-30.8c3.4 0 6.6.1 9.8 0 5.1-.3 7.1-2.6 7.3-7.6 0-.8-.1-1.6-.2-2.4-.4-3.1-2-5.2-5.2-5.6-3.9-.5-7.8-.4-11.8-.6.1 5.6.1 10.8.1 16.2zm89.9 42.2c-4.4 0-8.6.1-12.7-.1-.6 0-1.6-.8-1.9-1.5-2.7-6-5.3-12-7.9-18-.4-.8-.8-1.7-1.2-2.5-2.7-4.9-4.9-6.1-10.8-5.4v27.3H323v-68.9c.1-.1.2-.2.3-.2 7.9.1 15.8-.3 23.6.3 12.3 1 17.7 7.5 17.4 20-.1 1.9-.3 3.8-.7 5.6-1.3 5.6-4.7 8.7-11.2 10.4 3.3 1.6 4.6 4.7 6 7.6 3.9 8.4 7.7 16.7 11.7 25.4zm-34.4-39h6.8c1 0 2-.2 2.9-.4 3.4-.7 5.4-3 5.6-6.7.3-4 .7-8.1-3.6-10.6-.2-.1-.5-.2-.7-.3-3.6-1.2-7.3-.7-11.1-.8.1 6.3.1 12.4.1 18.8zm92.8 38.9h-14.3l-4.5-16.8h-19.1c-1.3 5-2.6 9.9-3.8 14.8-.4 1.5-.9 2.1-2.6 2.1-4-.2-8-.1-12.3-.1.7-2.5 1.3-4.9 2-7.2 5.6-20 11.3-40.1 16.9-60.1.4-1.5 1-2 2.7-2 5.1.1 10.2 0 15.5 0 6.5 23.1 13 46.1 19.5 69.3zM407 412.1c-2.2-9.2-4.4-18.3-6.6-27.4-.1 0-.3 0-.4.1-2.2 9.1-4.3 18.2-6.5 27.4 4.6-.1 9-.1 13.5-.1zm26.1 10.8c1.5 1 2.6 1.8 3.7 2.5 4.7 3 9.7 5 15.3 4.9 4.9 0 8.2-2.3 9.1-6.2 1-4.5-.9-8.6-5.2-10.8-2.9-1.4-5.9-2.5-8.8-3.9-2.6-1.3-5.2-2.7-7.7-4.4-4-2.6-6-6.6-6.4-11.2-.2-3.2-.2-6.6.5-9.8 1.8-8.2 8.3-13.3 17.3-13.9 6.4-.4 12.5.9 18.3 3.7.5.3 1.2 1 1.2 1.5.1 4 .1 8 .1 12.4-1-.7-1.8-1.3-2.6-1.8-5.1-3.2-10.6-5.3-16.8-4.1-3.3.6-5.4 2.6-5.9 5.5-.6 3.6.4 6.1 3.4 7.9 1.4.9 3 1.6 4.5 2.3 2.1 1 4.3 1.9 6.5 2.7 13.2 5.2 16.5 16 13.3 28.7-1.9 7.6-7.7 11-15.1 12.2-8.1 1.3-15.8.1-23.2-3.4-1.2-.5-1.6-1.2-1.6-2.5.2-3.9.1-7.9.1-12.3zm-206.4 17.6v-57.3h-16.1v-11.8h44.8V383h-16.1v57.4c-4.2.1-8.2.1-12.6.1zm-166-69.1h12.2v56.9h21.4v12.1H60.7v-69zm449.6 0h12.2v56.9h21.4v12.1h-33.6v-69zm-27.2-.8H497v71h-13.9v-71z" fill="#fff"/></svg>