<svg id="Layer_1" xmlns="http://www.w3.org/2000/svg" width="300" height="300"><path fill="none" d="M54.964 222.5c-7.794-10.111-13.04-23.361-16.038-40.569-4.053-14.786-6.041-29.229-5.375-41.826a109.3 109.3 0 0 1 5.429-28.784c6.699-29.603 23.965-54.935 50.382-69.809 17.206-9.694 41.542-22.619 62.897-22.619H33.425V285.11h88.21c-25.765-4.436-50.109-30.923-66.671-62.61zM152.26 18.893c19.458 0 35.904 10.672 49.737 14.619 24.281 6.927 40.512 19.539 50.882 36.388 13.581 19.186 18.988 47.162 16.889 87.076-2.269 43.153-26.559 102.652-64.516 119.9l-40.986 6.417-42.63 1.817h148.571V18.893H152.26z"/><path fill="#FFF" d="M132.79 184.275c-2.922-2.618-7.961-2.217-12.597-.3.303 3.524.102 9.369.505 12.391h.101c3.122.203 6.95.505 10.177 0 5.239-1.109 5.54-9.269 1.814-12.091zm63.475 8.162c-1.008 5.137-1.211 10.879-.91 16.52.607 4.635.607 9.769 1.916 14.203 2.62 5.337 11.185 5.943 15.217 1.31 2.518-3.123 1.611-3.525 2.014-9.169.103-2.617.205-5.035.205-5.234v-4.837l-.205-6.848c0-.101-.303-3.525-.402-5.743-.301-3.726-2.116-7.051-5.239-8.561-2.621-1.008-5.742-.202-7.858 1.409-2.422 1.912-3.934 4.23-4.738 6.95z"/><path fill="#FFF" d="M205.252 276.876c37.957-17.248 62.247-76.747 64.516-119.9 2.1-39.914-3.308-67.89-16.889-87.076-10.37-16.849-26.601-29.46-50.882-36.388-13.833-3.947-30.279-14.619-49.737-14.619-21.355 0-45.692 12.925-62.897 22.619C62.946 56.386 45.68 81.718 38.98 111.321a109.373 109.373 0 0 0-5.429 28.784c-.666 12.598 1.321 27.04 5.375 41.826 2.998 17.208 8.244 30.458 16.038 40.569 16.562 31.687 40.906 58.174 66.671 62.61l42.63-1.817 40.987-6.417zm20.234-96.224c.908 2.01 1.31 4.126 1.612 6.242.302 3.326.302 6.651.203 9.977-.403 7.05 0 13.697-.506 20.648-.101 1.106-.199 2.217-.303 3.321-.202 4.635-1.41 9.675-3.826 13.602-2.321 3.223-6.248 5.138-10.382 6.146-3.728 1.007-7.66 1.308-11.486 1.007-5.542-.508-10.884-1.713-13.301-7.052-1.815-3.327-2.318-7.354-2.418-11.185-.405-10.473-1.107-21.052-.504-31.626.099-6.042 1.209-12.493 5.339-17.226a13.141 13.141 0 0 1 2.319-1.814c8.865-4.431 21.259-4.027 29.12 1.814 1.918 1.716 3.328 3.829 4.133 6.146zm-57.032-93.788l-.1-.101h.1c4.133-.102 10.179-.706 14.211.503v.102c-.706 16.218-.404 32.736.905 49.458 1.914 6.546 11.185 5.743 12.396-.504.703-16.016.504-33.241.908-48.754 3.627-.2 11.589-1.71 14.711.303.806 17.123.705 34.953-1.21 52.178-1.108 8.763-6.853 15.712-16.525 16.622-11.388 1.108-25.292-3.928-25.797-16.219 0-17.627.605-35.961.401-53.588zm-48.664-1.006c15.621-.705 41.717-1.211 41.717-.606.607 4.634 0 9.569 0 14.304v.1c-8.464 1.913-17.632.303-26.4 1.211h-.303l-.102.1c.102 3.827-.804 8.161.102 11.785l.102.101c4.03.304 8.264.202 12.395.304v.1c.706 4.533.102 9.063.201 14-4.131 1.108-10.782-.099-12.192 1.108-.707 3.93-.303 9.368 0 12.591l.101.102c8.768 0 17.332.706 26.398.505v.2c.202 4.331.306 9.166-.805 13.197-13.603-.103-28.417.806-41.314-.202-.101-23.369-1.309-45.731.1-68.9zm-21.86 69.404c-.505-11.485 0-24.175-1.414-35.56v-.102c-1.811 2.422-3.525 5.138-5.441 7.255-2.417-1.21-3.325-7.255-7.152-6.449-.102 12.592-.505 22.164.299 34.552-4.23.703-9.775.303-14.106.303-.1 0-.202-.102-.302-.303-.503-1.815-.503-14.204-.102-68.701 3.628-1.005 9.271-.3 13.705-.501h.103c2.517 2.721 3.627 6.144 5.64 9.267.305.303.404.303.606.303 2.619-2.821 4.433-6.65 6.954-9.771 4.633 0 10.58-.505 14.913-.402-.503 12.792.605 25.282-.103 38.073l-.299 32.136c-4.031-.506-9.976 0-13.301-.1zm39.595 84.921h-.101c-2.723-6.146-8.264-18.231-14.008-25.28l-.202-.302c-.703 6.039.202 19.437.505 24.574-4.535 1.812-16.223.91-17.534 1.11.904 0 .203-63.663-.707-70.412 7.459-1.11 16.729-2.417 26.503-1.408 15.92.903 26.198 18.232 17.836 32.233-2.519 4.833-6.754 8.36-13.1 8.763h-.504v.103c5.644 9.97 13.906 19.337 17.938 30.419h.099c-4.732-.001-10.678.605-16.725.2zm22.265.504c2.016-24.176-1.612-49.055.806-71.521v-.201c.705-.102 3.225.201 4.131.201 2.418.102 5.041.403 11.085.304h2.418v.403c-.1 23.069-1.51 46.94-.1 69.906-2.117 2.216-15.621.103-18.34.908z"/></svg>