<?xml version="1.0" encoding="utf-8"?>
<!-- Generator: Adobe Illustrator 22.0.1, SVG Export Plug-In . SVG Version: 6.00 Build 0)  -->
<svg version="1.1" id="Layer_1" xmlns="http://www.w3.org/2000/svg" xmlns:xlink="http://www.w3.org/1999/xlink" x="0px" y="0px"
	 viewBox="0 0 300 154.8" style="enable-background:new 0 0 300 154.8;" xml:space="preserve">
<style type="text/css">
	.st0{fill:#FFFFFF;}
</style>
<g>
	<path class="st0" d="M52.4,71.2l-43-2.3l3.1,65.6l7.2,0.4l5.9-20.7l25.1,21.6l3.8-1.9l-10.3-26.2l12.1-31L52.4,71.2z M33.5,99.7
		l-12.4,0.5l0.1-17l21-1.9L33.5,99.7z"/>
	<polygon class="st0" points="105.4,78.6 107,69.6 68,68.9 71.9,136.5 106.8,133.9 106.2,126.1 84.4,125.6 82.2,109.8 105.4,106.7 
		105.4,99.6 80.1,97.7 82.6,80.1 	"/>
	<polygon class="st0" points="159.2,73 116.7,68.9 124.2,136.5 158.2,131.5 158.2,123.1 133.7,123.5 129.5,83.5 157.8,82 	"/>
	<polygon class="st0" points="173.2,69.5 172.6,135.8 185.8,136.4 182,68.9 	"/>
	<polygon class="st0" points="248.9,26.8 249.3,32 291.3,32.4 291.7,24.6 	"/>
	<polygon class="st0" points="51.4,32.8 51.7,27.3 9.4,24.9 9.8,33.2 	"/>
	<polygon class="st0" points="203.3,137.3 209.5,137 214.4,110.4 238.7,106.3 238.4,99.1 214.6,97.7 217.5,81 239.1,79.5 
		240.7,69.9 199.1,69.7 	"/>
	<polygon class="st0" points="289.6,78.6 291.2,69.6 252.2,68.9 256.1,136.5 291,133.9 290.5,126.1 268.6,125.6 266.4,109.8 
		289.6,106.7 289.6,99.6 264.3,97.7 266.8,80.1 	"/>
	<path class="st0" d="M206.2,36.7c0.8,2.5,2,4.5,3.5,5.8c1.6,1.4,3.6,2.1,6,2.1c1.8,0,3.4-0.4,4.9-1.2c1.5-0.8,2.9-1.8,4.2-3.1
		c1.3-1.2,2.5-2.6,3.5-4.1c1.1-1.5,2-2.9,2.7-4.2c0.8-1.3,1.4-2.5,1.8-3.5c0.5-1,0.8-1.7,0.9-2c0.1-0.3,0.2-0.6,0.2-0.9
		c0-0.6-0.2-1.1-0.6-1.6c-0.4-0.5-1-0.7-1.7-0.7c-0.5,0-0.9,0.1-1.2,0.4c-0.4,0.2-0.7,0.6-0.9,1c-0.3,0.7-0.7,1.6-1.2,2.7
		c-0.5,1-1.1,2.1-1.7,3.3c-0.7,1.1-1.4,2.3-2.2,3.4c-0.8,1.1-1.7,2.1-2.6,3c-0.9,0.9-1.9,1.6-2.9,2.2c-1,0.5-2.1,0.8-3.1,0.8
		c-1.5,0-2.7-0.5-3.5-1.4c-0.9-1-1.6-2.1-2-3.5c-0.4-1.3-0.7-2.7-0.9-4.1c-0.1-1.4-0.2-2.5-0.1-3.4l0.8-10.2c0-0.7-0.2-1.2-0.6-1.7
		c-0.4-0.5-1-0.8-1.7-0.8c-0.6,0-1.1,0.2-1.6,0.6c-0.4,0.4-0.7,0.9-0.8,1.5l-0.9,10.5c-0.2,2-0.7,3.8-1.3,5.3
		c-0.7,1.5-1.5,2.8-2.4,3.7c-0.9,1-1.9,1.7-2.8,2.2c-1,0.5-1.8,0.7-2.5,0.7c-1.8,0-3.1-0.6-4.1-1.9c-1-1.2-1.4-3.1-1.4-5.5
		c0-2.1,0.2-4,0.5-5.7c0.4-1.7,0.8-3.1,1.3-4.3c0.5-1.2,1-2.2,1.4-3c0.4-0.8,0.8-1.3,1-1.7c0.1-0.2,0.2-0.5,0.3-0.7
		c0.1-0.2,0.2-0.5,0.2-0.7c0-0.6-0.2-1.2-0.6-1.6c-0.4-0.5-1-0.7-1.6-0.7c-0.3,0-0.6,0.1-1,0.2c-0.3,0.1-0.6,0.3-0.8,0.5
		c-1.1,1.5-2,3.1-2.7,4.6c-0.6,1.3-1.1,2.9-1.6,4.7c-0.2,0.2-0.4,0.4-0.5,0.7c-0.9,1.9-1.8,3.8-2.9,5.7c-1.1,1.9-2.3,3.6-3.6,5.2
		c-1.3,1.5-2.8,2.8-4.5,3.8c-1.6,1-3.4,1.4-5.4,1.4c-2,0-3.6-0.4-5-1.1c-1.3-0.7-2.4-1.7-3.3-2.8c1.6-0.8,3.1-1.7,4.5-2.8
		c1.4-1.1,2.6-2.2,3.6-3.5c1-1.3,1.8-2.6,2.4-4.1c0.6-1.5,0.9-3,0.9-4.7c0-1.3-0.2-2.5-0.7-3.5c-0.4-1-1-1.9-1.8-2.6
		c-0.7-0.7-1.6-1.3-2.5-1.7c-0.9-0.4-1.8-0.6-2.8-0.6c-1.6,0-3,0.4-4.4,1.1c-1.3,0.7-2.5,1.8-3.4,3.1c-1,1.3-1.7,2.8-2.2,4.6
		c-0.2,0.6-0.3,1.1-0.4,1.7c-0.2,0.2-0.4,0.4-0.5,0.7c-0.3,0.7-0.8,1.6-1.3,2.7c-0.5,1-1.1,2.1-1.8,3.3c-0.7,1.1-1.5,2.3-2.3,3.4
		c-0.8,1.1-1.7,2.2-2.7,3.1c-0.9,0.9-1.9,1.6-2.9,2.2c-1,0.6-2.1,0.8-3.1,0.8c-1,0-1.8-0.2-2.3-0.6c-0.6-0.4-1-0.9-1.3-1.6
		c-0.3-0.7-0.4-1.4-0.5-2.3c-0.1-0.9-0.1-1.7-0.1-2.6c0-2.1,0.1-3.9,0.3-5.4c0.2-1.5,0.3-3,0.3-4.3c0-0.9-0.1-1.8-0.3-2.8
		c-0.2-1-0.6-1.9-1.1-2.7c-0.5-0.8-1.2-1.4-2.1-2c-0.9-0.5-2-0.8-3.4-0.8c-1.2,0-2.5,0.4-4.1,1.2c-1.5,0.8-3.2,2.4-4.9,4.8
		c-0.6,0.8-1.3,1.9-2,3.1c-0.7,1.3-1.5,2.7-2.3,4.1c-0.8,1.5-1.6,2.9-2.4,4.4c-0.8,1.5-1.5,2.8-2.1,4.1c0-1.1,0.1-2.4,0.2-3.7
		c0.1-1.3,0.1-2.6,0.2-3.8c0.1-1.2,0.1-2.4,0.2-3.4c0.1-1.1,0.1-1.9,0.1-2.6c0-1.1-0.1-2.2-0.4-3.2c-0.2-1-0.6-1.9-1.1-2.6
		c-0.5-0.8-1.1-1.4-1.9-1.8c-0.8-0.4-1.7-0.7-2.7-0.7c-1.1,0-2.2,0.3-3.5,0.9c-1.3,0.6-2.5,1.6-3.7,3.1c-0.7,0.9-1.5,2.1-2.5,3.7
		c-1,1.6-2,3.4-3.1,5.2c-1,1.8-2,3.7-3,5.5c-1,1.8-1.7,3.3-2.4,4.6c0.2-3.1,0.4-6.1,0.6-9.1c0.2-3,0.3-6.3,0.3-10
		c0-0.8-0.1-1.6-0.2-2.5c-0.2-0.9-0.4-1.6-0.8-2.3c-0.4-0.7-0.9-1.2-1.5-1.7c-0.6-0.4-1.4-0.6-2.4-0.6c-1.6,0-3.2,1-4.9,3.1
		c-1.7,2.1-3.4,5.3-5.3,9.6c-0.1,0.3-0.2,0.6-0.2,0.9c0,0.6,0.2,1.2,0.6,1.6c0.4,0.5,1,0.7,1.7,0.7c0.4,0,0.9-0.1,1.3-0.4
		c0.4-0.2,0.7-0.6,0.9-1c1.5-3.5,2.7-6,3.6-7.5c1-1.4,1.6-2.2,1.9-2.3c0.2,0.2,0.4,0.7,0.5,1.5c0.1,0.9,0.2,1.8,0.1,2.8
		c-0.1,1.9-0.2,4-0.3,6.2c-0.1,2.2-0.2,4.3-0.3,6.2c-0.1,1.9-0.1,3.6-0.2,4.9c-0.1,1.3-0.1,2.1-0.1,2.2c0,1.2,0.3,2.1,0.9,2.8
		c0.6,0.7,1.4,1.1,2.6,1.1c0.8,0,1.7-0.3,2.5-0.9c0.9-0.6,1.7-1.8,2.6-3.5c0.7-1.4,1.5-3,2.5-4.8c1-1.8,1.9-3.5,2.9-5.3
		c1-1.7,1.9-3.3,2.8-4.7c0.9-1.4,1.6-2.5,2.2-3.2c0.7-0.9,1.4-1.6,1.9-1.9c0.5-0.3,1-0.5,1.5-0.5c0.5,0,0.9,0.2,1.3,0.7
		c0.4,0.5,0.5,1.2,0.5,2.3c0,0.5,0,1.2-0.1,2.1c0,0.9-0.1,2-0.1,3.2c0,1.2-0.1,2.5-0.2,3.8c-0.1,1.3-0.1,2.6-0.2,3.8
		c0,1.2-0.1,2.3-0.1,3.4c0,1-0.1,1.8-0.1,2.4c0,1.2,0.3,2.1,0.8,2.9c0.5,0.7,1.4,1.1,2.4,1.1c0.5,0,0.9-0.1,1.3-0.3
		c0.4-0.2,0.8-0.6,1.3-1c0.4-0.5,0.9-1.2,1.3-2c0.5-0.9,1-1.9,1.7-3.2c1.2-2.4,2.4-4.7,3.6-7c1.2-2.3,2.4-4.3,3.5-6.1
		c1.1-1.8,2.3-3.2,3.3-4.3c1.1-1.1,2.1-1.6,3.1-1.6c0.1,0,0.3,0,0.5,0c0.2,0,0.5,0.1,0.8,0.4c0.3,0.2,0.5,0.6,0.7,1.1
		c0.2,0.5,0.3,1.3,0.3,2.3c0,0.9-0.1,2.3-0.3,3.9c-0.2,1.7-0.3,3.5-0.3,5.5c0,1.5,0.1,3,0.4,4.3c0.2,1.4,0.7,2.6,1.4,3.7
		c0.7,1.1,1.6,1.9,2.7,2.5c1.1,0.6,2.6,1,4.4,1c1.7,0,3.3-0.4,4.8-1.2c1.5-0.8,2.9-1.8,4.2-3.1c1.3-1.2,2.5-2.6,3.6-4.1
		c0.8-1.2,1.6-2.3,2.3-3.3c0.1,0.4,0.2,0.8,0.3,1.2c0.6,2.1,1.6,3.9,2.8,5.6c1.3,1.6,2.9,3,4.8,4c2,1,4.3,1.6,7,1.6
		c4.2-0.1,8-1.7,11.3-4.8c1.6-1.5,3.2-3.5,4.7-5.8c0.1,0.8,0.3,1.6,0.5,2.4c0.5,1.5,1.2,2.7,2,3.8c0.9,1,2,1.8,3.2,2.4
		c1.2,0.6,2.6,0.9,4.2,0.9c1.9,0,3.8-0.7,5.7-2C203.1,40.8,204.8,39,206.2,36.7z M158.9,30.5c-0.1-0.8-0.2-1.6-0.2-2.3
		c0-1.2,0.1-2.4,0.3-3.6c0.2-1.2,0.6-2.3,1.1-3.3c0.5-1,1.1-1.8,1.9-2.4c0.8-0.6,1.7-0.9,2.8-0.9c0.8,0,1.5,0.3,2.1,0.9
		c0.6,0.6,0.9,1.6,0.9,2.8c0,1.1-0.2,2.2-0.6,3.3c-0.4,1.1-1,2.1-1.7,3.1c-0.7,1-1.6,1.9-2.7,2.7c-1,0.8-2.2,1.5-3.5,2
		C159.2,32.1,159,31.3,158.9,30.5z"/>
</g>
</svg>
