<?xml version="1.0" encoding="utf-8"?>
<!-- Generator: Adobe Illustrator 16.0.0, SVG Export Plug-In . SVG Version: 6.00 Build 0)  -->
<!DOCTYPE svg PUBLIC "-//W3C//DTD SVG 1.1//EN" "http://www.w3.org/Graphics/SVG/1.1/DTD/svg11.dtd">
<svg version="1.1" id="Layer_1" xmlns="http://www.w3.org/2000/svg" xmlns:xlink="http://www.w3.org/1999/xlink" x="0px" y="0px"
	 width="300px" height="150px" viewBox="0 0 300 150" enable-background="new 0 0 300 150" xml:space="preserve">
<g>
	<rect x="19.396" y="119.077" fill="#FFFFFF" width="125.519" height="9.687"/>
	<g>
		<path fill="#FFFFFF" d="M29.506,57.639v52.078H19.333V37.811h14.178l11.605,43.04v-43.04h10.07v71.906H43.578L29.506,57.639z"/>
		<path fill="#FFFFFF" d="M63.583,55.528c0-11.275,5.938-17.717,16.807-17.717c10.874,0,16.811,6.442,16.811,17.717v36.638
			c0,11.275-5.937,17.716-16.811,17.716c-10.869,0-16.807-6.441-16.807-17.716V55.528z M74.654,92.873
			c0,5.032,2.217,6.945,5.735,6.945c3.525,0,5.74-1.913,5.74-6.945V54.82c0-5.032-2.215-6.944-5.74-6.944
			c-3.518,0-5.735,1.912-5.735,6.944V92.873z"/>
		<path fill="#FFFFFF" d="M125.336,38.094c12.853,0,19.458,6.401,19.458,17.598v2.196h-12.496v-2.899
			c0-4.998-2.398-6.899-6.605-6.899c-4.202,0-6.607,1.901-6.607,6.899c0,14.399,25.829,17.101,25.829,37.1
			c0,11.198-6.725,17.595-19.701,17.595c-12.974,0-19.702-6.396-19.702-17.595v-4.301h12.495v4.999c0,4.999,2.639,6.801,6.843,6.801
			c4.209,0,6.85-1.802,6.85-6.801c0-14.401-25.829-17.099-25.829-37.095C105.872,44.496,112.481,38.094,125.336,38.094z"/>
		<g>
			<path fill="#FFFFFF" d="M236.825,109.684h-11.399l-1.951-13.037h-13.861l-1.953,13.037h-10.367l11.499-71.871h16.53
				L236.825,109.684z M211.052,86.893h10.883l-5.438-36.345L211.052,86.893z"/>
		</g>
		<path fill="#FFFFFF" d="M173.276,37.952c12.854,0,19.46,6.4,19.46,17.599v2.199h-12.49v-2.9c0-4.999-2.404-6.896-6.606-6.896
			c-4.206,0-6.609,1.897-6.609,6.896c0,14.399,25.829,17.099,25.829,37.099c0,11.198-6.729,17.6-19.7,17.6
			c-12.975,0-19.7-6.402-19.7-17.6v-4.303h12.491v5c0,5.003,2.644,6.802,6.847,6.802c4.208,0,6.85-1.799,6.85-6.802
			c0-14.397-25.83-17.096-25.83-37.095C153.816,44.352,160.426,37.952,173.276,37.952z"/>
		<path fill="#FFFFFF" d="M263.068,37.957c12.852,0,19.457,6.396,19.457,17.598v2.198h-12.491v-2.899
			c0-4.998-2.403-6.897-6.604-6.897c-4.207,0-6.607,1.9-6.607,6.897c0,14.397,25.826,17.098,25.826,37.098
			c0,11.197-6.729,17.596-19.704,17.596c-12.973,0-19.698-6.399-19.698-17.596v-4.302h12.495v5c0,5,2.639,6.798,6.845,6.798
			c4.204,0,6.846-1.799,6.846-6.798c0-14.399-25.824-17.094-25.824-37.094C243.607,44.352,250.213,37.957,263.068,37.957z"/>
	</g>
	<rect x="153.949" y="17.987" fill="#FFFFFF" width="126.805" height="9.688"/>
</g>
</svg>
