<?xml version="1.0" encoding="UTF-8" standalone="no"?>
<!-- Created with Inkscape (http://www.inkscape.org/) -->

<svg
   xmlns:dc="http://purl.org/dc/elements/1.1/"
   xmlns:cc="http://creativecommons.org/ns#"
   xmlns:rdf="http://www.w3.org/1999/02/22-rdf-syntax-ns#"
   xmlns:svg="http://www.w3.org/2000/svg"
   xmlns="http://www.w3.org/2000/svg"
   xmlns:sodipodi="http://sodipodi.sourceforge.net/DTD/sodipodi-0.dtd"
   xmlns:inkscape="http://www.inkscape.org/namespaces/inkscape"
   id="svg2"
   version="1.1"
   inkscape:version="0.91 r13725"
   xml:space="preserve"
   width="300"
   height="300"
   viewBox="0 0 300 300"
   sodipodi:docname="REDE_FEMININA_DE_JURISTAS.svg"><metadata
     id="metadata8"><rdf:RDF><cc:Work
         rdf:about=""><dc:format>image/svg+xml</dc:format><dc:type
           rdf:resource="http://purl.org/dc/dcmitype/StillImage" /><dc:title></dc:title></cc:Work></rdf:RDF></metadata><defs
     id="defs6" /><sodipodi:namedview
     pagecolor="#d00000"
     bordercolor="#666666"
     borderopacity="1"
     objecttolerance="10"
     gridtolerance="10"
     guidetolerance="10"
     inkscape:pageopacity="0"
     inkscape:pageshadow="2"
     inkscape:window-width="1855"
     inkscape:window-height="1056"
     id="namedview4"
     showgrid="false"
     inkscape:snap-text-baseline="false"
     inkscape:zoom="2.7393262"
     inkscape:cx="187.1935"
     inkscape:cy="43.32471"
     inkscape:window-x="65"
     inkscape:window-y="24"
     inkscape:window-maximized="1"
     inkscape:current-layer="g10" /><g
     id="g10"
     inkscape:groupmode="layer"
     inkscape:label="ink_ext_XXXXXX"
     transform="matrix(1.25,0,0,-1.25,0,299.99999)"><g
       id="g4907"><g
         transform="matrix(0.46230507,0,0,0.46230507,23.918797,-99.457391)"
         id="g4427"><path
           inkscape:connector-curvature="0"
           id="path40"
           style="fill:none;stroke:#ffffff;stroke-width:1;stroke-linecap:butt;stroke-linejoin:miter;stroke-miterlimit:10;stroke-dasharray:none;stroke-opacity:1"
           d="m 204.711,724.658 c 0,0 -20.809,-76.006 47.69,-145.563 0,0 89.218,98.214 -47.69,145.563 z" /><path
           inkscape:connector-curvature="0"
           id="path46"
           style="fill:none;stroke:#ffffff;stroke-width:1;stroke-linecap:butt;stroke-linejoin:miter;stroke-miterlimit:10;stroke-dasharray:none;stroke-opacity:1"
           d="m 235.011,487.204 c 0,0 -49.934,-36.391 16.563,-104.371 0,0 -132.722,39.334 -90.328,165.298 0,0 13.026,-51.141 73.765,-60.927 z" /><path
           inkscape:connector-curvature="0"
           id="path38"
           style="fill:#ffffff;fill-opacity:1;fill-rule:nonzero;stroke:none"
           d="m 204.711,724.658 c 0,0 -20.809,-76.006 47.69,-145.563 0,0 89.218,98.214 -47.69,145.563" /><path
           inkscape:connector-curvature="0"
           id="path42"
           style="fill:none;stroke:#ffffff;stroke-width:1;stroke-linecap:butt;stroke-linejoin:miter;stroke-miterlimit:10;stroke-dasharray:none;stroke-opacity:1"
           d="m 252.379,579.285 c 0,0 51.357,-29.825 -18.254,-92.738 0,0 -54.925,6.65 -73.019,62.331 l 91.038,30.021 c 0,0 0.157,0.257 0.235,0.386 z" /><path
           inkscape:connector-curvature="0"
           id="path44"
           style="fill:#ffffff;fill-opacity:1;fill-rule:nonzero;stroke:none"
           d="m 235.011,487.204 c 0,0 -49.934,-36.391 16.563,-104.371 0,0 -132.722,39.334 -90.328,165.298 0,0 13.026,-51.141 73.765,-60.927" /><path
           inkscape:connector-curvature="0"
           id="path48"
           style="fill:none;stroke:#fffcfd;stroke-width:1;stroke-linecap:butt;stroke-linejoin:miter;stroke-miterlimit:10;stroke-dasharray:none;stroke-opacity:1"
           d="m 304.629,553.348 c 0,0 -28.206,-14.636 -16.687,-28.887 l -5.602,-8.034 0.201,-20.745 c 0,0 6.896,-25.506 -47.53,-8.478 0,0 24.654,21.304 32.393,43.02 0.665,1.657 1.135,2.826 1.135,2.826 0,0 11.538,26.718 -16.026,46.126 0,0 37.376,13.129 52.116,-25.828 z" /><path
           inkscape:connector-curvature="0"
           id="path50"
           style="fill:none;stroke:#ffffff;stroke-width:1;stroke-linecap:butt;stroke-linejoin:miter;stroke-miterlimit:10;stroke-dasharray:none;stroke-opacity:1"
           d="m 161.043,548.767 c 0,0 9.731,66.324 -46.043,57.805 0,0 -23.4801,-47.307 42.054,-57.844 l 3.989,0.039 z" /></g><g
         id="g4890"><path
           inkscape:connector-curvature="0"
           id="path4746"
           style="font-style:normal;font-variant:normal;font-weight:200;font-stretch:normal;font-size:30px;line-height:125%;font-family:Glober;-inkscape-font-specification:'Glober, Ultra-Light';text-align:start;writing-mode:lr-tb;text-anchor:start;fill:#ffffff;fill-opacity:1;fill-rule:nonzero;stroke:#ffffff;stroke-opacity:1"
           d="m 20.03039,58.40474 0,-21.54 c 0,0 0.06,-0.06 0.21,-0.06 0.18,0 0.24,0.06 0.24,0.06 l 0,9.96 7.14,0 5.1,-9.96 c 0,0 0.06,-0.06 0.24,-0.06 0.12,0 0.27,0.06 0.27,0.06 l -5.16,10.02 c 2.91,0.48 4.56,2.64 4.56,5.73 0,3.48 -2.04,5.79 -5.55,5.79 l -7.05,0 z m 0.45,-0.45 6.66,0 c 3.03,0 5.04,-2.01 5.04,-5.34 0,-3.33 -2.01,-5.34 -5.04,-5.34 l -6.66,0 0,10.68 z" /><path
           inkscape:connector-curvature="0"
           id="path4748"
           style="font-style:normal;font-variant:normal;font-weight:200;font-stretch:normal;font-size:30px;line-height:125%;font-family:Glober;-inkscape-font-specification:'Glober, Ultra-Light';text-align:start;writing-mode:lr-tb;text-anchor:start;fill:#ffffff;fill-opacity:1;fill-rule:nonzero;stroke:#ffffff;stroke-opacity:1"
           d="m 38.370234,58.40474 0,-21.6 11.67,0 c 0.06,0.15 0.06,0.3 0,0.45 l -11.22,0 0,10.29 9.42,0 c 0.06,0.15 0.06,0.3 0,0.45 l -9.42,0 0,9.96 10.92,0 c 0.06,0.15 0.06,0.3 0,0.45 l -11.37,0 z" /><path
           inkscape:connector-curvature="0"
           id="path4750"
           style="font-style:normal;font-variant:normal;font-weight:200;font-stretch:normal;font-size:30px;line-height:125%;font-family:Glober;-inkscape-font-specification:'Glober, Ultra-Light';text-align:start;writing-mode:lr-tb;text-anchor:start;fill:#ffffff;fill-opacity:1;fill-rule:nonzero;stroke:#ffffff;stroke-opacity:1"
           d="m 55.069452,58.40474 0,-21.6 5.4,0 c 5.49,0 8.550001,2.31 8.550001,10.8 0,8.49 -2.880001,10.8 -8.550001,10.8 l -5.4,0 z m 0.450001,-21.15 0,20.7 4.86,0 c 5.579999,0 8.189999,-2.19 8.189999,-10.35 0,-8.13 -2.759999,-10.35 -8.189999,-10.35 l -4.86,0 z" /><path
           inkscape:connector-curvature="0"
           id="path4752"
           style="font-style:normal;font-variant:normal;font-weight:200;font-stretch:normal;font-size:30px;line-height:125%;font-family:Glober;-inkscape-font-specification:'Glober, Ultra-Light';text-align:start;writing-mode:lr-tb;text-anchor:start;fill:#ffffff;fill-opacity:1;fill-rule:nonzero;stroke:#ffffff;stroke-opacity:1"
           d="m 74.756952,58.40474 0,-21.6 11.67,0 c 0.06,0.15 0.06,0.3 0,0.45 l -11.219999,0 0,10.29 9.42,0 c 0.06,0.15 0.06,0.3 0,0.45 l -9.42,0 0,9.96 10.92,0 c 0.06,0.15 0.06,0.3 0,0.45 l -11.370001,0 z" /></g><g
         id="g4896"><path
           inkscape:connector-curvature="0"
           id="path4727"
           style="font-style:normal;font-variant:normal;font-weight:bold;font-stretch:normal;font-size:30px;line-height:300%;font-family:Glober;-inkscape-font-specification:'Glober, Bold';text-align:start;writing-mode:lr-tb;text-anchor:start;fill:#ffffff;fill-opacity:1;fill-rule:nonzero;stroke:#ffffff;stroke-opacity:1"
           d="m 100.87242,46.10474 7.86,0 c 0.15,0.36 0.24,0.81 0.24,1.29 0,0.48 -0.09,0.9 -0.24,1.2 l -7.86,0 0,7.32 8.88,0 c 0.15,0.36 0.24,0.78 0.24,1.26 0,0.48 -0.09,0.9 -0.24,1.23 l -11.94,0 0,-21.39 c 0,0 0.51,-0.21 1.5,-0.21 1.05,0 1.56,0.21 1.56,0.21 l 0,9.09 z" /><path
           inkscape:connector-curvature="0"
           id="path4729"
           style="font-style:normal;font-variant:normal;font-weight:bold;font-stretch:normal;font-size:30px;line-height:300%;font-family:Glober;-inkscape-font-specification:'Glober, Bold';text-align:start;writing-mode:lr-tb;text-anchor:start;fill:#ffffff;fill-opacity:1;fill-rule:nonzero;stroke:#ffffff;stroke-opacity:1"
           d="m 111.23701,58.40474 0,-21.6 12.48,0 c 0.15,0.42 0.24,0.84 0.24,1.29 0,0.42 -0.12,0.81 -0.24,1.2 l -9.42,0 0,7.2 7.62,0 c 0.15,0.39 0.24,0.84 0.24,1.26 0,0.42 -0.12,0.84 -0.24,1.2 l -7.62,0 0,6.96 9.12,0 c 0.15,0.39 0.24,0.84 0.24,1.32 0,0.42 -0.12,0.81 -0.24,1.17 l -12.18,0 z" /><path
           inkscape:connector-curvature="0"
           id="path4731"
           style="font-style:normal;font-variant:normal;font-weight:bold;font-stretch:normal;font-size:30px;line-height:300%;font-family:Glober;-inkscape-font-specification:'Glober, Bold';text-align:start;writing-mode:lr-tb;text-anchor:start;fill:#ffffff;fill-opacity:1;fill-rule:nonzero;stroke:#ffffff;stroke-opacity:1"
           d="m 140.60944,58.19474 c -1.59,-3.18 -3.21,-6.33 -4.89,-9.48 -0.57,-1.14 -0.9,-2.04 -1.11,-2.67 l -0.12,0 c -0.33,1.11 -1.2,2.91 -2.07,4.65 l -3.96,7.5 c 0,0 -0.9,0.21 -1.83,0.21 -1.11,0 -1.83,-0.21 -1.83,-0.21 l 0,-21.18 c 0,0 0.51,-0.21 1.35,-0.21 0.96,0 1.44,0.21 1.44,0.21 l 0,10.05 c 0,2.94 0,6.06 -0.3,7.56 l 0.12,0 c 0.36,-1.35 1.62,-3.93 2.73,-6.15 l 3.45,-6.48 c 0,0 0.27,-0.15 0.84,-0.15 0.54,0 0.93,0.15 0.93,0.15 l 3.51,6.6 c 1.08,2.22 2.31,4.68 2.67,6.03 l 0.15,0 c -0.24,-1.8 -0.18,-5.07 -0.18,-8.01 l 0,-9.6 c 0,0 0.57,-0.21 1.53,-0.21 0.99,0 1.5,0.21 1.5,0.21 l 0,21.18 c 0,0 -0.78,0.21 -1.98,0.21 -0.63,0 -1.38,-0.09 -1.95,-0.21 z" /><path
           inkscape:connector-curvature="0"
           id="path4733"
           style="font-style:normal;font-variant:normal;font-weight:bold;font-stretch:normal;font-size:30px;line-height:300%;font-family:Glober;-inkscape-font-specification:'Glober, Bold';text-align:start;writing-mode:lr-tb;text-anchor:start;fill:#ffffff;fill-opacity:1;fill-rule:nonzero;stroke:#ffffff;stroke-opacity:1"
           d="m 146.96242,37.01474 c 0,0 0.45,-0.21 1.53,-0.21 0.99,0 1.53,0.21 1.53,0.21 l 0,21.18 c 0,0 -0.51,0.21 -1.56,0.21 -0.99,0 -1.5,-0.21 -1.5,-0.21 l 0,-21.18 z" /><path
           inkscape:connector-curvature="0"
           id="path4735"
           style="font-style:normal;font-variant:normal;font-weight:bold;font-stretch:normal;font-size:30px;line-height:300%;font-family:Glober;-inkscape-font-specification:'Glober, Bold';text-align:start;writing-mode:lr-tb;text-anchor:start;fill:#ffffff;fill-opacity:1;fill-rule:nonzero;stroke:#ffffff;stroke-opacity:1"
           d="m 165.61067,37.01474 c 0,0 0.63,-0.21 1.83,-0.21 1.2,0 1.77,0.21 1.77,0.21 l 0,21.18 c 0,0 -0.39,0.21 -1.38,0.21 -0.99,0 -1.44,-0.21 -1.44,-0.21 l 0,-12.51 c 0,-2.79 0.21,-5.01 0.21,-5.01 l -0.09,0 c 0,0 -0.78,2.04 -1.86,3.99 l -7.47,13.53 c 0,0 -0.6,0.21 -1.8,0.21 -1.2,0 -1.83,-0.21 -1.83,-0.21 l 0,-21.18 c 0,0 0.42,-0.21 1.38,-0.21 0.99,0 1.44,0.21 1.44,0.21 l 0,12.48 c 0,3.03 -0.21,5.04 -0.21,5.04 l 0.12,0 c 0,0 0.66,-1.92 1.77,-3.87 l 7.56,-13.65 z" /><path
           inkscape:connector-curvature="0"
           id="path4737"
           style="font-style:normal;font-variant:normal;font-weight:bold;font-stretch:normal;font-size:30px;line-height:300%;font-family:Glober;-inkscape-font-specification:'Glober, Bold';text-align:start;writing-mode:lr-tb;text-anchor:start;fill:#ffffff;fill-opacity:1;fill-rule:nonzero;stroke:#ffffff;stroke-opacity:1"
           d="m 171.68903,37.01474 c 0,0 0.45,-0.21 1.53,-0.21 0.99,0 1.53,0.21 1.53,0.21 l 0,21.18 c 0,0 -0.51,0.21 -1.56,0.21 -0.99,0 -1.5,-0.21 -1.5,-0.21 l 0,-21.18 z" /><path
           inkscape:connector-curvature="0"
           id="path4739"
           style="font-style:normal;font-variant:normal;font-weight:bold;font-stretch:normal;font-size:30px;line-height:300%;font-family:Glober;-inkscape-font-specification:'Glober, Bold';text-align:start;writing-mode:lr-tb;text-anchor:start;fill:#ffffff;fill-opacity:1;fill-rule:nonzero;stroke:#ffffff;stroke-opacity:1"
           d="m 177.25728,52.55474 c 0,-4.53 3.99,-5.28 7.11,-6.33 2.07,-0.66 3.78,-1.41 3.78,-3.54 0,-2.25 -1.47,-3.42 -4.56,-3.42 -2.79,0 -5.61,0.93 -5.61,0.93 -0.45,-0.69 -0.75,-1.62 -0.72,-2.43 0,0 2.52,-1.26 6.48,-1.26 4.92,0 7.53,2.25 7.53,6.27 0,3.93 -2.82,5.22 -5.61,6.18 -2.79,0.9 -5.37,1.44 -5.37,3.75 0,2.19 1.53,3.42 4.71,3.42 2.58,0 4.62,-0.66 4.62,-0.66 0.57,0.6 0.84,1.53 0.84,2.4 0,0 -2.28,0.84 -5.88,0.84 -4.89,0 -7.32,-2.46 -7.32,-6.15 z" /><path
           inkscape:connector-curvature="0"
           id="path4741"
           style="font-style:normal;font-variant:normal;font-weight:bold;font-stretch:normal;font-size:30px;line-height:300%;font-family:Glober;-inkscape-font-specification:'Glober, Bold';text-align:start;writing-mode:lr-tb;text-anchor:start;fill:#ffffff;fill-opacity:1;fill-rule:nonzero;stroke:#ffffff;stroke-opacity:1"
           d="m 190.21727,58.40474 c 0,0 -0.24,-0.57 -0.24,-1.32 0,-0.81 0.24,-1.32 0.24,-1.32 l 5.73,0 0,-18.75 c 0,0 0.45,-0.21 1.53,-0.21 0.99,0 1.53,0.21 1.53,0.21 l 0,18.75 5.58,0 c 0,0 0.24,0.57 0.24,1.35 0,0.75 -0.24,1.29 -0.24,1.29 l -14.37,0 z" /><path
           inkscape:connector-curvature="0"
           id="path4743"
           style="font-style:normal;font-variant:normal;font-weight:bold;font-stretch:normal;font-size:30px;line-height:300%;font-family:Glober;-inkscape-font-specification:'Glober, Bold';text-align:start;writing-mode:lr-tb;text-anchor:start;fill:#ffffff;fill-opacity:1;fill-rule:nonzero;stroke:#ffffff;stroke-opacity:1"
           d="m 208.83961,58.19474 -7.53,-21.18 c 0,0 0.48,-0.21 1.41,-0.21 0.96,0 1.47,0.21 1.47,0.21 l 1.89,5.28 8.88,0 1.86,-5.28 c 0,0 0.48,-0.21 1.5,-0.21 1.11,0 1.65,0.21 1.65,0.21 l -7.53,21.18 c 0,0 -0.66,0.21 -1.8,0.21 -1.05,0 -1.8,-0.21 -1.8,-0.21 z m 1.74,-3.12 c 0,0 0.24,-1.14 0.78,-2.7 l 2.73,-7.59 -7.14,0 2.76,7.59 c 0.51,1.5 0.78,2.7 0.78,2.7 l 0.09,0 z" /></g><g
         id="g4886"><path
           inkscape:connector-curvature="0"
           id="path4706"
           style="font-style:normal;font-variant:normal;font-weight:200;font-stretch:normal;font-size:30px;line-height:125%;font-family:Glober;-inkscape-font-specification:'Glober, Ultra-Light';text-align:start;letter-spacing:0px;word-spacing:0px;writing-mode:lr-tb;text-anchor:start;fill:#ffffff;fill-opacity:1;stroke:#ffffff;stroke-width:1px;stroke-linecap:butt;stroke-linejoin:miter;stroke-opacity:1"
           d="m 38.816252,26.04516 0,-21.6 5.4,0 c 5.49,0 8.549999,2.31 8.549999,10.8 0,8.49 -2.879999,10.8 -8.549999,10.8 l -5.4,0 z m 0.45,-21.15 0,20.7 4.86,0 c 5.58,0 8.189999,-2.19 8.189999,-10.35 0,-8.13 -2.759999,-10.35 -8.189999,-10.35 l -4.86,0 z" /><path
           inkscape:connector-curvature="0"
           id="path4708"
           style="font-style:normal;font-variant:normal;font-weight:200;font-stretch:normal;font-size:30px;line-height:125%;font-family:Glober;-inkscape-font-specification:'Glober, Ultra-Light';text-align:start;letter-spacing:0px;word-spacing:0px;writing-mode:lr-tb;text-anchor:start;fill:#ffffff;fill-opacity:1;stroke:#ffffff;stroke-width:1px;stroke-linecap:butt;stroke-linejoin:miter;stroke-opacity:1"
           d="m 58.503751,26.04516 0,-21.6 11.67,0 c 0.06,0.15 0.06,0.3 0,0.45 l -11.22,0 0,10.29 9.42,0 c 0.06,0.15 0.06,0.3 0,0.45 l -9.42,0 0,9.96 10.92,0 c 0.06,0.15 0.06,0.3 0,0.45 l -11.37,0 z" /></g><g
         id="g4876"><path
           inkscape:connector-curvature="0"
           id="path4710"
           style="font-style:normal;font-variant:normal;font-weight:200;font-stretch:normal;font-size:30px;line-height:125%;font-family:Glober;-inkscape-font-specification:'Glober, Ultra-Light';text-align:start;letter-spacing:0px;word-spacing:0px;writing-mode:lr-tb;text-anchor:start;fill:#ffffff;fill-opacity:1;stroke:#ffffff;stroke-width:1px;stroke-linecap:butt;stroke-linejoin:miter;stroke-opacity:1"
           d="m 87.750001,8.76516 c 0,-3.18 -1.14,-4.17 -3.63,-4.17 -2.25,0 -3.87,0.87 -3.87,0.87 -0.15,-0.06 -0.24,-0.21 -0.21,-0.42 0,0 1.83,-0.9 3.99,-0.9 3.15,0 4.17,1.41 4.17,4.62 l 0,17.22 c 0,0 -0.09,0.06 -0.24,0.06 -0.12,0 -0.21,-0.06 -0.21,-0.06 l 0,-17.22 z" /><path
           inkscape:connector-curvature="0"
           id="path4712"
           style="font-style:normal;font-variant:normal;font-weight:200;font-stretch:normal;font-size:30px;line-height:125%;font-family:Glober;-inkscape-font-specification:'Glober, Ultra-Light';text-align:start;letter-spacing:0px;word-spacing:0px;writing-mode:lr-tb;text-anchor:start;fill:#ffffff;fill-opacity:1;stroke:#ffffff;stroke-width:1px;stroke-linecap:butt;stroke-linejoin:miter;stroke-opacity:1"
           d="m 108.09328,25.98516 c 0,0 -0.09,0.06 -0.24,0.06 -0.09,0 -0.21,-0.06 -0.21,-0.06 l 0,-15.09 c 0,-3.96 -2.34,-6.3 -6.3,-6.3 -3.959999,0 -6.299999,2.34 -6.299999,6.3 l 0,15.09 c 0,0 -0.06,0.06 -0.24,0.06 -0.15,0 -0.21,-0.06 -0.21,-0.06 l 0,-15.06 c 0,-4.26 2.49,-6.78 6.719999,-6.78 4.26,0 6.78,2.52 6.78,6.78 l 0,15.06 z" /><path
           inkscape:connector-curvature="0"
           id="path4714"
           style="font-style:normal;font-variant:normal;font-weight:200;font-stretch:normal;font-size:30px;line-height:125%;font-family:Glober;-inkscape-font-specification:'Glober, Ultra-Light';text-align:start;letter-spacing:0px;word-spacing:0px;writing-mode:lr-tb;text-anchor:start;fill:#ffffff;fill-opacity:1;stroke:#ffffff;stroke-width:1px;stroke-linecap:butt;stroke-linejoin:miter;stroke-opacity:1"
           d="m 114.63656,26.04516 0,-21.54 c 0,0 0.06,-0.06 0.21,-0.06 0.18,0 0.24,0.06 0.24,0.06 l 0,9.96 7.14,0 5.1,-9.96 c 0,0 0.06,-0.06 0.24,-0.06 0.12,0 0.27,0.06 0.27,0.06 l -5.16,10.02 c 2.91,0.48 4.56,2.64 4.56,5.73 0,3.48 -2.04,5.79 -5.55,5.79 l -7.05,0 z m 0.45,-0.45 6.66,0 c 3.03,0 5.04,-2.01 5.04,-5.34 0,-3.33 -2.01,-5.34 -5.04,-5.34 l -6.66,0 0,10.68 z" /><path
           inkscape:connector-curvature="0"
           id="path4716"
           style="font-style:normal;font-variant:normal;font-weight:200;font-stretch:normal;font-size:30px;line-height:125%;font-family:Glober;-inkscape-font-specification:'Glober, Ultra-Light';text-align:start;letter-spacing:0px;word-spacing:0px;writing-mode:lr-tb;text-anchor:start;fill:#ffffff;fill-opacity:1;stroke:#ffffff;stroke-width:1px;stroke-linecap:butt;stroke-linejoin:miter;stroke-opacity:1"
           d="m 132.97641,4.50516 c 0,0 0.06,-0.06 0.21,-0.06 0.18,0 0.21,0.03 0.24,0.06 l 0,21.48 c 0,0 -0.03,0.06 -0.21,0.06 -0.18,0 -0.24,-0.06 -0.24,-0.06 l 0,-21.48 z" /><path
           inkscape:connector-curvature="0"
           id="path4718"
           style="font-style:normal;font-variant:normal;font-weight:200;font-stretch:normal;font-size:30px;line-height:125%;font-family:Glober;-inkscape-font-specification:'Glober, Ultra-Light';text-align:start;letter-spacing:0px;word-spacing:0px;writing-mode:lr-tb;text-anchor:start;fill:#ffffff;fill-opacity:1;stroke:#ffffff;stroke-width:1px;stroke-linecap:butt;stroke-linejoin:miter;stroke-opacity:1"
           d="m 138.92484,20.79516 c 0,-3.99 3.03,-4.89 6.27,-5.7 3.06,-0.78 5.91,-1.59 5.91,-5.31 0,-3.36 -2.52,-5.19 -6.54,-5.19 -3.06,0 -5.46,1.05 -5.46,1.05 -0.09,-0.09 -0.18,-0.3 -0.18,-0.42 0,0 2.28,-1.08 5.79,-1.08 4.23,0 6.84,2.13 6.84,5.64 0,4.05 -3.3,5.01 -6.33,5.76 -3.36,0.84 -5.85,1.65 -5.85,5.25 0,3.03 2.01,5.13 6.18,5.13 2.7,0 5.07,-0.69 5.07,-0.69 0.12,0.12 0.15,0.24 0.15,0.42 0,0 -2.07,0.69 -5.25,0.69 -4.2,0 -6.6,-2.13 -6.6,-5.55 z" /><path
           inkscape:connector-curvature="0"
           id="path4720"
           style="font-style:normal;font-variant:normal;font-weight:200;font-stretch:normal;font-size:30px;line-height:125%;font-family:Glober;-inkscape-font-specification:'Glober, Ultra-Light';text-align:start;letter-spacing:0px;word-spacing:0px;writing-mode:lr-tb;text-anchor:start;fill:#ffffff;fill-opacity:1;stroke:#ffffff;stroke-width:1px;stroke-linecap:butt;stroke-linejoin:miter;stroke-opacity:1"
           d="m 154.57406,26.04516 c 0,0 -0.06,-0.03 -0.06,-0.21 0,-0.15 0.06,-0.24 0.06,-0.24 l 6.63,0 0,-21.09 c 0,0 0.09,-0.06 0.21,-0.06 0.18,0 0.24,0.06 0.24,0.06 l 0,21.09 6.45,0 c 0,0 0.06,0.06 0.06,0.24 0,0.21 -0.06,0.21 -0.06,0.21 l -13.53,0 z" /><path
           inkscape:connector-curvature="0"
           id="path4722"
           style="font-style:normal;font-variant:normal;font-weight:200;font-stretch:normal;font-size:30px;line-height:125%;font-family:Glober;-inkscape-font-specification:'Glober, Ultra-Light';text-align:start;letter-spacing:0px;word-spacing:0px;writing-mode:lr-tb;text-anchor:start;fill:#ffffff;fill-opacity:1;stroke:#ffffff;stroke-width:1px;stroke-linecap:butt;stroke-linejoin:miter;stroke-opacity:1"
           d="m 176.89219,26.13516 c -0.03,0.03 -0.09,0.03 -0.12,0 l -8.73,-21.66 c 0,0 0.09,-0.06 0.24,-0.06 0.18,0 0.27,0.06 0.27,0.06 l 2.73,6.81 11.13,0 2.73,-6.81 c 0,0 0.15,-0.06 0.27,-0.06 0.15,0 0.24,0.06 0.24,0.06 l -8.76,21.66 z m -5.43,-14.4 5.37,13.38 5.4,-13.38 -10.77,0 z" /><path
           inkscape:connector-curvature="0"
           id="path4724"
           style="font-style:normal;font-variant:normal;font-weight:200;font-stretch:normal;font-size:30px;line-height:125%;font-family:Glober;-inkscape-font-specification:'Glober, Ultra-Light';text-align:start;letter-spacing:0px;word-spacing:0px;writing-mode:lr-tb;text-anchor:start;fill:#ffffff;fill-opacity:1;stroke:#ffffff;stroke-width:1px;stroke-linecap:butt;stroke-linejoin:miter;stroke-opacity:1"
           d="m 188.55375,20.79516 c 0,-3.99 3.03,-4.89 6.27,-5.7 3.06,-0.78 5.91,-1.59 5.91,-5.31 0,-3.36 -2.52,-5.19 -6.54,-5.19 -3.06,0 -5.46,1.05 -5.46,1.05 -0.09,-0.09 -0.18,-0.3 -0.18,-0.42 0,0 2.28,-1.08 5.79,-1.08 4.23,0 6.84,2.13 6.84,5.64 0,4.05 -3.3,5.01 -6.33,5.76 -3.36,0.84 -5.85,1.65 -5.85,5.25 0,3.03 2.01,5.13 6.18,5.13 2.7,0 5.07,-0.69 5.07,-0.69 0.12,0.12 0.15,0.24 0.15,0.42 0,0 -2.07,0.69 -5.25,0.69 -4.2,0 -6.6,-2.13 -6.6,-5.55 z" /></g></g></g></svg>