<svg id="Camada_1" xmlns="http://www.w3.org/2000/svg" viewBox="116.1 198.9 357.8 343.6"><style>.st0{fill:#fff}</style><path class="st0" d="M331.2 445.3c3.2 0 5.1 2.1 5.1 5.3 0 2.8-1.5 4.8-4.2 5.3l4.7 9.2s-.1.1-.2.1c-.2 0-.2-.1-.2-.1l-4.7-9.2h-6.6v9.2s-.1.1-.2.1-.2-.1-.2-.1v-19.8h6.5zm-6.1 10.2h6.1c2.8 0 4.6-1.8 4.6-4.9s-1.8-4.9-4.6-4.9h-6.1v9.8zm26.9-10.2c.1.1.1.3 0 .4h-10v9.2h8.7c.1.1.1.3 0 .4H342v9.5h10.3c.1.1.1.3 0 .4h-10.7v-19.9H352zm9.9 0c5.2 0 7.9 2.1 7.9 9.9s-2.8 9.9-7.9 9.9h-5v-19.9h5v.1zm-.1 19.4c5 0 7.5-2 7.5-9.5s-2.4-9.5-7.5-9.5h-4.5v19h4.5zm23.6-19.4c.1.1.1.3 0 .4h-10v9.2h8.7c.1.1.1.3 0 .4h-8.7v9.5h10.3c.1.1.1.3 0 .4H375v-19.9h10.4zM326.9 498s-.5.2-1.4.2-1.4-.2-1.4-.2v-19.7h11c.1.3.2.7.2 1.1s-.1.8-.2 1.2h-8.2v6.7h7.2c.1.3.2.7.2 1.1s-.1.9-.2 1.2h-7.2v8.4zm23-19.7c.1.3.2.7.2 1.1s-.1.9-.2 1.2h-8.4v6.4h7c.1.3.2.7.2 1.1s-.1.8-.2 1.2h-7v6.6h8.7c.1.4.2.7.2 1.1s-.1.8-.2 1.2h-11.5v-19.9h11.2zm20.5 0c1.1 0 1.8.2 1.8.2V498s-.5.2-1.4.2-1.4-.2-1.4-.2v-8.8c0-2.7-.1-5.7.2-7.4h-.1c-.3 1.2-1.5 3.5-2.5 5.5l-3.2 6.1s-.4.1-.9.1-.8-.1-.8-.1l-3.2-6c-1-2-2.2-4.4-2.5-5.7h-.1c.3 1.4.3 4.2.3 6.9v9.2s-.4.2-1.3.2c-.8 0-1.2-.2-1.2-.2v-19.5s.7-.2 1.7-.2c.9 0 1.7.2 1.7.2l3.6 6.9c.8 1.6 1.6 3.3 1.9 4.3h.1c.2-.6.5-1.4 1-2.5l4.5-8.7c.5.1 1.2 0 1.8 0zm6.7.2s.5-.2 1.4-.2c1 0 1.4.2 1.4.2V498s-.5.2-1.4.2c-1 0-1.4-.2-1.4-.2v-19.5zm11.8 7c-1-1.8-1.6-3.6-1.6-3.6h-.1s.2 1.8.2 4.6V498s-.4.2-1.3.2-1.3-.2-1.3-.2v-19.5s.6-.2 1.7-.2 1.7.2 1.7.2L395 491c1 1.8 1.7 3.7 1.7 3.7h.1s-.2-2-.2-4.6v-11.5s.4-.2 1.3-.2 1.3.2 1.3.2V498s-.5.2-1.6.2-1.7-.2-1.7-.2l-7-12.5zm15.2-7s.5-.2 1.4-.2c1 0 1.4.2 1.4.2V498s-.5.2-1.4.2c-1 0-1.4-.2-1.4-.2v-19.5zm13.5-.4c3.3 0 5.4.8 5.4.8 0 .8-.2 1.7-.8 2.2 0 0-1.9-.6-4.2-.6-2.9 0-4.3 1.1-4.3 3.1 0 2.1 2.4 2.6 4.9 3.4 2.6.9 5.2 2.1 5.2 5.7 0 3.7-2.4 5.8-6.9 5.8-3.6 0-6-1.2-6-1.2 0-.7.2-1.6.7-2.2 0 0 2.6.9 5.2.9 2.8 0 4.2-1.1 4.2-3.1s-1.6-2.6-3.5-3.3c-2.9-1-6.5-1.7-6.5-5.8-.1-3.5 2.1-5.7 6.6-5.7zm21.5.2s.2.5.2 1.2-.2 1.2-.2 1.2H434V498s-.5.2-1.4.2c-1 0-1.4-.2-1.4-.2v-17.2h-5.3s-.2-.5-.2-1.2.2-1.2.2-1.2l13.2-.1zm8.4 0c1 0 1.7.2 1.7.2L456 498s-.5.2-1.5.2c-.9 0-1.4-.2-1.4-.2l-1.7-4.9h-8.2l-1.7 4.9s-.5.2-1.4.2-1.3-.2-1.3-.2l6.9-19.5c.1 0 .8-.2 1.8-.2zm-.2 3.1s-.2 1.1-.7 2.5l-2.5 7h6.6l-2.5-7c-.6-1.5-.8-2.5-.9-2.5zm-117.6 30c5.2 0 7.9 2.1 7.9 9.9s-2.8 9.9-7.9 9.9h-5v-19.9h5v.1zm-.1 19.5c5 0 7.5-2 7.5-9.5s-2.4-9.5-7.5-9.5h-4.5v19h4.5zm23.7-19.5c.1.1.1.3 0 .4h-10v9.2h8.7c.1.1.1.3 0 .4h-8.7v9.5h10.3c.1.1.1.3 0 .4h-10.7v-19.9h10.4zm16.4.1s.1-.1.2-.1.2.1.2.1v15.8c0 3-.9 4.2-3.8 4.2-2 0-3.7-.8-3.7-.8 0-.2.1-.3.2-.4 0 0 1.5.8 3.6.8 2.3 0 3.3-.9 3.3-3.8v-15.8zm18.7 13.8c0 3.9-2.3 6.2-6.2 6.2-3.9 0-6.2-2.3-6.2-6.2v-13.8s.1-.1.2-.1c.2 0 .2.1.2.1v13.9c0 3.6 2.2 5.8 5.8 5.8s5.8-2.2 5.8-5.8v-13.9s.1-.1.2-.1.2.1.2.1v13.8zm12.5-13.9c3.2 0 5.1 2.1 5.1 5.3 0 2.8-1.5 4.8-4.2 5.3l4.7 9.2s-.1.1-.2.1c-.2 0-.2-.1-.2-.1l-4.7-9.2h-6.6v9.2s-.1.1-.2.1-.2-.1-.2-.1v-19.8h6.5zm-6.1 10.2h6.1c2.8 0 4.6-1.8 4.6-4.9 0-3.1-1.8-4.9-4.6-4.9h-6.1v9.8zm16.4-10.1s.1-.1.2-.1.2.1.2.1v19.7s-.1.1-.2.1-.2-.1-.2-.1v-19.7zm11.6-.4c2.9 0 4.8.6 4.8.6 0 .2 0 .3-.1.4 0 0-2.2-.6-4.7-.6-3.8 0-5.7 1.9-5.7 4.7 0 3.3 2.3 4.1 5.4 4.8 2.8.7 5.8 1.6 5.8 5.3 0 3.2-2.4 5.2-6.3 5.2-3.2 0-5.3-1-5.3-1 0-.1.1-.3.2-.4 0 0 2.2 1 5 1 3.7 0 6-1.7 6-4.8 0-3.4-2.6-4.2-5.4-4.9-3-.7-5.8-1.6-5.8-5.2 0-3.1 2.2-5.1 6.1-5.1zm20.7.3s.1 0 .1.2-.1.2-.1.2h-5.9v19.4s-.1.1-.2.1-.2-.1-.2-.1v-19.4h-6.1s-.1-.1-.1-.2c0-.2.1-.2.1-.2h12.4zm16.1 19.8s-.1.1-.2.1-.2-.1-.2-.1l-2.5-6.3h-10.2l-2.5 6.3s-.1.1-.2.1-.2-.1-.2-.1l8-19.9h.1l7.9 19.9zm-3.1-6.6l-5-12.3-4.9 12.3h9.9zm11.9-13.5c2.9 0 4.8.6 4.8.6 0 .2 0 .3-.1.4 0 0-2.2-.6-4.7-.6-3.8 0-5.7 1.9-5.7 4.7 0 3.3 2.3 4.1 5.4 4.8 2.8.7 5.8 1.6 5.8 5.3 0 3.2-2.4 5.2-6.3 5.2-3.2 0-5.3-1-5.3-1 0-.1.1-.3.2-.4 0 0 2.2 1 5 1 3.7 0 6-1.7 6-4.8 0-3.4-2.6-4.2-5.4-4.9-3-.7-5.8-1.6-5.8-5.2 0-3.1 2.2-5.1 6.1-5.1zm-258-311.5s-20.8 76 47.7 145.6c0 0 89.2-98.3-47.7-145.6z"/><path class="st0" d="M258.1 345.9l-.4-.4c-35.5-36-46.6-73.8-49.7-99.2-3.3-27.5 1.8-46.7 1.9-46.9l.1-.5.5.2c42.6 14.7 67.7 35.9 74.7 63 10.6 41.6-26.4 83-26.8 83.4l-.3.4zm-47.4-145.6c-.8 3.2-4.7 21.2-1.7 46 3.1 25.1 14 62.4 49 98.1 3.8-4.3 36.1-43.2 26.2-82.1-6.8-26.5-31.5-47.4-73.5-62z"/><path class="st0" d="M239.9 438.2h-.2c-.1 0-14-1.8-29.9-10.3-14.7-7.9-34.1-23.4-43.5-52.3l-.2-.5.5-.2 90.9-30 .4-.6.4.2c.2.1 16.3 9.7 18.3 28.9s-10.3 41-36.5 64.7l-.2.1zm-72.5-62.5c17.4 52.5 68.4 60.9 72.2 61.5 25.8-23.4 37.9-44.8 36-63.6-1.8-17-14.9-26.2-17.4-27.9l-.1.1-.2.1-90.5 29.8z"/><path class="st0" d="M240.7 437.1s-49.9 36.4 16.6 104.4c0 0-132.7-39.3-90.3-165.3-.1-.1 12.9 51.1 73.7 60.9z"/><path class="st0" d="M258.9 542.5l-1.8-.5c-.6-.2-61.1-18.6-87.1-68.7-14.6-28.1-15.8-60.8-3.5-97.2l.5-1.6.4 1.6c0 .1 3.4 12.9 14 26.6 9.8 12.7 28.1 28.9 59.3 33.9l1.2.2-1 .7c-.2.1-15.8 11.8-17.6 33.7-1.8 21.4 9.7 44.9 34.2 70l1.4 1.3zm-92-164.7c-11.6 35.5-10.3 67.5 4 94.9 23.2 44.7 74.1 64 84.6 67.6-23.8-24.7-34.9-48-33.1-69.3 1.6-19.3 13.7-30.8 17.1-33.6-30.9-5.3-49-21.4-58.9-34.1-8.6-11.2-12.5-21.7-13.7-25.5z"/><path class="st0" d="M271.1 443.4c-7.8 0-18-2-30.6-5.9l-.9-.3.7-.6c.2-.2 24.6-21.5 32.2-42.8l1.1-2.8c.1-.3 11-26.6-15.9-45.5l-.8-.6.9-.3c.4-.1 38-12.8 52.8 26.1l.2.4-.4.2c-.2.1-16.8 8.8-19 19.1-.7 3.2.2 6.2 2.4 9l.2.3-5.7 8.2.2 20.5c.2.7 1.4 6.4-3 10.6-2.8 3-7.7 4.4-14.4 4.4zm-29.4-6.6c28.1 8.7 39.1 5.6 43.4 1.5 4.1-4 2.7-9.6 2.7-9.6v-.1l-.2-20.9 5.5-7.9c-2.3-3-3.1-6.2-2.4-9.6 2.1-9.9 16.4-18.1 19.1-19.6-13.2-34.2-44.5-27.1-50.4-25.4 26.5 19.4 15.5 45.9 15.4 46.1l-1.1 2.8c-7.1 19.7-28 39.1-32 42.7zm-79-60.8c-22.2-3.6-36.6-11.7-43-24.1-8.4-16.2.4-34.3.5-34.5l.1-.2h.3c15-2.3 26.7.6 34.7 8.6 16.6 16.5 12 49.4 11.9 49.8l-.1.4h-4.4zM121 318.1c-1 2.1-8 18.6-.4 33.4 6.2 12.1 20.4 20 42.2 23.5h3.5c.5-3.9 3.5-33.4-11.7-48.5-7.8-7.7-19.1-10.5-33.6-8.4z"/></svg>