<?xml version="1.0" encoding="utf-8"?>
<!-- Generator: Adobe Illustrator 22.0.1, SVG Export Plug-In . SVG Version: 6.00 Build 0)  -->
<svg version="1.1" id="Layer_1" xmlns="http://www.w3.org/2000/svg" xmlns:xlink="http://www.w3.org/1999/xlink" x="0px" y="0px"
	 viewBox="0 0 841.9 595.3" style="enable-background:new 0 0 841.9 595.3;" xml:space="preserve">
<style type="text/css">
	.st0{fill-rule:evenodd;clip-rule:evenodd;fill:#FFFFFF;}
</style>
<g>
	<path class="st0" d="M456.9,180.4c-0.8,10.7-2.2,22.6-2.3,34.5c-0.1,12.4-4.6,23.3-9.2,34.2c-2.6,6.2-7.2,11.5-14.1,12.6
		c-7.4,1.1-15.1,1-22.3-2.4c-5.4-2.5-11.1-4.3-16.7-6.4c-5.7-2.1-9.1-6.5-10.6-12c-1.7-6.4-3.2-13-3.6-19.5
		c-0.5-9.2-0.1-18.4,0.3-27.6c0.2-4,1.3-8,2-12.1c0.6-3.3,1.1-6.7,1.8-10c1.3-5.9,2.8-11.7,4.3-17.6c0.9-3.5,1.2-7.4,2.9-10.5
		c3.5-6.1,7.7-11.8,11.8-17.5c1.1-1.5,2.8-2.7,4.4-3.8c3.2-2.1,6.7-2.3,10.4-1.6c2.1,0.4,4.3,0.2,6.4,0c5-0.4,9.1,1.8,13,4.5
		c2.1,1.4,4.4,2.6,6.3,4.3c2.3,2.1,4.4,4.4,6.3,6.9c1.7,2.3,3.3,4.8,4.4,7.5c1.3,3.2,2.4,6.6,2.7,10
		C456.1,162.3,456.4,170.7,456.9,180.4z M441.6,187.2c0.8-7.7-0.5-16.5-3.9-25c-2.5-6-4.8-12-7.6-17.8c-1.8-3.7-5.7-5.3-9.5-5.6
		c-4.6-0.3-7.1,3.3-9.2,6.9c-1.3,2.1-2.4,4.3-3.5,6.5c-1.3,2.8-2.7,5.5-3.6,8.4c-1.3,4.5-1.9,9.2-3.2,13.7
		c-3.4,11.3-3.1,22.9-2.6,34.5c0.3,7,3.1,13.3,6.5,19.4c2.6,4.6,5.8,8.6,10.4,11.3c5,3.1,11.6,2,15.5-2.4c4.2-4.7,6.3-10.4,7.7-16.5
		C441.1,210.1,441.8,199.5,441.6,187.2z"/>
	<path class="st0" d="M313.4,261.7c-0.1-8.4-4.6-15.4-6.8-23c-1.7-5.8-2.5-11.8-3.8-17.7c-1.2-5.7-2.8-11.4-3.8-17.2
		c-1.2-7-7.1-35.8-7.3-36.7c-2.4-8.6-4.7-17.2-7.2-25.8c-1.7-5.6-2.2-11.3-2.1-17.4c0-0.3,0.6-0.8,0.9-0.8c3.5,0,6.8,0,10.2,0
		c2.3,0,4.6,0.1,6.9,0c2.1-0.1,3.1,0.7,3.5,2.8c2,10.2,4,20.4,6.2,30.5c1.6,7.6,3.8,15.2,5.3,22.9c1.3,6.6,1.9,13.3,2.9,19.9
		c0.5,3.3,1,6.6,1.6,9.8c1.2,5.7,2.5,11.3,3.9,16.9c0.5,2.1,1.7,3.9,2.6,5.9c0.2-0.1,0.5-0.1,0.7-0.2c0.2-1.4,0.4-2.8,0.7-4.2
		c2.7-14.5,5.4-28.9,8-43.4c1.1-6,1.5-12.2,2.9-18.1c2.1-9.1,3.5-18.2,4.4-27.4c0.4-4.4,1.8-8.6,2.9-12.9c0.2-0.6,1.2-1.5,1.8-1.5
		c6.7-0.1,13.5-0.1,20.3-0.1c0.4,0,1.5,1.2,1.4,1.4c-2.6,11.9-4.3,22.2-6.6,33.5c-0.6,6.2-1.3,12.4-2.2,18.5c-0.4,2.7-1.5,5.4-2.4,8
		c-1.5,4.4-3.5,8.7-4.6,13.2c-2.7,11.1-5.2,22.2-7.4,33.3c-0.8,4.3-3.9,23.8-5.5,29.1c-0.2,0.5-1.1,1.1-1.7,1.1
		c-8,0.1-16.1,0.1-24.1,0.1C314.5,262.2,313.4,261.9,313.4,261.7z"/>
	<path class="st0" d="M544.7,126.4c17-0.3,33.5-0.7,50.5-1c0.4,0,1.3,0.9,1.4,1.3c0.4,4.5,0.3,8.5,0.6,13.1c0.1,1.9-1.5,2.5-3.4,2.5
		c-10.1-0.1-18.4,0.7-28.5,0.7c-0.9,0-2.8,0.5-2.8,0.7c0,3.4-0.1,6.5,0,9.5c0.4,7.8,1,15.6,1.3,23.5c0.1,2.1,0.9,2.6,2.8,2.5
		c8.9-0.1,17.7,0.1,26.6,0c2,0,3,0.7,3.2,2.7c0.4,4.6,0.8,8,1.1,13c0.2,2.4-1.1,2.3-2,2.3c-11.5,0-22.8,0.1-34.2,0.1
		c-0.2,0-0.5,0.4-0.5,0.6c0.5,7.4,0.9,14.4,1.4,21.3c0.4,5.7,1.1,11.4,1.3,17.1c0.1,2.5,0.9,3.2,3.3,3.1c10.3-0.4,20.6-0.6,30.9-0.9
		c1.6,0,2.5,0.2,2.5,2.2c-0.1,5.1,0.3,9.8,0.4,15.5c0.1,3.2-0.3,3.2-3.3,3.2c-16.9-0.2-33.8-0.3-50.6-0.5c-1.5,0-1.7,0.5-1.8-2.2
		c-0.4-12.2-1.3-24.3-1.5-36.5c-0.3-27.8-0.4-55.6-0.5-83.4c0-3.2,0-6.4,0-9.3C542.8,126.5,544.1,126.4,544.7,126.4z"/>
	<path class="st0" d="M219.6,177.9c-2.9-0.1-5.8,0-8.8,0c-0.4,0-0.7,0-0.9-0.2c-0.3-0.3-0.2-0.7-0.2-1.1c0-4.2,0-8.1,0-12
		c0-1.5,0-1.5,2.1-1.5c2.5,0,4.9,0.3,7.6,0.5c0.5,0,2,0.8,1.8-2.8c0-0.1,0-0.1,0-0.1c0-3.6-0.1-7.2,0.1-10.7
		c0.4-7.7,0.8-15.4,1.4-23.2c0-0.6-0.7-1.4,1.4-1.6c3.9-0.2,7.8-0.7,12.2-0.8c2.2,0,1.5,1,1.5,1.6c-0.5,12.9-1.4,25.3-1.4,37.9
		c0,2.8,0.8,2.4,1.2,2.4c1.6,0.1,3.4,0.3,5.4,0.3c1.8,0,1.5-0.9,1.6-1.4c1.1-10.5,2.3-20.8,3.4-31.1c0.3-3.1,0.5-6.3,0.7-9.4
		c0.1-1.6-0.5-2.2,2.4-2.2c2.8,0,5.6,0.1,8.4,0.2c1.8,0.1,2.2-0.2,1.9,3c-1.6,13.8-3.4,20.3-3.5,30.6c0,2.4-0.4,4.8-0.6,7.1
		c-0.1,1.4,0.3,2,1.8,2.1c2.1,0,4.3,0.1,6.4,0.5c0.7,0.1,1.8,1.1,1.8,1.7c0.2,3.1,0.3,6.3,0.1,9.4c0,0.6-1.3,1.5-2,1.6
		c-2.7,0.4-5.4,0.3-8.1,0.7c-0.6,0.1-1.6,1.1-1.7,1.6c-1.4,7.3-1.3,15.3-2.3,23c0,0.4,0.3,1.1,0.6,1.1c2.1,0.1,6,0.2,7.3,0.2
		c1.9,0,1.6,0,1.5,1.8c-0.1,3-0.2,7.8-0.3,10.8c-0.1,1.8,0.3,2-2.8,1.7c-2.7-0.2-5.4,0-8.4,0c-0.1,1.3-0.2,2.3-0.3,3.4
		c-0.3,9.3-0.8,9.2-1.2,18.5c-0.1,3-1,16.2-1.5,19.2c-0.1,0.7-0.6,0.8-1.3,0.8c-3.2,0.2-6.5,0.1-10.3,0.1
		c1.3-14.9,2.5-27.8,3.9-43.2c0-0.1,0.1-0.3,0-0.4c-3.5-0.5-5.9-0.6-8.6-0.6c-0.7,0-0.9,0.8-0.9,1.3c-1.2,10.5-2.3,17.4-3.4,27.1
		c-0.5,4-1.5,9.4-2.1,13.4c0,0.1-0.2,0.4-0.3,0.4c-3,0-6.8,0-10.1,0c-0.1,0-0.4-0.3-0.4-0.5c0.2-13.7,1.5-23.9,2.4-40
		c0-0.1-0.2-0.3-0.3-0.3c-3.4,0-6.3,0-9.2,0c-0.2,0-0.6-0.3-0.7-0.5c-0.5-4.3-0.9-8.3-1.4-12.5c0-0.2,0.2-0.7,0.3-0.7
		c4.1,0,7.9,0,12,0c0.3,0,1-0.7,1-1.1c0.7-8.4,1.4-16.6,2.2-25.2C220.7,178.7,220.7,177.9,219.6,177.9z M232,205.2
		c2.7,0.3,5.8,0.2,8,0.4c0.9,0.1,0.9,0.1,1.1-1.3c0.6-5.9,1.3-11.8,1.9-17.7c0.2-2.2,0.3-4.4,0.5-6.8c0-0.1-0.1-0.3-0.1-0.3
		c-3.7,0-7.1,0-10.5,0c-0.2,0-0.6,0.2-0.6,0.3c-0.3,8.2-0.6,16.4-0.9,24.7C231.4,204.7,231.8,205.2,232,205.2z"/>
	<path class="st0" d="M490.6,260.2c0.3-3.9,0.5-7.6,0.7-11.3c0.3-5.5,0.6-11.1,0.7-16.6c0.2-12.3,0.5-24.6,0.3-36.8
		c-0.1-8.8-0.9-17.5-1.4-26.3c-0.4-6.7,0-15.8-0.3-22.5c-0.1-2-1.7-1.7-3.8-1.8c-5.7-0.2-11.1,0.5-16.8,0.2c-0.8,0-1.5,0-2.4,0
		c-0.2,0-0.8-0.6-0.8-1c0-6.8,0-13.3,0-20c0-0.2,1.4-0.9,2.2-0.9c20.2,0,41.9,0,62.1,0c4.4,0,3.3,0.1,3.5,4.4
		c0.2,4,0.4,7.9,0.4,11.9c0,2.7-0.2,2.2-2,2.3c-7.3,0.2-14.6,0.7-21.9,1c-1.6,0.1-2,0.7-2,2.2c0.3,6.5,0.6,13.1,0.7,19.7
		c0.2,16.8,0.4,33.6,0.5,50.3c0.1,14.4,0.5,18,0.3,43.1c0,3.1,0.1,3.4-3,3.4c-4.4,0-8.9,0-13.3,0
		C493.2,261.5,490.6,260.6,490.6,260.2z"/>
</g>
<g>
	<path class="st0" d="M402.2,362.8c0.2-0.5,1-1,1.8-1c10.3,0.2,20.6,0.5,30.9,0.6c1.8,0,3.4,0.2,3.3,2.1c1.3,14.9,1.4,24.1,1.9,36
		c0.3,7.3,0.4,14.7,0.6,22c0.1,3.2,0.4,6.4,0.4,9.8c0,0.4-1.4,0.9-2,0.9c-3.7-0.1-6.3,1.5-9.3,3.9c-3.1,2.5-7.6,3.9-11.7,4.4
		c-7.2,0.9-14.4,0.9-21.7,1.1c-1.1,0-2.2-0.4-3.2-0.8c-6.2-2.7-12.2-5.7-17.1-10.3c-0.6-0.6-1.1-1.3-1.5-2
		c-2.4-4.8-4.5-9.8-7.3-14.4c-4.8-8.2-6.6-17.2-7-26.4c-0.5-12.2-0.5-24.4-0.3-36.6c0.1-8.1,2.5-15.8,6-23.1
		c3.3-6.9,7.3-13.5,11.4-19.9c1.5-2.3,3.8-4.6,6.3-5.7c5.8-2.7,11.9-5,18.5-5.3c5-0.2,9.3,1.7,13.7,3.7c3.4,1.5,6.7,3.3,10.1,4.9
		c4.4,2,8.4,4.4,11.3,7.8c0.3,0.3,0.8,0.9,0.3,1.5c-0.8,1.1-1.6,1.9-2.2,2.8c-2.9,4.4-5.7,9-8.9,13.6c-0.4,0.6-0.3,0.7-1.1,0.1
		c-3.7-2.3-6.7-4.8-9.6-7.4c-3.8-3.4-8.1-4.5-13-4c-1.1,0.1-2.6,0.3-3.3,1c-5.9,5.5-12.4,10.6-14.8,18.8c-2.3,8-4.2,16.1-4.8,24.5
		c-1.1,14.9,3.5,28.6,7.9,42.3c0.3,0.8,0.7,1.6,1.2,2.2c5.3,6,11.5,11.1,19.5,12c3.3,0.4,6.9-2.1,10.4-3.5c0.4-0.2,0.7-1.3,0.7-2
		c0-10.8,0-22.8-1.1-33.5c-0.2-2.2-1.7-1.5-3.5-1.5c-3.6-0.1-7.2-0.3-10.7-0.3c-2.2-0.2-2,0.3-2.1-2.1
		C402.3,373.5,402.2,368.7,402.2,362.8z"/>
	<path class="st0" d="M458.1,304.8c4.8-0.4,9.4-0.9,14.1-1.1c5.7-0.3,11.4-0.6,17.1-0.6c6.1,0,11.7,2,16.8,5.2
		c1.7,1.1,3.6,1.9,5.3,3.1c6.7,4.5,10.9,10.4,10.6,18.8c-0.2,4.7,0,9.4-0.5,14c-1,8-3.3,15.4-10.4,20.5c-4.8,2.8-4.3,2.3,0.2,4.1
		c6.6,3.1,8.7,9.4,11.7,15.1c5.3,10.1,5.5,20.6,2,31.2c-1.6,4.9-4.1,9.5-6.3,14.2c-0.5,1-3.5,3.7-4.5,4.1c-4.5,1.9-4.9,2-9.5,3.7
		c-1.7,0.6-6,0.8-7.7,0.9c-10.4,0.2-20.8,0.3-31.2,0.4c-7.7,0.1-8.4,0.7-8.5-2.1c0.4-12.5,1-25,1-37.5c0-18-0.3-36-0.7-53.9
		c-0.2-9-1.2-18-1.5-27c-0.1-4.2,0.5-8.5,0.8-12.5C456.8,305.3,457.7,304.9,458.1,304.8z M476.7,379.1c-0.1,13.7-0.5,27.7,0.6,40.7
		c0.2,1.5,1.5,1.6,3,1.5c3.1-0.2,6.2,0.1,9.2-0.5c5.3-1.1,10.4-2.8,13.9-7.3c4.4-5.7,5.8-12.3,5.9-19.4c0-2.7-1-4.5-2.7-6.3
		c-5.9-6.4-13.5-9.2-22-9.9C482,377.7,476.8,377.7,476.7,379.1z M476.6,322.9c0,1.7,0,3.2,0,4.7c0,10.2,0,20.5,0,30.7
		c0.1,1.6,2.4,2.4,2.8,2.4c5.5,0.1,9.5,1.4,14.7-1.3c3.2-1.7,7-3.3,8.1-7.1c1.5-5.2,2.7-10.6,3.3-15.9c0.5-4.7-3.2-9.9-7.7-11.6
		c-6.5-2.5-13.3-2.1-20.3-2.5C477.2,322.3,476.6,322.7,476.6,322.9z"/>
	<path class="st0" d="M599.8,322.3c-7.7,0-16-0.1-23,0c-1,0-0.8,1-0.8,1.2c0.2,12.8,0.5,25.6,0.5,38.4c0,7.3-0.3,14.6-0.5,22
		c-0.1,4.3-0.2,8.5-0.3,12.8c-0.3,6.6-0.8,13.2-0.8,19.8c0,7.1,0.1,9.7,0.3,16.7c0,0.7,0,5.1,0,6c0,1.6-0.6,1.4-2.1,1.4
		c-6.5,0-10.3,0-16.8,0c-1.5,0-1.3-0.2-1.3-3c0-2.3,0.1-5-0.1-8c1.9-22.5,1.2-42.4,1-64.9c-0.1-12.1-0.4-28.1-0.7-40.2
		c0-1.7-4.8-0.6-6.8-0.8c-6.1-0.4-9.1,0-15.3-0.4c-2-0.1-2,0.2-2-1.9c0-5.7,0-11.3,0-17.2c0-1.4,3.7-1.5,5.4-1.4
		c11.7,0.5,19.5,0.9,31.2,1c6.9,0,5.6,0.5,12.5-0.1c0.3,0,15.2-0.5,15.4-0.5c5.3,0,5-1.2,4.9,4.3c-0.1,3.8,0.1,9.7,0.2,14.2
		C600.6,321.8,600.8,322.3,599.8,322.3z"/>
	<path class="st0" d="M301.4,303.7c5.4,0,10.1,0,15.4,0.1c0.5,0,1.4,1,1.4,1.5c0.6,7.3,0.7,14.5,0.7,21.8c0,15.1,0.2,30.2,0.2,45.3
		c0,6.3-0.4,12.1-0.1,18.4c0.5,8.3,0.2,16.9,0.5,25.3c0.1,3.5-1.3,4.5,5.6,4.2c5.4,0.3,10.7,0.3,16.1,0.5c3.7,0.1,7.3,0.3,11,0.3
		c1.4,0,2-0.2,2,1.9c-0.2,5.5-0.5,11.1-0.7,16.6c-0.1,1.9-1.5,1.9-2.7,1.8c-6.5-0.3-11.6-0.4-19.4-1c-10.9,0.2-20.3,0.1-30.5-1.3
		c-2.4-0.3-3.1,0.6-3.1-3.3c0-6.3,0.7-16.2,0.8-22.5c0.1-8.7-0.2-17.4-0.2-26.1c0-8.7,0.3-17.4,0.5-26c0-1.5,0.2-3.1,0.2-4.6
		c0.5-17.3,0.9-34.6,1.4-51.9C300.6,304.5,300.6,303.6,301.4,303.7z"/>
</g>
<g>
	<g>
		<path class="st0" d="M255.7,340.8c-0.1,0.6-0.2,1.6-0.4,2.8c0,0.3,0.8,0.7,1.2,0.5c4-1,7.7-2,11.5-2.9c1.7-0.4,2.2,0.7,2.3,1.4
			c0.4,2,0.8,2.1-3.3,4.1c-4.2,2-8.7,3.4-13.1,5.2c-3.1,1.2-4.6,0-4.9-3.1c0.4-11,0.9-14,3.2-22.6c0.7-2.5,2.6-5.2,9.4-4.4
			c1.6,0.2,4.9,1,11.4-0.1c6.1-1,9.4,1.5,10.7,7.5c2.1,14,1.5,23.8,1.2,35.8c-0.1,2-3.5,2.6-4.4,0.7c-0.5-1.1-0.6-2.8-0.7-3.8
			c-0.9-9.8-0.4-18.2-1.3-27.9c-0.1-1-0.7-1.3-1-0.5c-0.2,0.4,0.2,5.7,0.2,6.1c0.4,10.5,0.5,16.3,1.9,25.7c0.4,3,0.2,6.3,0.5,9.4
			c0.7,8.5,0.3,12.1,0.6,23.9c0.2,8.8,0.9,20.6,1.1,28.8c0.2,5.7,0.8,13.6-4.2,13.4c-3.2-0.1-2.7-4.2-2.8-6.3
			c-1.1-14.9-1-29.5-2.4-44.3c-0.6-6-1.8-14.7-2.8-17.1c-0.6-1.4-3.2-1.3-3.5-0.2c-0.5,1.6-0.5,2.8-0.4,4.4
			c0.3,14.8,0.2,12,0.6,26.7c0.1,5.1,0.8,15.9,0.9,21c0,1.2,0.5,13.6-0.1,14.5c-0.6,0.8-2.3,1.4-3.3,1.4c-0.5,0-1.5-0.5-1.8-1.4
			c-0.3-0.7-1.9-5.4-2.7-12.8c-1.7-15.7-1.6-19.5-2.2-27.5c-0.5-8-1.4-11.3-2.2-17.6c-0.7-5.8-1.1-13-0.9-18.9
			c0.2-4.9,0.2-4.9,0.1-8.7c0-1.1,0.6-1.1,1.4-1.6c1.4-0.9,7.6-3.1,10-3.9c1.6-0.6,5.5-1.8,6-3.5c0.8-2.4,0.1-5.3-3.2-4.7
			c-2.4,0.5-4.3,1.1-6.7,1.5c-0.5,0.1-2.6,0.8-4.3,1c-0.3,0.1-0.9-0.3-0.9-0.8c0.2-1.8,0.9-5.7,0.9-7.5c0-0.6-0.4-0.6-0.6-0.4
			C256.5,334.4,256,339.1,255.7,340.8z"/>
		<path class="st0" d="M273.8,304c2.3,2.6,1.6,8.8,1.2,10.6c-0.6,4.3-3.3,5.8-9,5.9c-2.7,0-5.2-3-5.6-5.6c-0.4-3.4-1.3-8.7,2.2-11.7
			C264.9,300.7,269.7,299.4,273.8,304z"/>
	</g>
	<g>
		<path class="st0" d="M222.3,303.3c6.5,0.1,12.2,3,13.8,11.8c0.4,1.9-0.5,4.3-2.4,8.5c-1.9,3.5-3,3.7-4,5.9
			c-0.9,2.2-1.2,4.2-2.5,6.3c-1.9,2.9-6.1,1.9-7.3,1.4c-1.8-0.8-2.9-3-3.1-4.8c-0.4-2.9-0.9-5.1-3.2-7.2c-3.4-3.1-5.6-6.5-3.7-11
			C211.8,309.4,216.4,302.9,222.3,303.3z"/>
		<g>
			<path class="st0" d="M236.8,342.9c-0.2-1.9-0.5-3.1-1.8-4.3c-1.3-1.2-5.8-2-7.4-1c-3.6,2.5-5.4,2.3-9.3,0
				c-2.6-2.1-6.7-0.9-7.8,0.4c-1.1,1.3-1.6,2.9-1.9,5.1c-0.8,5.1-0.9,10.4-1.1,15.6c0,1.5,0.9,2.5,1.7,2.8c3.3,1.1,4.5,0.8,7.2,1.1
				c4,0.5,6.2,0.7,9,0.8c0.7,0.1,1.1,0,1.7,0.1c3.6,0.2,3.6-2.7,1.2-3.2c-2.4-0.5-2.7-0.5-5-1c-3.1-0.7-2.7-0.6-5.6-1.5
				c0,0-3.5-0.8-4-2.1c-0.5-1.2,0.6-3.4,2.3-3.7c2.5-0.5,7.9,0.7,10.5,1.3c5.5,1.2,4.6,1.6,5.2-3.8c0-0.4,0-1.4,0.1-1.9
				c0.2-0.7,0.8-0.7,0.8,0.4c0.2,0.7,0.4,5.5-0.7,7c-0.4,0.5-1.8,0-3.7-0.4c-1.2-0.2-4.3-0.8-5.5-0.9c-2.8-0.4-6.2-1.3-7.2-0.6
				c-0.7,0.6-1.6,2.2-0.2,3.1c1.1,0.7,4.9,1.5,7.9,2.2c3,0.7,5.9,1.3,8.8,1.8c2.4,0.4,4.7-0.6,4.8-3.6
				C237.1,352,237.2,347.4,236.8,342.9z"/>
			<path class="st0" d="M237.1,369.3c-0.1-0.3-0.6-6.3-0.7-7.5c-0.1-1-0.4-1-0.9-0.9c-0.5,0.1-1.6,0.2-2.5,0.1c-1-0.1-2-0.4-2.2,0
				c-0.3,0.4-0.1,1.5-0.3,1.8c-0.3,0.6-1,1.2-2.2,1.3c-2.5,0-3.3,0.1-6.1-0.1c-1.9-0.1-4.7-0.7-6.1-0.7c-1.1,0-6.7-1-7.1-0.2
				c-0.3,0.6-1.4,5.1-1.5,6.1c-0.3,3-0.9,7.9-1,8.9c-1.1,10-0.8,22.3-2.1,36.3c-0.6,6.7-1.9,13.3-2.3,20c-0.1,1.6,1.4,4.4,2.7,4.8
				c2.5,0.8,5.5,0.2,6.5-3.2c0.7-2.3,1.3-4.7,1.7-7c2.2-13.6,4.3-27.3,6.6-40.9c0.3-1.5,0.3-4.6,1.9-4.4c1.6,0.2,2.1,0.8,2.2,3.3
				c0.6,11.1,0.2,16,0.2,27.2c0,5.2-0.3,9.8-0.6,15c-0.2,2.7,0.6,7.6,4.3,7.8c4.5,0.3,5.3-2.8,5.6-7.9c0.4-9.8,0.8-15.7,1.1-26.4
				c0.2-6.9,2.1-11.5,2.4-16.5c0.1-1.6,0.6-7.6,0.4-9.2C237,376,237.3,370,237.1,369.3z"/>
		</g>
	</g>
</g>
</svg>
